<svg width="260" height="368" viewBox="0 0 260 368" fill="none" xmlns="http://www.w3.org/2000/svg">
<g clip-path="url(#clip0_92_544)">
<path d="M10.0402 332.38C3.68071 322.751 0.843974 311.22 2.01026 299.739C3.17655 288.259 8.27419 277.534 16.4402 269.38C40.6135 245.102 61.5622 217.815 78.7702 188.19C103.02 146.78 120.77 100.55 131.59 50.8C135.222 34.0834 145.346 19.4944 159.735 10.2423C174.124 0.990155 191.599 -2.16711 208.315 1.46503C225.032 5.09717 239.621 15.2212 248.873 29.6099C258.125 43.9986 261.282 61.4734 257.65 78.19C243.97 141.28 221.23 200.19 190.08 253.43C171.1 285.997 148.743 316.475 123.38 344.36C92.2702 378.36 37.4302 373.99 12.0802 335.48L10.0402 332.38Z" fill="#87F54E"/>
<path d="M173.619 76.51C184.113 76.51 192.619 68.0034 192.619 57.51C192.619 47.0166 184.113 38.51 173.619 38.51C163.126 38.51 154.619 47.0166 154.619 57.51C154.619 68.0034 163.126 76.51 173.619 76.51Z" fill="white"/>
<path d="M173.62 76.8899C169.787 76.8899 166.039 75.753 162.852 73.6231C159.665 71.4931 157.181 68.4658 155.714 64.924C154.248 61.3822 153.865 57.485 154.613 53.7254C155.362 49.9657 157.209 46.5126 159.92 43.8026C162.631 41.0927 166.086 39.2477 169.846 38.5011C173.606 37.7544 177.503 38.1396 181.044 39.608C184.585 41.0763 187.611 43.5619 189.739 46.7502C191.867 49.9386 193.002 53.6865 193 57.5199C192.995 62.6572 190.951 67.5825 187.318 71.2142C183.684 74.8459 178.758 76.8872 173.62 76.8899ZM173.62 38.8899C169.936 38.8899 166.334 39.9825 163.27 42.0296C160.206 44.0767 157.818 46.9863 156.408 50.3905C154.998 53.7947 154.629 57.5406 155.348 61.1544C156.067 64.7683 157.841 68.0878 160.447 70.6933C163.052 73.2987 166.372 75.0731 169.986 75.7919C173.6 76.5108 177.345 76.1418 180.75 74.7318C184.154 73.3217 187.063 70.9338 189.111 67.8702C191.158 64.8065 192.25 61.2046 192.25 57.5199C192.245 52.5805 190.28 47.845 186.788 44.3523C183.295 40.8597 178.56 38.8952 173.62 38.8899Z" fill="black"/>
<path d="M209.619 95.51C220.113 95.51 228.619 87.0034 228.619 76.51C228.619 66.0166 220.113 57.51 209.619 57.51C199.126 57.51 190.619 66.0166 190.619 76.51C190.619 87.0034 199.126 95.51 209.619 95.51Z" fill="white"/>
<path d="M209.62 95.8899C205.787 95.8899 202.039 94.753 198.852 92.6231C195.665 90.4931 193.181 87.4658 191.714 83.924C190.248 80.3822 189.865 76.485 190.613 72.7254C191.362 68.9657 193.209 65.5126 195.92 62.8026C198.631 60.0927 202.086 58.2477 205.846 57.5011C209.606 56.7544 213.503 57.1396 217.044 58.608C220.585 60.0763 223.611 62.5619 225.739 65.7502C227.867 68.9386 229.002 72.6865 229 76.5199C228.995 81.6572 226.951 86.5825 223.318 90.2142C219.684 93.846 214.758 95.8872 209.62 95.8899ZM209.62 57.8899C205.936 57.8899 202.334 58.9825 199.27 61.0296C196.206 63.0767 193.818 65.9863 192.408 69.3905C190.998 72.7947 190.629 76.5406 191.348 80.1544C192.067 83.7683 193.841 87.0878 196.447 89.6933C199.052 92.2988 202.372 94.0731 205.986 94.7919C209.6 95.5108 213.345 95.1418 216.75 93.7318C220.154 92.3217 223.063 89.9338 225.111 86.8702C227.158 83.8065 228.25 80.2046 228.25 76.5199C228.245 71.5805 226.28 66.845 222.788 63.3523C219.295 59.8597 214.56 57.8952 209.62 57.8899Z" fill="black"/>
<path d="M34.3404 300.19C32.2804 302.12 10.4404 337.25 34.4204 328.19C58.4004 319.13 74.4204 313.08 82.3404 300.06C90.2604 287.04 104.34 289 109.28 274.99C114.22 260.98 123.15 220.93 141.12 209.89C159.09 198.85 178 169.78 181.96 155.77C185.92 141.76 202.89 131.77 202.89 131.77L146.82 104.92C146.82 104.92 136.98 164.92 125.03 183.97C113.08 203.02 62.2704 274.19 34.3404 300.19Z" fill="#99FF9B"/>
<path d="M234.63 61.5201C233.699 61.521 232.787 61.2622 231.995 60.7728C231.204 60.2835 230.565 59.583 230.15 58.7501C223.07 44.6001 218.5 38.7501 209.75 32.6101C203 27.8901 187.47 29.4901 182.56 30.4301C181.907 30.5724 181.233 30.5826 180.576 30.46C179.92 30.3375 179.295 30.0847 178.738 29.7165C178.18 29.3483 177.703 28.8723 177.333 28.3165C176.962 27.7607 176.707 27.1363 176.582 26.4803C176.457 25.8243 176.465 25.1499 176.605 24.4969C176.745 23.844 177.015 23.2257 177.397 22.6785C177.78 22.1313 178.269 21.6664 178.834 21.3112C179.4 20.9559 180.031 20.7175 180.69 20.6101C183.05 20.1601 204.09 16.4401 215.49 24.4201C226.89 32.4001 232.14 40.4201 239.09 54.2801C239.471 55.0416 239.652 55.888 239.615 56.739C239.577 57.59 239.323 58.4173 238.877 59.1426C238.43 59.8678 237.805 60.4669 237.062 60.883C236.319 61.2991 235.482 61.5184 234.63 61.5201Z" fill="#65ECFF"/>
<path d="M234.621 61.8899C233.619 61.8895 232.637 61.6081 231.787 61.0779C230.936 60.5476 230.252 59.7896 229.811 58.8899C222.811 44.7999 218.221 38.9699 209.541 32.8899C202.901 28.2399 187.541 29.8899 182.631 30.7699C181.23 31.0309 179.782 30.7275 178.604 29.9257C177.426 29.124 176.612 27.889 176.341 26.4899C176.209 25.7965 176.215 25.0839 176.359 24.3928C176.503 23.7018 176.781 23.0459 177.179 22.4626C177.576 21.8793 178.085 21.3802 178.675 20.9936C179.266 20.6071 179.927 20.3408 180.621 20.2099C182.991 19.7499 204.181 16.0199 215.701 24.0799C227.221 32.1399 232.451 40.0799 239.431 54.0799C239.747 54.7123 239.935 55.4008 239.985 56.1061C240.034 56.8113 239.945 57.5194 239.721 58.1899C239.363 59.2573 238.679 60.1855 237.766 60.8439C236.853 61.5023 235.756 61.8576 234.631 61.8599L234.621 61.8899ZM194.621 29.0199C200.291 29.0199 206.381 29.7699 210.001 32.3099C218.801 38.4699 223.401 44.3099 230.511 58.5899C230.895 59.3578 231.487 60.0032 232.218 60.4536C232.949 60.9041 233.792 61.1417 234.651 61.1399C235.367 61.1432 236.073 60.9752 236.711 60.6499C237.254 60.379 237.738 60.0036 238.136 59.5453C238.534 59.0869 238.838 58.5547 239.03 57.9789C239.223 57.4031 239.3 56.7951 239.257 56.1895C239.214 55.584 239.052 54.9929 238.781 54.4499C231.861 40.6099 226.581 32.6299 215.291 24.7299C204.001 16.8299 183.121 20.5299 180.781 20.9699C179.577 21.2026 178.514 21.9022 177.825 22.9159C177.135 23.9296 176.875 25.1749 177.101 26.3799C177.331 27.5849 178.03 28.6492 179.044 29.3392C180.059 30.0292 181.305 30.2884 182.511 30.0599C186.487 29.3735 190.515 29.0256 194.551 29.0199H194.621Z" fill="black"/>
<path d="M212.55 128.97C211.684 132.142 209.799 134.942 207.187 136.938C204.574 138.935 201.378 140.018 198.09 140.02C196.766 140.018 195.448 139.843 194.17 139.5L193.17 139.27C192.38 139.1 191.39 138.91 190.36 138.71L188.29 138.31L187.29 138.11C186.576 137.97 185.836 137.81 185.07 137.63L184.07 137.4C183.42 137.25 182.74 137.09 182.07 136.91L181.26 136.69H181.16L180.31 136.46C178.6 135.98 176.79 135.46 174.91 134.73L174.04 134.41L173.86 134.34C173.57 134.23 173.27 134.12 172.97 133.99C171.23 133.323 169.436 132.537 167.59 131.63L166.74 131.2L166.48 131.07L165.7 130.66L164.9 130.23C163.39 129.41 161.95 128.58 160.57 127.76L159.8 127.3L158.71 126.63L157.95 126.14C156.22 125.05 154.6 123.94 153.07 122.82L152.38 122.31L151.63 121.73C150.096 120.563 148.663 119.363 147.33 118.13L146.78 117.62C146.31 117.17 145.84 116.72 145.39 116.27L144.87 115.73C143.514 114.351 142.238 112.896 141.05 111.37C140.94 111.23 140.83 111.09 140.74 110.95C139.464 109.299 138.289 107.572 137.22 105.78C135.559 103.062 134.806 99.8854 135.072 96.711C135.337 93.5366 136.606 90.529 138.694 88.1239C140.783 85.7189 143.583 84.0412 146.689 83.3339C149.795 82.6266 153.045 82.9265 155.97 84.1901C158.054 85.0574 159.909 86.3957 161.39 88.1001C161.629 88.3598 161.853 88.6336 162.06 88.9201C162.392 89.3518 162.699 89.8025 162.98 90.2701C163.855 91.7472 164.888 93.1253 166.06 94.3801C166.59 94.9601 167.19 95.5401 167.85 96.1401C169.381 97.51 171.012 98.7635 172.73 99.8901L173.21 100.21C174.71 101.21 176.42 102.21 178.38 103.32L179.3 103.82L179.58 103.97C181.459 104.983 183.415 105.845 185.43 106.55C185.98 106.75 186.52 106.93 187.05 107.1C188.97 107.7 190.82 108.15 192.6 108.53L194.09 108.83L196.04 109.21C197.42 109.47 198.74 109.73 200.04 110.03C200.73 110.17 201.4 110.34 202.04 110.52C203.942 111.04 205.724 111.929 207.282 113.138C208.84 114.347 210.145 115.852 211.121 117.565C212.097 119.279 212.726 121.169 212.971 123.125C213.216 125.082 213.073 127.069 212.55 128.97Z" fill="black"/>
<path d="M198.13 140.52C196.779 140.521 195.435 140.346 194.13 140H194.02C193.77 139.93 193.45 139.85 193.09 139.78C192.37 139.62 191.49 139.45 190.56 139.27L190.29 139.22L189.05 138.98L188.22 138.82L187.38 138.65H187.22C186.51 138.51 185.76 138.35 184.99 138.16L184.18 137.98H183.99C183.33 137.83 182.65 137.67 181.99 137.49L181.17 137.27L180.41 137.06H180.23C178.37 136.54 176.55 135.95 174.79 135.32L173.99 135.02L173.58 134.87C173.33 134.77 173.08 134.68 172.82 134.56C171.13 133.91 169.35 133.13 167.42 132.2L166.77 131.86L166.57 131.76L166.43 131.69L166.33 131.64C166.04 131.5 165.78 131.36 165.52 131.22L165.22 131.06L164.71 130.78C163.35 130.05 161.93 129.24 160.37 128.31L159.76 127.95L159.59 127.85L158.5 127.17C158.23 127.01 157.98 126.84 157.72 126.67C156.09 125.67 154.43 124.52 152.83 123.34L152.37 123L152.13 122.83L151.37 122.24C149.86 121.08 148.37 119.86 147.04 118.62L146.49 118.1C145.97 117.61 145.49 117.17 145.09 116.74C144.9 116.56 144.73 116.37 144.56 116.19C143.187 114.804 141.901 113.335 140.71 111.79C140.588 111.647 140.474 111.496 140.37 111.34C139.091 109.681 137.912 107.948 136.84 106.15C135.155 103.345 134.402 100.079 134.688 96.8201C134.974 93.561 136.285 90.4763 138.433 88.008C140.58 85.5397 143.454 83.8148 146.642 83.0804C149.83 82.346 153.169 82.6399 156.18 83.9199C158.328 84.8073 160.243 86.1757 161.78 87.9199C162.02 88.1799 162.25 88.4699 162.48 88.7699C162.818 89.2159 163.132 89.6799 163.42 90.1599C164.271 91.5987 165.277 92.94 166.42 94.1599C166.9 94.6799 167.42 95.2299 168.18 95.8899C169.69 97.2442 171.301 98.4812 173 99.5899L173.47 99.9099C174.99 100.91 176.67 101.91 178.62 103L179.53 103.5L179.82 103.65C181.674 104.649 183.603 105.501 185.59 106.2L187.19 106.74C188.87 107.26 190.62 107.74 192.7 108.16L194.64 108.55L196.12 108.84C197.4 109.08 198.78 109.34 200.12 109.66C200.81 109.8 201.49 109.97 202.12 110.15C206.074 111.238 209.438 113.847 211.475 117.407C213.512 120.967 214.056 125.189 212.99 129.15C212.085 132.403 210.145 135.272 207.464 137.324C204.783 139.376 201.506 140.498 198.13 140.52ZM194.34 139.01C196.174 139.51 198.089 139.644 199.976 139.403C201.862 139.162 203.682 138.552 205.332 137.608C206.983 136.663 208.431 135.403 209.594 133.898C210.757 132.394 211.611 130.675 212.11 128.84C213.118 125.13 212.613 121.171 210.707 117.832C208.8 114.494 205.647 112.047 201.94 111.03C201.28 110.85 200.62 110.68 199.94 110.55C198.58 110.23 197.22 109.97 195.94 109.73L194.44 109.44L192.49 109.05C190.38 108.6 188.6 108.14 186.89 107.6C186.35 107.43 185.81 107.25 185.25 107.05C183.211 106.336 181.232 105.463 179.33 104.44L179.05 104.29L178.14 103.79C176.14 102.68 174.46 101.66 172.93 100.66L172.44 100.33C170.704 99.1911 169.056 97.9243 167.51 96.5399C166.76 95.8599 166.18 95.2899 165.68 94.7399C164.485 93.4601 163.433 92.0553 162.54 90.5499C162.27 90.1007 161.977 89.6667 161.66 89.2499C161.459 88.977 161.242 88.7166 161.01 88.4699C159.579 86.819 157.785 85.5218 155.77 84.6799C152.953 83.4817 149.828 83.2065 146.845 83.8936C143.862 84.5808 141.173 86.1951 139.165 88.5049C137.156 90.8148 135.93 93.7015 135.663 96.7511C135.396 99.8006 136.102 102.856 137.68 105.48C138.734 107.258 139.9 108.968 141.17 110.6C141.27 110.75 141.36 110.87 141.45 110.99C142.636 112.511 143.908 113.963 145.26 115.34L145.77 115.87C146.2 116.3 146.65 116.73 147.1 117.16L147.7 117.72C149.04 118.95 150.47 120.15 151.96 121.29L152.71 121.87L152.95 122.04L153.39 122.37C154.99 123.54 156.62 124.65 158.25 125.67C158.51 125.85 158.75 126.01 159 126.16L160.1 126.83L160.26 126.93L160.85 127.28C162.41 128.21 163.85 129.01 165.17 129.75L165.67 130.02L165.97 130.18L166.74 130.58L166.88 130.65L167.19 130.81L167.86 131.15C169.74 132.06 171.49 132.83 173.18 133.48L173.91 133.77L174.07 133.83H174.18V134.35L174.36 133.89L175.14 134.17C176.88 134.8 178.69 135.38 180.52 135.9L180.7 135.95L181.35 136.12V136.64L181.49 136.16L182.29 136.37C182.96 136.55 183.64 136.71 184.29 136.86H184.49L185.29 137.04C186.06 137.22 186.79 137.38 187.5 137.52H187.66L188.48 137.69L189.31 137.85L190.55 138.19H190.82C191.76 138.37 192.64 138.54 193.37 138.7C193.72 138.77 194.03 138.85 194.29 138.92L194.34 139.01Z" fill="black"/>
<path d="M176.121 56.6399H173.551L175.381 54.8099C175.451 54.7396 175.491 54.6443 175.491 54.5449C175.491 54.4455 175.451 54.3502 175.381 54.2799C175.311 54.2096 175.215 54.1701 175.116 54.1701C175.016 54.1701 174.921 54.2096 174.851 54.2799L173.021 56.1099V53.5199C173.021 53.4191 172.981 53.3225 172.91 53.2512C172.838 53.1799 172.742 53.1399 172.641 53.1399C172.591 53.1399 172.542 53.1498 172.497 53.169C172.451 53.1882 172.41 53.2163 172.376 53.2518C172.341 53.2872 172.314 53.3292 172.296 53.3752C172.278 53.4213 172.269 53.4705 172.271 53.5199V56.1099L170.431 54.2799C170.396 54.2445 170.355 54.2164 170.31 54.1972C170.264 54.178 170.215 54.1681 170.166 54.1681C170.116 54.1681 170.068 54.178 170.022 54.1972C169.976 54.2164 169.935 54.2445 169.901 54.2799C169.834 54.352 169.797 54.4466 169.797 54.5449C169.797 54.6432 169.834 54.7378 169.901 54.8099L171.741 56.6399H169.141C169.052 56.6545 168.971 56.7002 168.913 56.7689C168.854 56.8376 168.822 56.9248 168.822 57.0149C168.822 57.105 168.854 57.1922 168.913 57.2609C168.971 57.3296 169.052 57.3753 169.141 57.3899H171.741L169.881 59.1899C169.83 59.2435 169.797 59.3106 169.784 59.3829C169.771 59.4553 169.779 59.5299 169.808 59.5977C169.836 59.6654 169.884 59.7234 169.945 59.7646C170.006 59.8059 170.077 59.8285 170.151 59.8299C170.248 59.828 170.341 59.7886 170.411 59.7199L172.251 57.8799V60.4799C172.251 60.578 172.29 60.6721 172.359 60.7415C172.429 60.8109 172.523 60.8499 172.621 60.8499C172.72 60.8499 172.815 60.8113 172.886 60.7422C172.957 60.673 172.998 60.5789 173.001 60.4799V57.8799L174.831 59.7199C174.903 59.7901 175 59.8295 175.101 59.8299C175.198 59.828 175.291 59.7886 175.361 59.7199C175.396 59.6854 175.424 59.6442 175.444 59.5987C175.463 59.5532 175.473 59.5043 175.473 59.4549C175.473 59.4055 175.463 59.3566 175.444 59.3111C175.424 59.2656 175.396 59.2244 175.361 59.1899L173.551 57.3899H176.141C176.195 57.3988 176.251 57.3958 176.304 57.381C176.357 57.3663 176.406 57.3402 176.448 57.3045C176.49 57.2688 176.524 57.2244 176.547 57.1744C176.57 57.1244 176.582 57.07 176.582 57.0149C176.582 56.9598 176.57 56.9054 176.547 56.8553C176.524 56.8053 176.49 56.761 176.448 56.7253C176.406 56.6896 176.357 56.6635 176.304 56.6488C176.251 56.634 176.195 56.631 176.141 56.6399H176.121Z" fill="black"/>
<path d="M213.121 75.6399H210.551L212.381 73.8099C212.451 73.7396 212.491 73.6443 212.491 73.5449C212.491 73.4455 212.451 73.3502 212.381 73.2799C212.311 73.2096 212.215 73.1701 212.116 73.1701C212.016 73.1701 211.921 73.2096 211.851 73.2799L210.021 75.1099V72.5199C210.021 72.4191 209.981 72.3225 209.91 72.2512C209.838 72.1799 209.742 72.1399 209.641 72.1399C209.591 72.1399 209.542 72.1498 209.497 72.169C209.451 72.1882 209.41 72.2163 209.376 72.2518C209.341 72.2872 209.314 72.3292 209.296 72.3752C209.278 72.4213 209.269 72.4705 209.271 72.5199V75.1099L207.431 73.2799C207.396 73.2445 207.355 73.2164 207.31 73.1972C207.264 73.178 207.215 73.1681 207.166 73.1681C207.116 73.1681 207.068 73.178 207.022 73.1972C206.976 73.2164 206.935 73.2445 206.901 73.2799C206.834 73.352 206.797 73.4466 206.797 73.5449C206.797 73.6432 206.834 73.7378 206.901 73.8099L208.741 75.6399H206.141C206.052 75.6545 205.971 75.7002 205.913 75.7689C205.854 75.8376 205.822 75.9248 205.822 76.0149C205.822 76.105 205.854 76.1922 205.913 76.2609C205.971 76.3296 206.052 76.3753 206.141 76.3899H208.741L206.881 78.1899C206.83 78.2435 206.797 78.3106 206.784 78.3829C206.771 78.4553 206.779 78.5299 206.808 78.5977C206.836 78.6654 206.884 78.7234 206.945 78.7646C207.006 78.8059 207.077 78.8285 207.151 78.8299C207.248 78.828 207.341 78.7886 207.411 78.7199L209.251 76.8799V79.4799C209.251 79.578 209.29 79.6721 209.359 79.7415C209.429 79.8109 209.523 79.8499 209.621 79.8499C209.72 79.8499 209.815 79.8113 209.886 79.7422C209.957 79.673 209.998 79.5789 210.001 79.4799V76.8799L211.831 78.7199C211.903 78.7901 212 78.8295 212.101 78.8299C212.198 78.828 212.291 78.7886 212.361 78.7199C212.396 78.6854 212.424 78.6442 212.444 78.5987C212.463 78.5532 212.473 78.5043 212.473 78.4549C212.473 78.4055 212.463 78.3566 212.444 78.3111C212.424 78.2656 212.396 78.2244 212.361 78.1899L210.551 76.3899H213.141C213.195 76.3988 213.251 76.3958 213.304 76.381C213.357 76.3663 213.406 76.3402 213.448 76.3045C213.49 76.2688 213.524 76.2244 213.547 76.1744C213.57 76.1244 213.582 76.07 213.582 76.0149C213.582 75.9598 213.57 75.9054 213.547 75.8553C213.524 75.8053 213.49 75.761 213.448 75.7253C213.406 75.6896 213.357 75.6635 213.304 75.6488C213.251 75.634 213.195 75.631 213.141 75.6399H213.121Z" fill="black"/>
<path d="M150.909 121.69C149.553 120.311 148.278 118.856 147.089 117.33C146.979 117.19 146.869 117.05 146.779 116.91C149.279 115.49 151.619 115.18 152.539 116.3C153.459 117.42 152.719 119.57 150.909 121.69Z" fill="white"/>
<path d="M150.93 122.24L150.64 121.95C149.278 120.56 147.996 119.095 146.8 117.56C146.678 117.419 146.567 117.269 146.47 117.11L146.25 116.78L146.6 116.58C149.36 115.01 151.8 114.81 152.83 116.06C153.86 117.31 153.19 119.59 151.2 121.93L150.93 122.24ZM147.34 117.03C148.442 118.45 149.62 119.809 150.87 121.1C152.37 119.22 152.93 117.36 152.23 116.5C151.53 115.64 149.55 115.87 147.34 117.03Z" fill="black"/>
<path d="M160.391 88.13C157.641 90.57 154.641 91.56 153.391 90.35C152.141 89.14 153.001 86.72 154.931 84.22C157.029 85.082 158.899 86.4206 160.391 88.13Z" fill="white"/>
<path d="M154.88 91.19C154.568 91.206 154.256 91.1594 153.962 91.0529C153.669 90.9464 153.399 90.7822 153.17 90.57C151.95 89.36 152.55 86.69 154.67 83.95L154.85 83.72L155.12 83.83C157.253 84.7196 159.152 86.0883 160.67 87.83L160.92 88.11L160.64 88.36C158.55 90.19 156.45 91.19 154.88 91.19ZM155.09 84.64C153.41 86.92 152.82 89.16 153.7 90.04C154.58 90.92 157.36 90.16 159.86 88.04C158.52 86.6019 156.896 85.4577 155.09 84.68V84.64Z" fill="black"/>
<path d="M165.06 94.41C162.4 96.64 159.59 97.51 158.43 96.35C157.27 95.19 158.33 91.81 161.06 88.95C161.392 89.3817 161.7 89.8324 161.98 90.3C162.855 91.7771 163.888 93.1552 165.06 94.41Z" fill="white"/>
<path d="M159.88 97.1901C159.568 97.2061 159.256 97.1595 158.962 97.053C158.669 96.9465 158.399 96.7823 158.17 96.5701C156.73 95.1301 157.85 91.7201 160.79 88.6501L161.09 88.3301L161.36 88.6801C161.7 89.1211 162.014 89.5819 162.3 90.0601C163.147 91.5168 164.153 92.8751 165.3 94.1101L165.56 94.4001L165.26 94.6501C163.792 96.0618 161.903 96.9539 159.88 97.1901ZM161.03 89.4901C158.68 92.0901 157.63 94.9801 158.7 96.0401C159.77 97.1001 162.1 96.2501 164.52 94.3301C163.439 93.136 162.481 91.8361 161.66 90.4501C161.473 90.1567 161.263 89.8501 161.03 89.5301V89.4901Z" fill="black"/>
<path d="M171.73 99.9199C170.013 98.7998 168.381 97.553 166.85 96.1899C166.677 96.3366 166.507 96.4966 166.34 96.6699C163.41 99.5999 162.11 103.05 163.43 104.37C164.75 105.69 167.63 104.59 170.37 102.16C170.623 101.953 170.873 101.723 171.12 101.47C171.501 101.09 171.862 100.689 172.2 100.27L171.73 99.9199Z" fill="white"/>
<path d="M164.88 105.19C164.568 105.206 164.256 105.16 163.962 105.053C163.668 104.947 163.399 104.782 163.17 104.57C161.67 103.08 162.95 99.4701 166.08 96.3401C166.25 96.1701 166.43 96.0001 166.6 95.8501L166.86 95.6201L167.1 95.8501C168.617 97.2077 170.235 98.4479 171.94 99.5601L172.76 100.11L172.5 100.43C172.155 100.86 171.788 101.27 171.4 101.66C171.152 101.91 170.892 102.147 170.62 102.37C168.55 104.19 166.45 105.19 164.88 105.19ZM166.88 96.6301L166.64 96.8701C163.64 99.8701 162.7 103.01 163.73 104.04C164.76 105.07 167.58 104.1 170.15 101.82C170.41 101.6 170.65 101.37 170.9 101.13C171.15 100.89 171.44 100.56 171.69 100.28L171.55 100.19C169.903 99.1269 168.333 97.9507 166.85 96.6701L166.88 96.6301Z" fill="black"/>
<path d="M177.62 103.37C175.767 102.481 173.982 101.455 172.28 100.3C172.13 100.47 171.99 100.65 171.84 100.84C169.32 104.14 168.49 107.73 169.98 108.84C171.47 109.95 174.17 108.5 176.56 105.73C176.78 105.49 177 105.23 177.21 104.95C177.541 104.522 177.845 104.075 178.12 103.61L177.62 103.37Z" fill="white"/>
<path d="M171.09 109.58C170.609 109.592 170.138 109.444 169.75 109.16C168.91 108.51 168.66 107.24 169.04 105.58C169.52 103.759 170.371 102.056 171.54 100.58C171.69 100.38 171.84 100.19 172 100.01L172.22 99.76L172.49 99.95C174.177 101.079 175.945 102.082 177.78 102.95L178.67 103.39L178.46 103.74C178.184 104.24 177.881 104.724 177.55 105.19C177.33 105.48 177.1 105.75 176.88 106C174.89 108.26 172.7 109.58 171.09 109.58ZM172.35 100.8L172.14 101.07C171.035 102.449 170.228 104.043 169.77 105.75C169.46 107.09 169.62 108.12 170.2 108.56C171.36 109.45 174.03 108.11 176.28 105.51C176.51 105.25 176.72 105 176.92 104.73C177.12 104.46 177.39 104.09 177.59 103.78L177.45 103.71C175.685 102.859 173.981 101.887 172.35 100.8Z" fill="black"/>
<path d="M184.43 106.58C182.53 109.02 180.31 110.3 178.98 109.58C177.65 108.86 177.67 106.64 178.58 104.04C180.46 105.039 182.416 105.888 184.43 106.58Z" fill="white"/>
<path d="M179.859 110.13C179.488 110.14 179.121 110.047 178.799 109.86C177.429 109.08 177.209 106.78 178.229 103.86L178.369 103.45L178.759 103.66C180.618 104.658 182.554 105.504 184.549 106.19L185.039 106.37L184.719 106.78C183.069 108.94 181.269 110.13 179.859 110.13ZM178.799 104.54C178.079 106.82 178.219 108.67 179.169 109.21C180.119 109.75 182.079 108.8 183.809 106.75C182.093 106.123 180.419 105.385 178.799 104.54Z" fill="black"/>
<path d="M191.6 108.56C189.91 110.35 188.12 111.2 186.98 110.56C186.11 110.06 185.82 108.78 186.05 107.15C187.97 107.73 189.82 108.19 191.6 108.56Z" fill="white"/>
<path d="M187.86 111.19C187.485 111.196 187.115 111.099 186.79 110.91C185.79 110.35 185.42 109 185.68 107.12L185.74 106.69L186.16 106.82C187.85 107.34 189.6 107.82 191.68 108.24L192.33 108.38L191.87 108.86C190.45 110.33 189.02 111.19 187.86 111.19ZM186.37 107.67C186.26 108.97 186.55 109.9 187.17 110.26C188 110.74 189.41 110.18 190.85 108.83C189.21 108.41 187.76 108.04 186.37 107.62V107.67Z" fill="black"/>
<path d="M199.04 110.06C197.24 112.19 195.22 113.25 193.98 112.54C193.07 112.02 192.79 110.62 193.09 108.86L195.04 109.24C196.42 109.5 197.74 109.76 199.04 110.06Z" fill="white"/>
<path d="M194.841 113.13C194.489 113.129 194.145 113.036 193.841 112.86C192.841 112.28 192.421 110.79 192.761 108.79L192.831 108.41L193.661 108.58L195.151 108.87C196.431 109.11 197.801 109.38 199.151 109.69L199.741 109.83L199.351 110.3C197.791 112.11 196.151 113.13 194.841 113.13ZM193.401 109.3C193.221 110.76 193.501 111.83 194.171 112.21C195.121 112.75 196.751 111.98 198.341 110.28C197.191 110.03 196.051 109.81 194.971 109.6L193.481 109.32L193.401 109.3Z" fill="black"/>
<path d="M151.67 121.69C150.137 120.523 148.704 119.323 147.37 118.09L146.82 117.58C148.53 115.76 150.34 114.9 151.48 115.58C152.8 116.31 152.81 118.85 151.67 121.69Z" fill="white"/>
<path d="M151.839 122.28L151.439 121.98C149.929 120.83 148.439 119.61 147.119 118.36L146.559 117.85L146.289 117.59L146.549 117.32C148.469 115.32 150.379 114.49 151.669 115.22C153.149 116.08 153.289 118.67 152.019 121.83L151.839 122.28ZM147.359 117.56C147.441 117.648 147.528 117.732 147.619 117.81C148.849 118.93 150.149 120.03 151.499 121.08C152.399 118.58 152.329 116.47 151.289 115.87C150.409 115.37 148.889 116.03 147.359 117.56Z" fill="black"/>
<path d="M157.99 126.1C156.26 125.01 154.64 123.9 153.11 122.78L152.42 122.27C154.27 119.27 156.7 117.62 158.18 118.38C159.66 119.14 159.66 122.59 157.99 126.1Z" fill="white"/>
<path d="M158.15 126.64L157.79 126.41C156.14 125.41 154.5 124.25 152.89 123.08L152.43 122.74L151.92 122.36L152.1 122.07C154.1 118.85 156.7 117.19 158.35 118.07C160 118.95 160.12 122.53 158.35 126.29L158.15 126.64ZM152.93 122.19L153.33 122.48C154.81 123.56 156.33 124.6 157.83 125.56C159.22 122.42 159.32 119.4 158.01 118.72C156.7 118.04 154.65 119.57 152.93 122.19Z" fill="black"/>
<path d="M165.75 130.6L164.95 130.17C163.44 129.35 162 128.52 160.62 127.7L159.85 127.24C161.75 123.69 164.56 121.52 166.19 122.36C167.82 123.2 167.65 126.92 165.75 130.6Z" fill="white"/>
<path d="M166.12 131.25L165.27 130.79L164.76 130.51C163.4 129.78 161.98 128.97 160.42 128.04L159.81 127.68L159.34 127.39L159.51 127.08C161.56 123.25 164.51 121.08 166.35 122.08C168.19 123.08 168.11 126.83 166.13 130.73L166.12 131.25ZM160.34 127.12L160.8 127.39C162.36 128.32 163.8 129.12 165.12 129.86L165.58 130.11C167.37 126.46 167.27 123.36 166.01 122.71C164.75 122.06 162.1 124.01 160.34 127.12Z" fill="black"/>
<path d="M173.009 133.95C171.269 133.283 169.476 132.497 167.629 131.59L166.779 131.16C167.989 127.7 170.129 125.36 171.779 125.83C173.429 126.3 174.119 129.98 173.009 133.95Z" fill="white"/>
<path d="M173.26 134.44L172.88 134.3C171.16 133.64 169.39 132.86 167.47 131.92L166.81 131.59L166.32 131.35L166.43 131.03C167.74 127.28 170.04 124.94 171.88 125.47C173.88 126.04 174.56 129.81 173.37 134.05L173.26 134.44ZM167.26 130.97L167.82 131.26C169.57 132.11 171.19 132.83 172.77 133.44C173.66 129.89 173.2 126.61 171.69 126.19C170.33 125.8 168.4 127.88 167.25 130.97H167.26Z" fill="black"/>
<path d="M193.21 139.26C193.3 134.51 193.08 124.98 190.12 122.02C186.12 118.02 180.12 114.02 178.12 117.02C176.12 120.02 184.12 121.02 184.12 125.02V137.39L185.12 137.62C185.886 137.8 186.626 137.96 187.34 138.1" fill="#E01700"/>
<path d="M193.55 139.26H192.8C192.87 135.13 192.74 125.26 189.8 122.26C186.67 119.13 182.38 116.08 179.86 116.34C179.561 116.357 179.271 116.443 179.012 116.593C178.754 116.742 178.534 116.95 178.37 117.2C178.271 117.33 178.199 117.478 178.158 117.636C178.117 117.794 178.107 117.958 178.13 118.12C178.29 118.88 179.42 119.6 180.6 120.36C182.4 121.52 184.44 122.83 184.44 125V137.09L185.14 137.25C185.91 137.43 186.65 137.59 187.35 137.73L187.21 138.47C186.49 138.32 185.75 138.16 184.98 137.98C184.71 137.98 184.44 137.86 184.17 137.8L183.69 137.68V125.02C183.69 123.26 181.83 122.02 180.2 121.02C178.87 120.16 177.62 119.36 177.4 118.29C177.355 118.033 177.363 117.769 177.423 117.514C177.483 117.26 177.594 117.02 177.75 116.81C177.97 116.471 178.264 116.186 178.611 115.978C178.957 115.77 179.347 115.644 179.75 115.61C182.75 115.3 187.28 118.74 190.3 121.75C193.32 124.76 193.69 134.02 193.55 139.26Z" fill="black"/>
<path d="M180.35 136.42C178.64 135.94 176.83 135.42 174.95 134.69L174.08 134.37C175.32 131.37 177.26 129.37 178.78 129.83C180.3 130.29 180.96 133.08 180.35 136.42Z" fill="white"/>
<path d="M180.65 136.89L180.25 136.78C178.4 136.26 176.58 135.67 174.82 135.04L174.02 134.75L173.66 134.61L173.73 134.22C175.1 130.89 177.17 128.98 178.88 129.47C180.59 129.96 181.38 132.84 180.72 136.47L180.65 136.89ZM174.55 134.19L175.04 134.37C176.66 134.96 178.33 135.5 180.04 135.98C180.5 132.98 179.93 130.58 178.67 130.23C177.41 129.88 175.76 131.49 174.55 134.19Z" fill="black"/>
<path d="M187.341 138.1C186.628 137.96 185.888 137.8 185.121 137.62L184.121 137.39C183.471 137.24 182.791 137.08 182.121 136.9L181.311 136.68H181.211C181.981 134.68 183.061 133.3 184.131 132.84C184.445 132.701 184.792 132.655 185.131 132.71C186.551 132.96 187.421 135.19 187.341 138.1Z" fill="white"/>
<path d="M187.699 138.55L187.269 138.47C186.549 138.32 185.809 138.16 185.039 137.98C184.769 137.98 184.499 137.86 184.229 137.8L184.039 137.75C183.379 137.6 182.699 137.44 182.039 137.26L181.219 137.04L180.859 136.91V136.51C181.679 134.44 182.859 132.96 183.979 132.51C184.372 132.337 184.807 132.285 185.229 132.36C186.839 132.67 187.809 134.95 187.729 138.16L187.699 138.55ZM181.699 136.4L182.189 136.53C182.869 136.71 183.549 136.87 184.189 137.02H184.379L185.179 137.2L186.949 137.59C186.949 135.08 186.179 133.21 185.059 133C184.786 132.95 184.503 132.984 184.249 133.1C183.046 133.873 182.149 135.039 181.709 136.4H181.699Z" fill="black"/>
<path d="M141.119 122.39C141.064 122.39 141.009 122.378 140.958 122.353C140.908 122.329 140.864 122.294 140.829 122.25C137.553 117.976 134.75 113.359 132.469 108.48C127.899 98.4801 128.029 90.5701 132.859 85.7501C144.379 74.2201 151.099 77.5801 157.039 80.5501L157.289 80.6801C157.377 80.7251 157.444 80.8025 157.475 80.8957C157.507 80.989 157.501 81.091 157.459 81.1801C157.438 81.2257 157.408 81.2665 157.37 81.3C157.333 81.3335 157.289 81.359 157.241 81.3749C157.193 81.3908 157.143 81.3968 157.093 81.3925C157.043 81.3883 156.994 81.3738 156.949 81.3501L156.699 81.2201C150.699 78.2201 144.529 75.1301 133.389 86.2801C122.249 97.4301 141.219 121.54 141.389 121.78C141.421 121.818 141.445 121.863 141.459 121.911C141.473 121.958 141.478 122.008 141.472 122.058C141.467 122.107 141.451 122.155 141.427 122.199C141.402 122.242 141.369 122.28 141.329 122.31C141.271 122.361 141.197 122.39 141.119 122.39Z" fill="black"/>
<path d="M196.63 146.92C191.001 146.819 185.412 145.965 180.01 144.38C179.915 144.35 179.835 144.284 179.789 144.196C179.742 144.108 179.732 144.006 179.76 143.91C179.79 143.815 179.856 143.736 179.944 143.689C180.032 143.642 180.134 143.632 180.23 143.66C180.41 143.71 198.36 149.19 208.51 143.66C210.033 142.863 211.374 141.76 212.45 140.419C213.526 139.079 214.312 137.53 214.76 135.87C218.76 121.87 211.66 111.12 205.91 107.29C205.869 107.263 205.833 107.228 205.806 107.187C205.778 107.146 205.759 107.1 205.75 107.051C205.741 107.003 205.741 106.953 205.752 106.905C205.762 106.856 205.782 106.811 205.81 106.77C205.865 106.687 205.95 106.63 206.047 106.609C206.144 106.588 206.246 106.607 206.33 106.66C212.26 110.66 219.59 121.71 215.48 136.08C215.007 137.836 214.175 139.474 213.038 140.892C211.9 142.311 210.481 143.478 208.87 144.32C205.31 146.28 200.91 146.92 196.63 146.92Z" fill="black"/>
<path d="M171.939 97.54C171.367 97.5533 170.798 97.4482 170.268 97.2314C169.738 97.0146 169.258 96.6907 168.859 96.28C163.659 91.09 175.349 78.28 175.859 77.76C175.931 77.7047 176.019 77.6764 176.109 77.6803C176.199 77.6842 176.285 77.72 176.351 77.7813C176.417 77.8426 176.459 77.9254 176.47 78.0149C176.481 78.1045 176.459 78.1949 176.409 78.27C176.289 78.4 164.709 91.06 169.409 95.75C169.765 96.1067 170.195 96.3811 170.668 96.5538C171.142 96.7266 171.647 96.7936 172.149 96.75C177.359 96.54 184.779 87.83 184.859 87.75C184.928 87.6905 185.016 87.6577 185.107 87.6576C185.198 87.6575 185.286 87.6901 185.355 87.7494C185.425 87.8088 185.47 87.891 185.484 87.981C185.497 88.071 185.478 88.163 185.429 88.24C185.109 88.61 177.709 97.24 172.179 97.51L171.939 97.54Z" fill="black"/>
<path d="M165.12 81.39H165.05C164.84 81.39 159.9 80.34 156.86 77.29C153.82 74.24 152.79 67.37 152.75 67.08C152.743 67.0314 152.746 66.9818 152.758 66.9342C152.77 66.8866 152.792 66.842 152.822 66.8029C152.852 66.7638 152.889 66.731 152.931 66.7065C152.974 66.6819 153.021 66.6661 153.07 66.66C153.167 66.6457 153.265 66.6702 153.344 66.7283C153.423 66.7864 153.475 66.8733 153.49 66.97C153.49 67.04 154.49 73.89 157.39 76.76C160.29 79.63 165.15 80.65 165.19 80.66C165.288 80.6693 165.378 80.7172 165.441 80.7931C165.504 80.8691 165.534 80.9669 165.525 81.065C165.516 81.1631 165.468 81.2536 165.392 81.3164C165.316 81.3792 165.218 81.4093 165.12 81.4V81.39Z" fill="black"/>
<path d="M209.05 102.48C203.22 102.48 197.11 95.5801 196.84 95.2601C196.775 95.1859 196.742 95.0888 196.749 94.9904C196.755 94.8919 196.801 94.8001 196.875 94.7351C196.949 94.6701 197.046 94.6373 197.145 94.6439C197.243 94.6505 197.335 94.6959 197.4 94.7701C197.47 94.8501 204.33 102.6 210.06 101.65C213.787 101 217.444 99.9957 220.98 98.6501C221.026 98.6308 221.075 98.6209 221.125 98.621C221.175 98.6211 221.224 98.6313 221.27 98.6509C221.316 98.6705 221.357 98.6991 221.391 98.7351C221.426 98.771 221.453 98.8136 221.47 98.8601C221.506 98.953 221.505 99.0565 221.465 99.1481C221.426 99.2398 221.352 99.3124 221.26 99.3501C217.667 100.69 213.958 101.694 210.18 102.35C209.808 102.424 209.43 102.467 209.05 102.48Z" fill="black"/>
<path d="M6.53475 328.007C9.23851 327.446 10.7932 323.922 10.0072 320.137C9.22128 316.351 6.39231 313.738 3.68855 314.299C0.984796 314.861 -0.569888 318.384 0.216069 322.17C1.00203 325.955 3.831 328.568 6.53475 328.007Z" fill="#87F54E"/>
<path d="M96.9428 207.384C97.9941 203.664 96.6922 200.039 94.0348 199.288C91.3774 198.537 88.371 200.944 87.3196 204.665C86.2683 208.385 87.5702 212.01 90.2276 212.761C92.8849 213.512 95.8914 211.104 96.9428 207.384Z" fill="black"/>
<path d="M97.9349 207.382C98.9863 203.661 97.6843 200.037 95.027 199.286C92.3696 198.535 89.3631 200.942 88.3118 204.662C87.2605 208.383 88.5624 212.007 91.2198 212.758C93.8771 213.509 96.8836 211.102 97.9349 207.382Z" fill="#87F54E"/>
<path d="M213.762 173.799C216.39 170.938 216.865 167.097 214.822 165.219C212.778 163.341 208.99 164.138 206.362 166.999C203.733 169.86 203.258 173.701 205.302 175.579C207.345 177.457 211.133 176.66 213.762 173.799Z" fill="black"/>
<path d="M210.854 174.187C213.473 171.343 213.949 167.521 211.917 165.65C209.886 163.78 206.116 164.569 203.498 167.413C200.879 170.257 200.403 174.078 202.434 175.949C204.465 177.82 208.235 177.03 210.854 174.187Z" fill="#87F54E"/>
<path d="M116.105 318.889C119.595 317.225 121.462 313.856 120.274 311.363C119.086 308.871 115.293 308.198 111.804 309.861C108.314 311.524 106.447 314.893 107.635 317.386C108.823 319.879 112.616 320.552 116.105 318.889Z" fill="black"/>
<path d="M115.447 318.145C118.937 316.482 120.803 313.113 119.615 310.62C118.427 308.127 114.635 307.455 111.145 309.118C107.655 310.781 105.789 314.15 106.977 316.643C108.165 319.136 111.957 319.809 115.447 318.145Z" fill="#87F54E"/>
<path d="M196.16 253.837C198.472 250.738 198.552 246.888 196.339 245.236C194.126 243.585 190.457 244.758 188.145 247.856C185.833 250.955 185.753 254.805 187.966 256.457C190.179 258.108 193.848 256.935 196.16 253.837Z" fill="#87F54E"/>
</g>
<defs>
<clipPath id="clip0_92_544">
<rect width="259.14" height="367.35" fill="white"/>
</clipPath>
</defs>
</svg>
