<svg width="358" height="102" viewBox="0 0 358 102" fill="none" xmlns="http://www.w3.org/2000/svg">
<g clip-path="url(#clip0_99_963)">
<path d="M354.288 40.4885H297.105C295.055 40.4885 293.393 38.812 293.393 36.7443C293.393 34.6765 295.055 33 297.105 33H354.288C356.338 33 358 34.6765 358 36.7443C358 38.812 356.338 40.4885 354.288 40.4885Z" fill="white"/>
<path d="M307.299 52.8156C313.176 52.8156 317.958 57.6391 317.958 63.5672C317.958 69.4953 313.177 74.3197 307.299 74.3197C301.421 74.3197 296.64 69.4962 296.64 63.5681C296.64 57.64 301.422 52.8156 307.299 52.8156ZM307.299 48.1353C298.85 48.1353 292 55.0453 292 63.5681C292 72.091 298.85 79.0001 307.299 79.0001C315.749 79.0001 322.598 72.091 322.598 63.5681C322.598 55.0453 315.749 48.1353 307.299 48.1353Z" fill="white"/>
<path d="M341.922 52.8156C347.799 52.8156 352.581 57.6391 352.581 63.5672C352.581 69.4953 347.8 74.3197 341.922 74.3197C336.044 74.3197 331.263 69.4962 331.263 63.5681C331.263 57.64 336.045 52.8156 341.922 52.8156ZM341.922 48.1353C333.473 48.1353 326.623 55.0443 326.623 63.5672C326.623 72.09 333.473 78.9991 341.922 78.9991C350.372 78.9991 357.221 72.09 357.221 63.5672C357.221 55.0443 350.372 48.1353 341.922 48.1353Z" fill="white"/>
<path d="M307.299 66.2649C308.775 66.2649 309.972 65.0575 309.972 63.5681C309.972 62.0787 308.775 60.8713 307.299 60.8713C305.822 60.8713 304.625 62.0787 304.625 63.5681C304.625 65.0575 305.822 66.2649 307.299 66.2649Z" fill="white"/>
<path d="M341.924 66.2649C343.4 66.2649 344.597 65.0575 344.597 63.5681C344.597 62.0787 343.4 60.8713 341.924 60.8713C340.447 60.8713 339.25 62.0787 339.25 63.5681C339.25 65.0575 340.447 66.2649 341.924 66.2649Z" fill="white"/>
</g>
<g filter="url(#filter0_d_99_963)">
<mask id="path-6-inside-1_99_963" fill="white">
<path d="M189.306 76.225C189.408 74.9593 189.037 73.8468 188.303 72.7936C187.554 71.7222 187.181 70.5647 187.744 69.2875L187.834 68.9969C188.165 67.8462 188.013 66.7835 187.114 65.9011C186.439 65.2373 186.254 64.4753 186.451 63.5989C186.712 62.4475 186.626 61.3795 185.893 60.3471C185.257 59.4512 185.147 58.4619 185.652 57.4019C186.079 56.5121 186.357 55.5517 186.627 54.6047C186.838 53.8669 186.84 53.0854 186.545 52.3677C186.307 51.7819 186.368 51.2506 186.516 50.6742C186.674 50.0662 186.762 49.438 186.848 48.8166C186.915 48.3384 186.746 47.9147 186.368 47.5865C185.872 47.156 185.7 46.6207 185.782 46.01C185.882 45.3098 186.025 44.6171 185.638 43.9432C185.569 43.8255 185.609 43.6452 185.62 43.4946C185.716 42.2779 185.391 41.146 184.886 40.0436C184.597 39.4087 184.474 38.7402 184.55 38.0488C184.697 36.7077 184.607 35.3693 184.36 34.0551C184.094 32.6414 183.675 31.2559 183.36 29.8502C183.251 29.3639 183.179 28.8521 183.211 28.3598C183.276 27.3557 183.404 26.3529 183.546 25.3534C183.717 24.1489 184.03 22.9806 184.579 21.8695C185.106 20.7941 185.595 19.7012 186.083 18.6096C186.258 18.2155 186.408 17.8072 186.513 17.3916C186.641 16.8919 186.634 16.3874 186.314 15.9328C185.889 15.3295 185.328 15.2165 184.771 15.7223C184.317 16.1393 183.888 16.6154 183.583 17.136C182.985 18.1597 182.296 19.108 181.467 19.9742C180.889 20.5775 180.643 21.2978 180.607 22.1197C180.542 23.7171 180.156 25.2135 178.933 26.4221C178.584 26.7672 178.278 27.1552 177.997 27.5527C177.713 27.9468 177.416 28.3551 177.255 28.7997C176.871 29.8455 176.454 30.9001 176.258 31.9863C175.998 33.433 175.597 34.8333 175.191 36.2456C174.854 37.4186 174.277 38.3824 173.408 39.2285C172.857 39.7645 172.472 40.3994 172.232 41.1009C171.943 41.9409 171.692 42.7904 171.451 43.6439C171.343 44.0326 171.268 44.4341 171.228 44.833C171.043 46.7417 170.896 48.6545 170.692 50.5585C170.642 51.0098 170.685 51.5109 170.354 51.9212L170.212 51.8041C169.684 51.1161 169.62 50.3191 169.539 49.506C169.35 47.5999 169.145 45.6986 169.227 43.7791C169.251 43.1993 169.227 42.6182 169.246 42.0385C169.262 41.5643 169.052 41.2119 168.672 40.9287C168.527 40.8218 168.378 40.7229 168.211 40.6052C168.241 40.2481 168.271 39.8977 168.3 39.5486C168.369 38.6965 168.245 37.9049 167.663 37.1899C167.455 36.937 167.364 36.5362 167.367 36.2053C167.375 35.3505 167.46 34.4936 167.532 33.6401C167.588 32.9326 167.318 32.3575 166.796 31.8713C166.662 31.7495 166.489 31.65 166.393 31.5067C166.244 31.2841 166.027 31.0265 166.042 30.7945C166.087 29.9679 166.164 29.1353 166.334 28.3255C166.468 27.6872 166.775 27.0833 166.969 26.4537C167.315 25.3158 167.679 24.1818 167.952 23.027C168.093 22.4365 167.782 22.0242 167.256 21.8003C166.753 21.5817 166.332 21.6348 165.93 22.154C165.237 23.0459 164.589 23.9747 164.001 24.927C163.741 25.3501 163.634 25.8679 163.518 26.3562C163.325 27.1754 163.118 27.9899 162.471 28.61C161.772 29.2812 161.389 30.0991 161.142 30.9916C161.102 31.1388 161.022 31.2774 160.93 31.4913C160.494 30.4286 160.315 30.3244 159.37 30.5382C159.336 30.3936 159.324 30.2416 159.265 30.1071C159.002 29.5065 158.502 29.413 158.031 29.8932C157.834 30.0917 157.633 30.321 157.536 30.5719C157.171 31.5188 156.804 32.4678 156.518 33.4357C156.235 34.4068 156.092 35.4137 155.817 36.3862C155.208 38.527 154.762 40.7135 153.785 42.752C153.666 43.0002 153.621 43.2834 153.567 43.5544C153.284 45.0132 153.327 46.4646 153.653 47.9147C154.043 49.6398 154.005 51.3744 153.72 53.1089C153.538 54.2301 152.843 55.0957 152.093 55.9256C150.905 57.2364 150.386 58.745 150.534 60.4722C150.606 61.3122 150.794 62.1112 151.152 62.8833C151.773 64.2163 152.002 65.5823 151.441 66.9961C151.346 67.2315 151.278 67.4817 151.246 67.7292C151.162 68.356 151.136 68.97 151.438 69.5828C151.608 69.9332 151.685 70.3549 151.688 70.7463C151.699 72.2865 151.66 73.8253 151.658 75.3655C151.656 75.6372 151.709 75.9177 151.788 76.1813C151.898 76.5633 152.133 76.8767 152.566 76.9716C153.033 77.0738 153.32 76.7853 153.562 76.4739C153.995 75.915 154.301 75.2976 154.375 74.6041C154.508 73.3565 154.942 72.2031 155.456 71.0597C155.689 70.5385 155.785 69.9412 155.825 69.3716C155.901 68.2551 155.641 67.1649 155.396 66.0773C155.336 65.811 155.292 65.5205 155.341 65.2568C155.585 63.9601 156.108 62.7602 157.151 61.8758C158.009 61.142 158.366 60.3141 158.218 59.2575C158.184 59.006 158.205 58.747 158.149 58.5015C157.972 57.7409 158.077 57.0078 158.257 56.2579C158.502 55.2268 158.779 54.1897 158.87 53.1398C159.021 51.3972 159.336 49.6936 159.77 48.0014C160.072 46.8271 160.078 45.6616 159.634 44.5014C159.204 43.3722 159.242 42.2281 159.658 41.0854C159.865 40.5144 159.979 39.9152 160.179 39.3421C160.399 38.7066 160.551 38.0326 161.175 37.3863C161.226 37.7522 161.296 37.9889 161.285 38.219C161.241 38.9749 161.186 39.7295 161.106 40.4788C161.006 41.4533 161.226 42.288 162.14 42.859C162.546 43.1105 162.754 43.473 162.833 43.919C162.914 44.3662 163.151 44.7879 163.557 44.9641C164.519 45.3845 164.68 46.1653 164.769 47.0128L164.793 47.2387C164.983 48.7473 165.263 50.2182 166.055 51.5849C166.375 52.1357 166.419 52.8358 166.56 53.4734C166.656 53.8898 166.616 54.3498 166.784 54.7332C167.117 55.4965 167.062 56.2545 166.977 57.0401C166.804 58.7127 167.282 59.6792 168.848 59.9724C169.236 60.0444 169.452 60.2677 169.488 60.6457C169.529 61.021 169.581 61.3949 169.632 61.7702C169.765 62.7488 169.926 63.724 170.572 64.5466C170.95 65.0268 171.432 65.3039 172.093 65.1593C172.638 65.0389 173.088 64.5136 173.148 63.874C173.206 63.2956 173.255 62.7111 173.22 62.1347C173.124 60.563 173.612 59.1526 174.404 57.7974C174.629 57.4106 174.808 56.9647 174.871 56.5276C174.986 55.7312 175.026 54.9215 175.051 54.1157C175.097 52.6617 175.375 51.3017 176.612 50.2861L176.772 50.1173C177.883 48.678 178.513 47.1231 178.122 45.3044C177.825 43.9075 178.081 42.5462 178.475 41.2004C178.551 40.9368 178.665 40.6826 178.764 40.4236C178.899 40.7337 178.899 41.0108 178.899 41.2879C178.901 42.1434 179.178 42.8704 179.956 43.3809C180.15 43.5087 180.315 43.6836 180.473 43.8551C180.858 44.2781 181.063 44.755 180.894 45.3213C180.738 45.8559 180.581 46.3886 180.409 46.9206C180.074 47.955 179.586 48.9693 179.425 50.0265C179.197 51.5257 179.275 53.0511 179.893 54.5011C180.019 54.8004 180.145 55.1212 180.167 55.4394C180.208 56.1698 180.23 56.9055 180.181 57.6346C180.011 60.0908 180.719 62.272 182.399 64.1592C182.835 64.6475 182.873 65.1606 182.712 65.7794C182.49 66.6288 182.342 67.5025 182.272 68.3748C182.195 69.3117 182.604 70.0455 183.59 70.4046L183.727 70.5398C183.727 71.016 183.732 71.5204 183.723 72.0228C183.715 72.6914 183.949 73.2684 184.484 73.7063C184.905 74.0526 185.336 74.403 185.812 74.6741C186.298 74.9525 186.445 75.309 186.374 75.8148C186.307 76.2889 186.282 76.7678 186.248 77.2467C186.221 77.6488 186.327 78.0026 186.738 78.2057C187.119 78.3934 187.398 78.1755 187.682 77.9811L187.836 77.9723L187.938 78.0779C188.404 78.5218 188.705 78.5965 189.118 78.3745C189.529 78.1513 189.614 77.8271 189.465 77.2608C189.376 76.9225 189.279 76.564 189.306 76.225Z"/>
</mask>
<path d="M189.306 76.225C189.408 74.9593 189.037 73.8468 188.303 72.7936C187.554 71.7222 187.181 70.5647 187.744 69.2875L187.834 68.9969C188.165 67.8462 188.013 66.7835 187.114 65.9011C186.439 65.2373 186.254 64.4753 186.451 63.5989C186.712 62.4475 186.626 61.3795 185.893 60.3471C185.257 59.4512 185.147 58.4619 185.652 57.4019C186.079 56.5121 186.357 55.5517 186.627 54.6047C186.838 53.8669 186.84 53.0854 186.545 52.3677C186.307 51.7819 186.368 51.2506 186.516 50.6742C186.674 50.0662 186.762 49.438 186.848 48.8166C186.915 48.3384 186.746 47.9147 186.368 47.5865C185.872 47.156 185.7 46.6207 185.782 46.01C185.882 45.3098 186.025 44.6171 185.638 43.9432C185.569 43.8255 185.609 43.6452 185.62 43.4946C185.716 42.2779 185.391 41.146 184.886 40.0436C184.597 39.4087 184.474 38.7402 184.55 38.0488C184.697 36.7077 184.607 35.3693 184.36 34.0551C184.094 32.6414 183.675 31.2559 183.36 29.8502C183.251 29.3639 183.179 28.8521 183.211 28.3598C183.276 27.3557 183.404 26.3529 183.546 25.3534C183.717 24.1489 184.03 22.9806 184.579 21.8695C185.106 20.7941 185.595 19.7012 186.083 18.6096C186.258 18.2155 186.408 17.8072 186.513 17.3916C186.641 16.8919 186.634 16.3874 186.314 15.9328C185.889 15.3295 185.328 15.2165 184.771 15.7223C184.317 16.1393 183.888 16.6154 183.583 17.136C182.985 18.1597 182.296 19.108 181.467 19.9742C180.889 20.5775 180.643 21.2978 180.607 22.1197C180.542 23.7171 180.156 25.2135 178.933 26.4221C178.584 26.7672 178.278 27.1552 177.997 27.5527C177.713 27.9468 177.416 28.3551 177.255 28.7997C176.871 29.8455 176.454 30.9001 176.258 31.9863C175.998 33.433 175.597 34.8333 175.191 36.2456C174.854 37.4186 174.277 38.3824 173.408 39.2285C172.857 39.7645 172.472 40.3994 172.232 41.1009C171.943 41.9409 171.692 42.7904 171.451 43.6439C171.343 44.0326 171.268 44.4341 171.228 44.833C171.043 46.7417 170.896 48.6545 170.692 50.5585C170.642 51.0098 170.685 51.5109 170.354 51.9212L170.212 51.8041C169.684 51.1161 169.62 50.3191 169.539 49.506C169.35 47.5999 169.145 45.6986 169.227 43.7791C169.251 43.1993 169.227 42.6182 169.246 42.0385C169.262 41.5643 169.052 41.2119 168.672 40.9287C168.527 40.8218 168.378 40.7229 168.211 40.6052C168.241 40.2481 168.271 39.8977 168.3 39.5486C168.369 38.6965 168.245 37.9049 167.663 37.1899C167.455 36.937 167.364 36.5362 167.367 36.2053C167.375 35.3505 167.46 34.4936 167.532 33.6401C167.588 32.9326 167.318 32.3575 166.796 31.8713C166.662 31.7495 166.489 31.65 166.393 31.5067C166.244 31.2841 166.027 31.0265 166.042 30.7945C166.087 29.9679 166.164 29.1353 166.334 28.3255C166.468 27.6872 166.775 27.0833 166.969 26.4537C167.315 25.3158 167.679 24.1818 167.952 23.027C168.093 22.4365 167.782 22.0242 167.256 21.8003C166.753 21.5817 166.332 21.6348 165.93 22.154C165.237 23.0459 164.589 23.9747 164.001 24.927C163.741 25.3501 163.634 25.8679 163.518 26.3562C163.325 27.1754 163.118 27.9899 162.471 28.61C161.772 29.2812 161.389 30.0991 161.142 30.9916C161.102 31.1388 161.022 31.2774 160.93 31.4913C160.494 30.4286 160.315 30.3244 159.37 30.5382C159.336 30.3936 159.324 30.2416 159.265 30.1071C159.002 29.5065 158.502 29.413 158.031 29.8932C157.834 30.0917 157.633 30.321 157.536 30.5719C157.171 31.5188 156.804 32.4678 156.518 33.4357C156.235 34.4068 156.092 35.4137 155.817 36.3862C155.208 38.527 154.762 40.7135 153.785 42.752C153.666 43.0002 153.621 43.2834 153.567 43.5544C153.284 45.0132 153.327 46.4646 153.653 47.9147C154.043 49.6398 154.005 51.3744 153.72 53.1089C153.538 54.2301 152.843 55.0957 152.093 55.9256C150.905 57.2364 150.386 58.745 150.534 60.4722C150.606 61.3122 150.794 62.1112 151.152 62.8833C151.773 64.2163 152.002 65.5823 151.441 66.9961C151.346 67.2315 151.278 67.4817 151.246 67.7292C151.162 68.356 151.136 68.97 151.438 69.5828C151.608 69.9332 151.685 70.3549 151.688 70.7463C151.699 72.2865 151.66 73.8253 151.658 75.3655C151.656 75.6372 151.709 75.9177 151.788 76.1813C151.898 76.5633 152.133 76.8767 152.566 76.9716C153.033 77.0738 153.32 76.7853 153.562 76.4739C153.995 75.915 154.301 75.2976 154.375 74.6041C154.508 73.3565 154.942 72.2031 155.456 71.0597C155.689 70.5385 155.785 69.9412 155.825 69.3716C155.901 68.2551 155.641 67.1649 155.396 66.0773C155.336 65.811 155.292 65.5205 155.341 65.2568C155.585 63.9601 156.108 62.7602 157.151 61.8758C158.009 61.142 158.366 60.3141 158.218 59.2575C158.184 59.006 158.205 58.747 158.149 58.5015C157.972 57.7409 158.077 57.0078 158.257 56.2579C158.502 55.2268 158.779 54.1897 158.87 53.1398C159.021 51.3972 159.336 49.6936 159.77 48.0014C160.072 46.8271 160.078 45.6616 159.634 44.5014C159.204 43.3722 159.242 42.2281 159.658 41.0854C159.865 40.5144 159.979 39.9152 160.179 39.3421C160.399 38.7066 160.551 38.0326 161.175 37.3863C161.226 37.7522 161.296 37.9889 161.285 38.219C161.241 38.9749 161.186 39.7295 161.106 40.4788C161.006 41.4533 161.226 42.288 162.14 42.859C162.546 43.1105 162.754 43.473 162.833 43.919C162.914 44.3662 163.151 44.7879 163.557 44.9641C164.519 45.3845 164.68 46.1653 164.769 47.0128L164.793 47.2387C164.983 48.7473 165.263 50.2182 166.055 51.5849C166.375 52.1357 166.419 52.8358 166.56 53.4734C166.656 53.8898 166.616 54.3498 166.784 54.7332C167.117 55.4965 167.062 56.2545 166.977 57.0401C166.804 58.7127 167.282 59.6792 168.848 59.9724C169.236 60.0444 169.452 60.2677 169.488 60.6457C169.529 61.021 169.581 61.3949 169.632 61.7702C169.765 62.7488 169.926 63.724 170.572 64.5466C170.95 65.0268 171.432 65.3039 172.093 65.1593C172.638 65.0389 173.088 64.5136 173.148 63.874C173.206 63.2956 173.255 62.7111 173.22 62.1347C173.124 60.563 173.612 59.1526 174.404 57.7974C174.629 57.4106 174.808 56.9647 174.871 56.5276C174.986 55.7312 175.026 54.9215 175.051 54.1157C175.097 52.6617 175.375 51.3017 176.612 50.2861L176.772 50.1173C177.883 48.678 178.513 47.1231 178.122 45.3044C177.825 43.9075 178.081 42.5462 178.475 41.2004C178.551 40.9368 178.665 40.6826 178.764 40.4236C178.899 40.7337 178.899 41.0108 178.899 41.2879C178.901 42.1434 179.178 42.8704 179.956 43.3809C180.15 43.5087 180.315 43.6836 180.473 43.8551C180.858 44.2781 181.063 44.755 180.894 45.3213C180.738 45.8559 180.581 46.3886 180.409 46.9206C180.074 47.955 179.586 48.9693 179.425 50.0265C179.197 51.5257 179.275 53.0511 179.893 54.5011C180.019 54.8004 180.145 55.1212 180.167 55.4394C180.208 56.1698 180.23 56.9055 180.181 57.6346C180.011 60.0908 180.719 62.272 182.399 64.1592C182.835 64.6475 182.873 65.1606 182.712 65.7794C182.49 66.6288 182.342 67.5025 182.272 68.3748C182.195 69.3117 182.604 70.0455 183.59 70.4046L183.727 70.5398C183.727 71.016 183.732 71.5204 183.723 72.0228C183.715 72.6914 183.949 73.2684 184.484 73.7063C184.905 74.0526 185.336 74.403 185.812 74.6741C186.298 74.9525 186.445 75.309 186.374 75.8148C186.307 76.2889 186.282 76.7678 186.248 77.2467C186.221 77.6488 186.327 78.0026 186.738 78.2057C187.119 78.3934 187.398 78.1755 187.682 77.9811L187.836 77.9723L187.938 78.0779C188.404 78.5218 188.705 78.5965 189.118 78.3745C189.529 78.1513 189.614 77.8271 189.465 77.2608C189.376 76.9225 189.279 76.564 189.306 76.225Z" fill="#11B0C8" stroke="#87F54E" stroke-width="2" mask="url(#path-6-inside-1_99_963)"/>
<mask id="path-7-inside-2_99_963" fill="white">
<path d="M61.8445 79.1373C61.6887 78.2024 61.284 77.359 60.577 76.6569C59.727 75.8067 59.2077 74.8234 59.1281 73.6283C59.0363 72.2549 58.2034 71.3496 56.8854 70.8681C56.4522 70.7087 56.1442 70.4928 55.938 70.1202C55.6912 69.6743 55.4095 69.2405 55.2039 68.7784C54.9429 68.1933 54.4869 67.7991 53.8745 67.67C53.1597 67.518 52.8439 67.1071 52.6867 66.5038C52.6276 66.2825 52.5487 66.0659 52.5131 65.8413C52.2727 64.3946 51.4362 63.334 50.1246 62.6029C49.7057 62.3682 49.4972 62.0413 49.2995 61.6357C48.8983 60.8152 48.532 59.9402 47.9395 59.2542C47.0959 58.2769 46.0333 57.5243 44.5339 58.0846L44.3447 58.0348C44.1633 57.6757 43.999 57.2748 43.7699 56.9103C43.2094 56.0265 42.8431 55.9478 41.9035 56.4603L41.7748 56.4677C41.693 56.3083 41.6062 56.1321 41.513 55.9559C41.1915 55.3479 40.9035 54.7197 40.5371 54.136C40.2092 53.6114 39.8123 53.1358 39.037 53.1701C38.84 53.1789 38.6344 53.0047 38.2852 52.85C38.6757 52.5938 38.8777 52.4236 39.1103 52.3153C39.8351 51.973 40.3828 51.4766 40.6559 50.7543C40.7804 50.4288 41.0116 50.2485 41.3217 50.1577C41.7022 50.0481 42.0934 49.9499 42.4889 49.9169C43.5523 49.8261 44.2579 49.2276 44.775 48.4386C45.3085 47.6255 45.7018 46.7344 45.8675 45.7733C45.9522 45.2769 46.0439 44.8249 46.5852 44.523C46.8413 44.3804 47.0006 44.0017 47.0945 43.7011C47.2097 43.3184 47.2588 42.9048 47.2538 42.5073C47.246 41.8159 47.4288 41.2381 47.9545 40.7236C48.9161 39.7881 49.1885 38.6319 48.9638 37.3628C48.7824 36.3378 48.6672 35.3337 49.0705 34.308C49.5499 33.094 49.244 32.0152 48.1472 31.1974C47.8115 30.9479 47.687 30.6721 47.7446 30.2881C47.7795 30.0634 47.8037 29.8361 47.8143 29.6088C47.8527 28.8306 47.9004 28.0525 47.9054 27.2723C47.9054 27.0584 47.8257 26.8055 47.6899 26.6347C46.7367 25.4382 45.97 25.0723 44.6249 25.5162C44.3475 25.6077 44.0694 25.7092 43.7827 25.7509C43.3197 25.8229 43.1554 25.6817 43.1056 25.2405C43.0707 24.9149 43.0658 24.584 42.9961 24.2646C42.8559 23.5947 42.4469 23.2692 41.7193 23.2335C41.4547 23.2194 41.183 23.2315 40.9234 23.2799C40.1196 23.4292 39.4283 23.3028 38.7753 22.7782C38.3165 22.4063 37.7503 22.1473 37.2069 21.8796C36.2623 21.4129 35.29 20.9972 34.3518 20.5204C33.7728 20.2224 33.1718 20.0657 32.5202 20.0429C32.2016 20.0308 31.8737 20.0731 31.5614 20.02C30.5265 19.8438 29.6907 20.2009 28.8976 20.7867C28.0142 21.4384 27.1144 22.0733 26.1905 22.6746C24.977 23.4649 23.664 23.861 22.1845 23.4138L21.8722 23.3539C21.2705 23.1743 20.727 23.3223 20.1751 23.5658C19.2853 23.9599 18.5448 24.5228 17.9125 25.2203C17.5412 25.6312 17.1642 25.7879 16.5909 25.5398C16.0816 25.3212 15.7872 25.412 15.5446 25.79C14.9656 26.6952 14.5908 28.1897 15.7929 29.2678C15.987 29.4413 16.1812 29.6142 16.3868 29.7749C17.2197 30.4266 17.3321 31.2458 17.0248 32.1713C16.8911 32.5795 16.7431 32.9891 16.6635 33.4074C16.3398 35.1306 16.4821 36.7333 18.0363 37.9634C18.3606 38.219 18.638 38.5405 18.8976 38.8593C19.3621 39.4303 19.7128 40.0369 19.5015 40.8124C19.3422 41.3962 19.2739 42.0015 19.1174 42.5839C18.9851 43.0763 18.9851 43.5202 19.2924 43.96C19.4026 44.116 19.4802 44.3407 19.461 44.5216C19.4105 44.9944 19.5172 45.4202 19.732 45.8385C19.9631 46.2857 19.9816 46.7296 19.8323 47.2267C19.5869 48.0371 19.6815 48.8254 20.2846 49.5073C20.5421 49.7979 20.7754 50.1053 21.0329 50.3958C21.417 50.8262 21.6062 51.2822 21.4262 51.8613C21.2221 52.5144 21.3295 53.1379 21.6411 53.7654C22.304 55.1004 22.7336 56.5162 22.74 57.9958C22.7414 58.8345 22.8261 59.7129 22.2947 60.491C21.8459 61.1461 22.102 61.8066 22.5608 62.3063C23.1981 63.0017 23.4954 63.8196 23.814 64.6502C23.9634 65.043 23.9286 65.3779 23.6945 65.7256C22.9925 66.7721 22.9541 67.8953 23.2393 69.075C23.4399 69.9043 23.8347 70.6428 24.3119 71.3409C24.6527 71.8392 24.9087 72.3544 25.0047 72.9349C25.0844 73.4285 25.2914 73.8428 25.7054 74.171C25.8362 74.2746 25.9629 74.4502 25.9771 74.6048C26.0631 75.4267 26.2701 76.2372 26.0198 77.0799C25.7651 77.9361 25.9757 78.3914 26.8022 78.8568C27.3563 79.1682 27.5597 79.6108 27.5917 80.165C27.6159 80.5927 27.5853 81.0245 27.6081 81.4522C27.6522 82.2075 27.8961 82.8902 28.5327 83.396C28.8208 83.6253 29.1316 83.8594 29.5392 83.6966C29.9546 83.5345 30.1239 83.1821 30.1317 82.7819C30.1431 82.3051 30.1189 81.8228 30.0855 81.3453C30.0279 80.5133 30.0599 79.7231 30.9646 79.253L31.0827 79.1521C32.0316 78.2629 32.1304 77.3287 31.4711 76.2237C30.9874 75.4106 30.7662 74.5477 31.1986 73.6222C31.3694 73.2577 31.5109 72.8555 31.5408 72.4614C31.5678 72.0753 31.5308 71.6375 31.3544 71.2999C31.0123 70.6495 30.5613 70.0475 30.1367 69.4362C29.4695 68.4784 29.0925 67.5019 29.8102 66.4116L29.9091 66.2052C30.5905 65.0295 30.651 63.8545 29.8806 62.691C29.6452 62.3352 29.6146 61.9942 29.8792 61.6357C30.3707 60.9766 30.274 60.3168 29.8899 59.6423C29.6623 59.2448 29.4645 58.8264 29.3052 58.4014C28.9993 57.5882 29.2767 57.0946 30.3003 56.7509C30.7064 57.1699 31.1446 57.6441 31.6055 58.0974C32.2919 58.7686 33.1454 59.0275 34.0879 58.7733C34.7985 58.5823 35.2181 58.8607 35.5638 59.3544C35.9316 59.881 36.2438 60.4413 36.6208 60.9591C36.9217 61.3701 37.2496 61.7756 37.6322 62.1186C38.032 62.4818 38.3435 62.4341 38.7433 62.0695C39.4851 61.3862 39.6445 61.3741 40.3529 62.0709C40.7413 62.4576 41.1602 62.7334 41.7456 62.6675C42.1838 62.6163 42.4619 62.7899 42.6354 63.1524C43.006 63.9319 43.4044 64.702 43.7451 65.4922C44.1718 66.4856 44.8774 66.799 45.8946 66.3928C46.0411 66.3343 46.1848 66.2657 46.3341 66.2092C46.9089 65.9899 46.9679 65.9785 47.2972 66.5051C47.7034 67.1541 48.0739 67.826 48.4146 68.5087C48.872 69.42 49.6231 70.0179 50.6381 70.1861C51.2555 70.2897 51.5806 70.5641 51.8288 71.0382C51.9583 71.2871 52.1141 71.5252 52.2428 71.7733C52.8417 72.9221 53.5196 73.9942 54.9194 74.4206L55.1868 74.5833C55.8768 75.0346 56.5276 75.5027 56.5738 76.406C56.6215 77.3039 57.0099 78.1136 57.3634 78.9328C57.6052 79.4917 57.9573 79.9417 58.527 80.2309C58.9901 80.4676 59.3059 80.8194 59.4901 81.2955C59.6665 81.7441 59.8806 82.182 60.1047 82.6097C60.4184 83.2029 60.9881 83.5722 61.3879 83.472C61.804 83.3684 62.023 82.9359 62.0024 82.1941C61.9946 81.8692 61.8175 81.5074 61.9178 81.2263C62.1809 80.5059 61.9597 79.824 61.8445 79.1373ZM37.5519 47.0283C37.3861 47.1278 37.1763 47.1688 36.98 47.2092C36.5454 47.3054 36.0916 47.3464 35.6698 47.4789C35.1925 47.6295 34.7195 47.8192 34.2799 48.0539C33.9421 48.2362 33.6156 48.4783 33.3723 48.7601C33.0217 49.1677 32.6091 49.4508 32.0458 49.6654C31.8545 49.5134 31.6717 49.3338 31.4568 49.1973C30.5144 48.596 29.9447 48.553 29.1914 49.0877C28.9858 49.2336 28.7454 49.3318 28.3393 49.5484C28.4161 49.0729 28.4367 48.7628 28.5214 48.4689C28.5989 48.2039 28.7582 47.9618 28.8621 47.7028C29.1807 46.9079 29.0833 46.5756 28.3158 46.1142C28.0007 45.9259 27.8812 45.7094 27.889 45.3751C27.9018 44.8707 27.894 44.3649 27.8904 43.8591C27.8876 43.1139 27.5732 42.5564 26.8384 42.2208C26.3448 41.9948 26.3021 41.832 26.423 41.3141C26.4992 40.998 26.5632 40.6725 26.6016 40.3497C26.7367 39.2594 26.1606 38.5008 25.3134 37.8545C25.1683 37.7442 25.0204 37.535 25.0254 37.3742C25.0446 36.6021 24.7729 35.83 25.0929 35.0546C25.2949 34.5622 24.9656 34.1674 24.6121 33.8493C24.058 33.3557 23.9926 32.7571 24.1298 32.1094C24.2429 31.5646 24.5076 31.3998 25.0851 31.4758C25.243 31.4987 25.4088 31.5014 25.5595 31.5438C26.8719 31.9191 27.9047 31.4476 28.8187 30.5981C28.9702 30.4569 29.1295 30.319 29.2774 30.1751C29.7796 29.6848 30.3984 29.5113 31.0998 29.5805C31.5522 29.6243 31.9974 29.7265 32.4484 29.7494C33.0309 29.7796 33.6142 29.7588 34.2636 29.7588C35.5375 31.9466 36.0838 32.2083 38.0448 31.5337C38.5164 31.9836 39.0463 32.3919 38.7006 33.1862C38.5427 33.552 38.6864 33.9421 38.9616 34.2482C39.3408 34.6712 39.7192 35.0956 40.1346 35.4857C40.4162 35.752 40.7605 35.9598 41.0834 36.1993C40.8764 36.5228 40.7776 36.6943 40.6616 36.853C40.1886 37.4987 40.0947 37.9506 40.609 38.5075C41.3196 39.2736 40.9469 40.0807 40.9056 40.8864L40.8053 41.0848C40.2989 41.6242 39.7825 42.1582 39.2782 42.699C38.7781 43.2336 38.6288 43.9015 38.5142 44.5747C38.4474 44.9722 38.4239 45.3778 38.3563 45.7766C38.2667 46.2905 38.0363 46.7424 37.5519 47.0283Z"/>
</mask>
<path d="M61.8445 79.1373C61.6887 78.2024 61.284 77.359 60.577 76.6569C59.727 75.8067 59.2077 74.8234 59.1281 73.6283C59.0363 72.2549 58.2034 71.3496 56.8854 70.8681C56.4522 70.7087 56.1442 70.4928 55.938 70.1202C55.6912 69.6743 55.4095 69.2405 55.2039 68.7784C54.9429 68.1933 54.4869 67.7991 53.8745 67.67C53.1597 67.518 52.8439 67.1071 52.6867 66.5038C52.6276 66.2825 52.5487 66.0659 52.5131 65.8413C52.2727 64.3946 51.4362 63.334 50.1246 62.6029C49.7057 62.3682 49.4972 62.0413 49.2995 61.6357C48.8983 60.8152 48.532 59.9402 47.9395 59.2542C47.0959 58.2769 46.0333 57.5243 44.5339 58.0846L44.3447 58.0348C44.1633 57.6757 43.999 57.2748 43.7699 56.9103C43.2094 56.0265 42.8431 55.9478 41.9035 56.4603L41.7748 56.4677C41.693 56.3083 41.6062 56.1321 41.513 55.9559C41.1915 55.3479 40.9035 54.7197 40.5371 54.136C40.2092 53.6114 39.8123 53.1358 39.037 53.1701C38.84 53.1789 38.6344 53.0047 38.2852 52.85C38.6757 52.5938 38.8777 52.4236 39.1103 52.3153C39.8351 51.973 40.3828 51.4766 40.6559 50.7543C40.7804 50.4288 41.0116 50.2485 41.3217 50.1577C41.7022 50.0481 42.0934 49.9499 42.4889 49.9169C43.5523 49.8261 44.2579 49.2276 44.775 48.4386C45.3085 47.6255 45.7018 46.7344 45.8675 45.7733C45.9522 45.2769 46.0439 44.8249 46.5852 44.523C46.8413 44.3804 47.0006 44.0017 47.0945 43.7011C47.2097 43.3184 47.2588 42.9048 47.2538 42.5073C47.246 41.8159 47.4288 41.2381 47.9545 40.7236C48.9161 39.7881 49.1885 38.6319 48.9638 37.3628C48.7824 36.3378 48.6672 35.3337 49.0705 34.308C49.5499 33.094 49.244 32.0152 48.1472 31.1974C47.8115 30.9479 47.687 30.6721 47.7446 30.2881C47.7795 30.0634 47.8037 29.8361 47.8143 29.6088C47.8527 28.8306 47.9004 28.0525 47.9054 27.2723C47.9054 27.0584 47.8257 26.8055 47.6899 26.6347C46.7367 25.4382 45.97 25.0723 44.6249 25.5162C44.3475 25.6077 44.0694 25.7092 43.7827 25.7509C43.3197 25.8229 43.1554 25.6817 43.1056 25.2405C43.0707 24.9149 43.0658 24.584 42.9961 24.2646C42.8559 23.5947 42.4469 23.2692 41.7193 23.2335C41.4547 23.2194 41.183 23.2315 40.9234 23.2799C40.1196 23.4292 39.4283 23.3028 38.7753 22.7782C38.3165 22.4063 37.7503 22.1473 37.2069 21.8796C36.2623 21.4129 35.29 20.9972 34.3518 20.5204C33.7728 20.2224 33.1718 20.0657 32.5202 20.0429C32.2016 20.0308 31.8737 20.0731 31.5614 20.02C30.5265 19.8438 29.6907 20.2009 28.8976 20.7867C28.0142 21.4384 27.1144 22.0733 26.1905 22.6746C24.977 23.4649 23.664 23.861 22.1845 23.4138L21.8722 23.3539C21.2705 23.1743 20.727 23.3223 20.1751 23.5658C19.2853 23.9599 18.5448 24.5228 17.9125 25.2203C17.5412 25.6312 17.1642 25.7879 16.5909 25.5398C16.0816 25.3212 15.7872 25.412 15.5446 25.79C14.9656 26.6952 14.5908 28.1897 15.7929 29.2678C15.987 29.4413 16.1812 29.6142 16.3868 29.7749C17.2197 30.4266 17.3321 31.2458 17.0248 32.1713C16.8911 32.5795 16.7431 32.9891 16.6635 33.4074C16.3398 35.1306 16.4821 36.7333 18.0363 37.9634C18.3606 38.219 18.638 38.5405 18.8976 38.8593C19.3621 39.4303 19.7128 40.0369 19.5015 40.8124C19.3422 41.3962 19.2739 42.0015 19.1174 42.5839C18.9851 43.0763 18.9851 43.5202 19.2924 43.96C19.4026 44.116 19.4802 44.3407 19.461 44.5216C19.4105 44.9944 19.5172 45.4202 19.732 45.8385C19.9631 46.2857 19.9816 46.7296 19.8323 47.2267C19.5869 48.0371 19.6815 48.8254 20.2846 49.5073C20.5421 49.7979 20.7754 50.1053 21.0329 50.3958C21.417 50.8262 21.6062 51.2822 21.4262 51.8613C21.2221 52.5144 21.3295 53.1379 21.6411 53.7654C22.304 55.1004 22.7336 56.5162 22.74 57.9958C22.7414 58.8345 22.8261 59.7129 22.2947 60.491C21.8459 61.1461 22.102 61.8066 22.5608 62.3063C23.1981 63.0017 23.4954 63.8196 23.814 64.6502C23.9634 65.043 23.9286 65.3779 23.6945 65.7256C22.9925 66.7721 22.9541 67.8953 23.2393 69.075C23.4399 69.9043 23.8347 70.6428 24.3119 71.3409C24.6527 71.8392 24.9087 72.3544 25.0047 72.9349C25.0844 73.4285 25.2914 73.8428 25.7054 74.171C25.8362 74.2746 25.9629 74.4502 25.9771 74.6048C26.0631 75.4267 26.2701 76.2372 26.0198 77.0799C25.7651 77.9361 25.9757 78.3914 26.8022 78.8568C27.3563 79.1682 27.5597 79.6108 27.5917 80.165C27.6159 80.5927 27.5853 81.0245 27.6081 81.4522C27.6522 82.2075 27.8961 82.8902 28.5327 83.396C28.8208 83.6253 29.1316 83.8594 29.5392 83.6966C29.9546 83.5345 30.1239 83.1821 30.1317 82.7819C30.1431 82.3051 30.1189 81.8228 30.0855 81.3453C30.0279 80.5133 30.0599 79.7231 30.9646 79.253L31.0827 79.1521C32.0316 78.2629 32.1304 77.3287 31.4711 76.2237C30.9874 75.4106 30.7662 74.5477 31.1986 73.6222C31.3694 73.2577 31.5109 72.8555 31.5408 72.4614C31.5678 72.0753 31.5308 71.6375 31.3544 71.2999C31.0123 70.6495 30.5613 70.0475 30.1367 69.4362C29.4695 68.4784 29.0925 67.5019 29.8102 66.4116L29.9091 66.2052C30.5905 65.0295 30.651 63.8545 29.8806 62.691C29.6452 62.3352 29.6146 61.9942 29.8792 61.6357C30.3707 60.9766 30.274 60.3168 29.8899 59.6423C29.6623 59.2448 29.4645 58.8264 29.3052 58.4014C28.9993 57.5882 29.2767 57.0946 30.3003 56.7509C30.7064 57.1699 31.1446 57.6441 31.6055 58.0974C32.2919 58.7686 33.1454 59.0275 34.0879 58.7733C34.7985 58.5823 35.2181 58.8607 35.5638 59.3544C35.9316 59.881 36.2438 60.4413 36.6208 60.9591C36.9217 61.3701 37.2496 61.7756 37.6322 62.1186C38.032 62.4818 38.3435 62.4341 38.7433 62.0695C39.4851 61.3862 39.6445 61.3741 40.3529 62.0709C40.7413 62.4576 41.1602 62.7334 41.7456 62.6675C42.1838 62.6163 42.4619 62.7899 42.6354 63.1524C43.006 63.9319 43.4044 64.702 43.7451 65.4922C44.1718 66.4856 44.8774 66.799 45.8946 66.3928C46.0411 66.3343 46.1848 66.2657 46.3341 66.2092C46.9089 65.9899 46.9679 65.9785 47.2972 66.5051C47.7034 67.1541 48.0739 67.826 48.4146 68.5087C48.872 69.42 49.6231 70.0179 50.6381 70.1861C51.2555 70.2897 51.5806 70.5641 51.8288 71.0382C51.9583 71.2871 52.1141 71.5252 52.2428 71.7733C52.8417 72.9221 53.5196 73.9942 54.9194 74.4206L55.1868 74.5833C55.8768 75.0346 56.5276 75.5027 56.5738 76.406C56.6215 77.3039 57.0099 78.1136 57.3634 78.9328C57.6052 79.4917 57.9573 79.9417 58.527 80.2309C58.9901 80.4676 59.3059 80.8194 59.4901 81.2955C59.6665 81.7441 59.8806 82.182 60.1047 82.6097C60.4184 83.2029 60.9881 83.5722 61.3879 83.472C61.804 83.3684 62.023 82.9359 62.0024 82.1941C61.9946 81.8692 61.8175 81.5074 61.9178 81.2263C62.1809 80.5059 61.9597 79.824 61.8445 79.1373ZM37.5519 47.0283C37.3861 47.1278 37.1763 47.1688 36.98 47.2092C36.5454 47.3054 36.0916 47.3464 35.6698 47.4789C35.1925 47.6295 34.7195 47.8192 34.2799 48.0539C33.9421 48.2362 33.6156 48.4783 33.3723 48.7601C33.0217 49.1677 32.6091 49.4508 32.0458 49.6654C31.8545 49.5134 31.6717 49.3338 31.4568 49.1973C30.5144 48.596 29.9447 48.553 29.1914 49.0877C28.9858 49.2336 28.7454 49.3318 28.3393 49.5484C28.4161 49.0729 28.4367 48.7628 28.5214 48.4689C28.5989 48.2039 28.7582 47.9618 28.8621 47.7028C29.1807 46.9079 29.0833 46.5756 28.3158 46.1142C28.0007 45.9259 27.8812 45.7094 27.889 45.3751C27.9018 44.8707 27.894 44.3649 27.8904 43.8591C27.8876 43.1139 27.5732 42.5564 26.8384 42.2208C26.3448 41.9948 26.3021 41.832 26.423 41.3141C26.4992 40.998 26.5632 40.6725 26.6016 40.3497C26.7367 39.2594 26.1606 38.5008 25.3134 37.8545C25.1683 37.7442 25.0204 37.535 25.0254 37.3742C25.0446 36.6021 24.7729 35.83 25.0929 35.0546C25.2949 34.5622 24.9656 34.1674 24.6121 33.8493C24.058 33.3557 23.9926 32.7571 24.1298 32.1094C24.2429 31.5646 24.5076 31.3998 25.0851 31.4758C25.243 31.4987 25.4088 31.5014 25.5595 31.5438C26.8719 31.9191 27.9047 31.4476 28.8187 30.5981C28.9702 30.4569 29.1295 30.319 29.2774 30.1751C29.7796 29.6848 30.3984 29.5113 31.0998 29.5805C31.5522 29.6243 31.9974 29.7265 32.4484 29.7494C33.0309 29.7796 33.6142 29.7588 34.2636 29.7588C35.5375 31.9466 36.0838 32.2083 38.0448 31.5337C38.5164 31.9836 39.0463 32.3919 38.7006 33.1862C38.5427 33.552 38.6864 33.9421 38.9616 34.2482C39.3408 34.6712 39.7192 35.0956 40.1346 35.4857C40.4162 35.752 40.7605 35.9598 41.0834 36.1993C40.8764 36.5228 40.7776 36.6943 40.6616 36.853C40.1886 37.4987 40.0947 37.9506 40.609 38.5075C41.3196 39.2736 40.9469 40.0807 40.9056 40.8864L40.8053 41.0848C40.2989 41.6242 39.7825 42.1582 39.2782 42.699C38.7781 43.2336 38.6288 43.9015 38.5142 44.5747C38.4474 44.9722 38.4239 45.3778 38.3563 45.7766C38.2667 46.2905 38.0363 46.7424 37.5519 47.0283Z" fill="#11B0C8" stroke="#87F54E" stroke-width="2" mask="url(#path-7-inside-2_99_963)"/>
<path d="M243.937 31.4092L243.992 31.4619C244.355 31.936 244.683 32.3724 244.89 32.8359V32.8369C245.173 33.469 245.439 34.1072 245.701 34.75L246.484 36.6924C246.54 36.832 246.573 36.9511 246.578 37.0459C246.62 37.9504 246.909 38.7653 247.221 39.5137C247.544 40.2877 247.874 40.9571 248.085 41.6836V41.6855C248.149 41.903 248.287 42.0788 248.409 42.2021C248.505 42.2991 248.613 42.385 248.721 42.4561L248.827 42.5215C249.409 42.8553 249.668 43.3088 249.68 43.9131C249.711 45.4501 249.705 47.0419 249.754 48.6006C249.767 49.038 249.98 49.4719 250.207 49.7705L250.209 49.7734C250.493 50.143 250.627 50.3812 250.618 50.6895H250.617V50.6943C250.613 50.9153 250.693 51.1066 250.76 51.2363C250.827 51.3669 250.912 51.4929 250.966 51.5752V51.5762C251.099 51.7809 251.241 51.9781 251.375 52.165C251.511 52.3548 251.64 52.5337 251.76 52.7158L251.761 52.7178C252.031 53.1274 252.092 53.5037 251.928 53.918L251.927 53.9209C251.814 54.2097 251.786 54.5075 251.809 54.8301L251.904 56.1748L252.709 55.0938C253.358 54.2222 254.318 54.0546 255.552 53.6875C256.892 53.2879 258.199 52.7078 259.447 52.2324L259.48 52.2188L259.623 52.1514L259.681 52.125L259.729 52.085C260.397 51.5361 261.181 51.1466 262.027 50.7012C262.75 50.3207 263.512 49.9013 264.178 49.3164L264.457 49.0557C264.814 48.7005 265.334 48.4349 265.909 48.1631L265.911 48.1621C266.341 47.9576 266.779 47.7714 267.225 47.5889L268.581 47.04C268.89 46.9139 269.083 46.8947 269.266 46.9785L269.267 46.9795C269.435 47.0561 269.483 47.1212 269.496 47.1416C269.492 47.1627 269.472 47.219 269.378 47.3135L269.374 47.3174C268.863 47.8414 268.345 48.3578 267.812 48.8555L267.272 49.3467C266.031 50.455 264.7 51.4291 263.202 52.1777L263.201 52.1787C262.636 52.4632 262.135 52.8537 261.69 53.2217C261.057 53.7466 260.405 54.1887 259.672 54.4971L259.353 54.6201C259.094 54.7114 258.833 54.8189 258.58 54.9482L258.334 55.084C257.846 55.3659 257.405 55.7394 257.112 56.3105L257.111 56.3115C256.272 57.9573 254.96 59.1034 253.103 59.6191C251.784 59.9853 250.636 60.6093 249.735 61.6387C249.426 61.9906 249.146 62.3833 248.923 62.7988L248.922 62.7998C248.638 63.3321 248.263 63.754 247.75 64.0771H247.749C246.725 64.7249 245.728 65.3738 244.719 66.0146L243.705 66.6523C242.634 67.3165 241.884 68.2131 241.554 69.4443L241.553 69.4473C241.486 69.7021 241.32 69.978 241.104 70.2471L241.104 70.248C240.922 70.475 240.736 70.6757 240.54 70.8809L239.918 71.54C239.091 72.4569 238.243 73.4374 237.687 74.6348L237.579 74.877C237.335 75.457 236.909 75.9354 236.309 76.2783C236.053 76.4229 235.834 76.6159 235.661 76.7744L235.659 76.7754C234.602 77.7551 233.497 78.7379 232.461 79.7705C231.774 80.4533 230.94 80.8306 229.939 81.0459C228.954 81.254 227.944 81.474 226.964 81.7832C226.533 81.9184 226.136 82.1481 225.787 82.3896L225.455 82.6328C224.355 83.4717 223.28 84.3546 222.212 85.2031L221.932 85.3896C221.694 85.5205 221.512 85.5653 221.376 85.5654C221.248 85.5654 221.127 85.5269 221.003 85.4297C220.867 85.3227 220.847 85.2397 220.844 85.1719C220.84 85.0711 220.876 84.9289 220.971 84.7285L220.972 84.7266C221.165 84.3154 221.313 83.9855 221.52 83.7529L221.612 83.6592C223.137 82.2739 224.619 80.9328 226.412 79.9844C226.594 79.8882 226.791 79.8063 227.012 79.7178C227.225 79.6323 227.466 79.5378 227.698 79.4248H227.699C228.588 78.9888 229.217 78.3165 229.676 77.5186L229.675 77.5176C230.112 76.7597 230.638 76.1926 231.449 75.9141L231.448 75.9131C231.647 75.8453 231.797 75.7106 231.895 75.5967C231.996 75.4779 232.081 75.3368 232.135 75.1963C232.279 74.8219 232.548 74.5324 232.937 74.2207C233.85 73.4872 234.767 72.7438 235.661 71.9766C236.013 71.6762 236.362 71.3371 236.411 70.874C236.436 70.6367 236.378 70.4191 236.29 70.2246C236.247 70.1297 236.195 70.0334 236.135 69.9355L235.937 69.6377C235.723 69.334 235.684 69.1684 235.69 69.0576C235.697 68.945 235.758 68.7725 236.022 68.4727C236.856 67.5282 237.781 66.7253 238.913 66.1709L238.912 66.1699C239.115 66.0717 239.313 65.966 239.501 65.8555L239.603 65.7959L239.667 65.6963L239.759 65.5557L239.946 65.2666L239.743 64.9883L239.621 64.8203L239.609 64.8047L239.597 64.79L239.51 64.6826C239.336 64.4538 239.335 64.3498 239.338 64.332C239.338 64.3291 239.341 64.3042 239.39 64.2559C239.443 64.2028 239.54 64.1315 239.708 64.0527L239.709 64.0537C240.613 63.6318 241.563 63.315 242.55 62.9512L242.551 62.9521C242.715 62.892 242.888 62.8424 243.08 62.79C243.266 62.7393 243.475 62.6845 243.679 62.6172L243.678 62.6162C243.99 62.5146 244.337 62.3692 244.554 62.0811C244.771 61.7928 244.793 61.4613 244.728 61.1396L244.694 61.0029C244.397 59.9156 244.824 58.9953 245.228 57.7617C245.625 56.5505 245.952 55.3063 246.294 54.1328L246.404 53.7539L246.062 53.5586C245.57 53.2785 245.327 53.1713 245.087 52.999C244.841 52.8218 244.736 52.6085 244.745 52.3018C244.753 52.0506 244.751 51.7991 244.743 51.5518L244.71 50.8262C244.663 49.8257 244.38 48.8972 243.938 48.0137L243.938 48.0117L243.778 47.668C243.438 46.8582 243.303 45.9929 243.318 45.084C243.337 44.1021 243.355 43.1044 243.325 42.1074V42.1064L243.312 41.8936C243.294 41.6828 243.262 41.4795 243.229 41.29C243.183 41.0275 243.138 40.8016 243.11 40.5693V40.5684C243.004 39.6923 242.898 38.8311 242.832 37.9668C242.811 37.6934 242.851 37.5171 242.924 37.4033C242.988 37.3028 243.125 37.1785 243.467 37.1064L243.88 37.0186L243.862 36.5967C243.808 35.2676 243.752 33.9613 243.708 32.6582V32.6553L243.68 32.0215C243.675 31.8341 243.681 31.665 243.715 31.498C243.713 31.5075 243.714 31.4989 243.729 31.4736C243.742 31.45 243.763 31.4215 243.789 31.3926C243.806 31.3742 243.825 31.3588 243.842 31.3447C243.874 31.3632 243.907 31.3855 243.937 31.4092Z" fill="#11B0C8" stroke="#87F54E"/>
<mask id="path-9-inside-3_99_963" fill="white">
<path d="M139.427 60.1492C138.983 59.1437 138.588 58.1362 138.66 57.0117C138.709 56.2362 138.639 55.4547 138.67 54.6779C138.694 54.0497 138.719 53.4115 138.867 52.8035C139.13 51.726 139.475 50.6627 139.804 49.5993C139.959 49.1043 139.925 48.6342 139.584 48.2374C139.101 47.6697 139.048 47.0342 139.212 46.3777C139.416 45.5707 139.69 44.7777 139.916 43.9747C139.998 43.6875 140.09 43.3848 140.074 43.0923C140.05 42.5946 139.842 42.1332 139.32 41.9301C138.763 41.7115 138.264 41.9146 137.881 42.3202C137.619 42.5986 137.345 42.9046 137.203 43.2463C136.951 43.8516 136.772 44.4885 136.606 45.1221C136.283 46.3643 135.989 47.6153 135.683 48.8609L135.576 49.1454C134.949 50.0607 134.731 51.0904 134.584 52.149C134.509 52.6979 134.202 53.0604 133.656 53.3657C132.866 53.8096 132.131 54.3739 131.473 54.9839C130.849 55.5603 130.349 56.2578 129.798 56.9034C129.813 56.4629 129.788 56.0156 129.87 55.5879C130.153 54.1035 130.481 52.6252 130.785 51.1409C130.936 50.4004 131.1 49.6558 131.199 48.9079C131.248 48.5179 131.242 48.0908 131.124 47.7188C130.978 47.2595 130.681 46.8338 130.084 46.7988C129.516 46.7625 129.128 47.0557 128.854 47.5003C128.761 47.6523 128.68 47.8137 128.61 47.9764C127.909 49.6188 127.214 51.2633 126.468 53.0173C126.22 51.9453 125.756 51.1664 124.484 51.4422C124.038 50.742 123.929 50.015 123.777 49.3027C123.656 48.7378 123.371 48.2683 122.956 47.8574C122.634 47.5393 122.227 47.5393 121.841 47.6738C121.448 47.8123 121.184 48.0793 121.184 48.5306C121.184 48.9059 121.122 49.2799 121.094 49.6565C121.045 50.2813 120.966 50.9075 120.963 51.5323C120.961 52.1867 121.003 52.8438 121.082 53.4942C121.201 54.4667 120.573 55.105 120.034 55.8798C119.768 55.3673 119.503 54.955 119.333 54.5077C119.219 54.2084 119.27 53.858 119.197 53.5406C119.08 53.0496 118.905 52.5721 118.788 52.0811C118.654 51.5195 118.546 50.9519 118.444 50.3876C118.395 50.1139 118.409 49.8327 118.356 49.561C118.101 48.2515 117.705 46.9656 117.7 45.6151C117.698 45.1934 117.635 44.7589 117.52 44.3506C117.389 43.8913 117.028 43.6485 116.659 43.7285C116.186 43.8321 115.711 43.9827 115.457 44.4118C115.198 44.8483 114.958 45.3016 114.777 45.7711C114.585 46.2668 114.472 46.7887 114.329 47.3005C114.23 47.659 114.018 47.8803 113.598 47.8608C112.829 47.8278 112.442 48.2831 112.168 48.8689C111.976 49.2846 111.839 49.7238 111.616 50.1246C111.028 51.1893 110.88 52.2715 111.365 53.4054C111.531 53.7921 111.57 54.1869 111.414 54.5844C110.884 55.9524 110.63 57.4193 109.77 58.6736C109.6 58.9218 109.45 59.2224 109.424 59.5123C109.379 60.0013 109.259 60.6079 109.496 60.9751C109.925 61.6275 110.006 62.2752 109.985 62.9854C109.979 63.1347 110.001 63.2908 110.038 63.4354C110.162 63.8988 110.547 64.2304 110.969 64.2519C111.434 64.2727 111.721 64.0468 111.895 63.4778C112.023 63.0621 112.178 62.6787 112.52 62.3626C112.919 61.9921 113.003 61.5045 112.807 61.0269C112.649 60.6362 112.769 60.3449 112.996 60.047C113.168 59.823 113.374 59.6132 113.509 59.3731C113.64 59.1363 113.778 58.8666 113.777 58.6124C113.769 57.763 114.251 57.1583 114.77 56.4999C114.952 56.6304 115.06 56.7561 115.199 56.8025C115.834 57.009 116.059 57.5067 116.236 58.0448C116.486 58.8149 116.679 59.6058 116.991 60.3523C117.418 61.3807 117.931 62.3768 118.414 63.3849L118.611 63.6217C118.876 63.8867 119.186 63.9586 119.557 63.8396C120.046 63.6869 120.339 63.3728 120.343 62.8973C120.345 61.8918 120.309 60.8843 120.281 59.8775C120.264 59.3146 120.224 58.7496 120.193 58.0992C120.755 58.3824 120.976 58.7045 120.929 59.1895C120.906 59.4134 120.948 59.6468 120.912 59.8681C120.766 60.7384 121.365 61.2159 121.967 61.6867C122.198 61.8663 122.485 61.869 122.705 61.676C123.274 61.1735 123.834 60.6584 123.724 59.8109C123.693 59.5917 123.687 59.3516 123.745 59.1397C123.966 58.3252 123.885 57.5424 123.549 56.7743C123.437 56.5207 123.388 56.2793 123.555 55.9706C123.943 56.3048 124.348 56.5409 124.585 56.8826C125.144 57.6775 125.637 58.5149 126.125 59.3516C126.511 60.012 126.837 60.7021 127.211 61.3686C127.406 61.717 127.697 61.9921 128.158 61.951C128.626 61.9093 128.94 61.6712 129.071 61.2226C129.152 60.9415 129.271 60.6705 129.389 60.3523L129.493 60.4606L129.525 60.6832C129.59 61.7136 130.181 62.3478 131.179 62.6956C131.528 62.816 131.868 62.9599 132.19 63.13C133.496 63.8208 134.974 63.5639 135.906 62.4689C136.053 62.2974 136.191 62.1205 136.398 61.8663C136.486 62.2483 136.556 62.5389 136.615 62.8301C136.767 63.5477 137.138 64.1517 137.692 64.65C138.214 65.1195 138.926 65.1545 139.525 64.7704C140.052 64.4315 140.33 63.9956 140.275 63.3675C140.174 62.2463 139.881 61.1803 139.427 60.1492ZM113.984 53.4074C114.447 52.2412 114.883 51.1483 115.318 50.0533L115.525 50.1031C115.525 50.6781 115.437 51.268 115.549 51.8242C115.654 52.336 115.975 52.8109 116.247 53.4081H113.984V53.4074ZM134.812 59.1135C134.543 59.324 134.341 59.6118 134.086 59.8439C133.65 60.2447 133.104 60.1734 133.018 59.6448C132.937 59.1558 133.077 58.6272 133.163 58.1221C133.247 57.6285 133.464 57.2747 134.041 57.0568C134.555 56.8577 134.96 56.4077 135.554 55.9679C135.689 57.1852 135.898 58.2593 134.812 59.1135Z"/>
</mask>
<path d="M139.427 60.1492C138.983 59.1437 138.588 58.1362 138.66 57.0117C138.709 56.2362 138.639 55.4547 138.67 54.6779C138.694 54.0497 138.719 53.4115 138.867 52.8035C139.13 51.726 139.475 50.6627 139.804 49.5993C139.959 49.1043 139.925 48.6342 139.584 48.2374C139.101 47.6697 139.048 47.0342 139.212 46.3777C139.416 45.5707 139.69 44.7777 139.916 43.9747C139.998 43.6875 140.09 43.3848 140.074 43.0923C140.05 42.5946 139.842 42.1332 139.32 41.9301C138.763 41.7115 138.264 41.9146 137.881 42.3202C137.619 42.5986 137.345 42.9046 137.203 43.2463C136.951 43.8516 136.772 44.4885 136.606 45.1221C136.283 46.3643 135.989 47.6153 135.683 48.8609L135.576 49.1454C134.949 50.0607 134.731 51.0904 134.584 52.149C134.509 52.6979 134.202 53.0604 133.656 53.3657C132.866 53.8096 132.131 54.3739 131.473 54.9839C130.849 55.5603 130.349 56.2578 129.798 56.9034C129.813 56.4629 129.788 56.0156 129.87 55.5879C130.153 54.1035 130.481 52.6252 130.785 51.1409C130.936 50.4004 131.1 49.6558 131.199 48.9079C131.248 48.5179 131.242 48.0908 131.124 47.7188C130.978 47.2595 130.681 46.8338 130.084 46.7988C129.516 46.7625 129.128 47.0557 128.854 47.5003C128.761 47.6523 128.68 47.8137 128.61 47.9764C127.909 49.6188 127.214 51.2633 126.468 53.0173C126.22 51.9453 125.756 51.1664 124.484 51.4422C124.038 50.742 123.929 50.015 123.777 49.3027C123.656 48.7378 123.371 48.2683 122.956 47.8574C122.634 47.5393 122.227 47.5393 121.841 47.6738C121.448 47.8123 121.184 48.0793 121.184 48.5306C121.184 48.9059 121.122 49.2799 121.094 49.6565C121.045 50.2813 120.966 50.9075 120.963 51.5323C120.961 52.1867 121.003 52.8438 121.082 53.4942C121.201 54.4667 120.573 55.105 120.034 55.8798C119.768 55.3673 119.503 54.955 119.333 54.5077C119.219 54.2084 119.27 53.858 119.197 53.5406C119.08 53.0496 118.905 52.5721 118.788 52.0811C118.654 51.5195 118.546 50.9519 118.444 50.3876C118.395 50.1139 118.409 49.8327 118.356 49.561C118.101 48.2515 117.705 46.9656 117.7 45.6151C117.698 45.1934 117.635 44.7589 117.52 44.3506C117.389 43.8913 117.028 43.6485 116.659 43.7285C116.186 43.8321 115.711 43.9827 115.457 44.4118C115.198 44.8483 114.958 45.3016 114.777 45.7711C114.585 46.2668 114.472 46.7887 114.329 47.3005C114.23 47.659 114.018 47.8803 113.598 47.8608C112.829 47.8278 112.442 48.2831 112.168 48.8689C111.976 49.2846 111.839 49.7238 111.616 50.1246C111.028 51.1893 110.88 52.2715 111.365 53.4054C111.531 53.7921 111.57 54.1869 111.414 54.5844C110.884 55.9524 110.63 57.4193 109.77 58.6736C109.6 58.9218 109.45 59.2224 109.424 59.5123C109.379 60.0013 109.259 60.6079 109.496 60.9751C109.925 61.6275 110.006 62.2752 109.985 62.9854C109.979 63.1347 110.001 63.2908 110.038 63.4354C110.162 63.8988 110.547 64.2304 110.969 64.2519C111.434 64.2727 111.721 64.0468 111.895 63.4778C112.023 63.0621 112.178 62.6787 112.52 62.3626C112.919 61.9921 113.003 61.5045 112.807 61.0269C112.649 60.6362 112.769 60.3449 112.996 60.047C113.168 59.823 113.374 59.6132 113.509 59.3731C113.64 59.1363 113.778 58.8666 113.777 58.6124C113.769 57.763 114.251 57.1583 114.77 56.4999C114.952 56.6304 115.06 56.7561 115.199 56.8025C115.834 57.009 116.059 57.5067 116.236 58.0448C116.486 58.8149 116.679 59.6058 116.991 60.3523C117.418 61.3807 117.931 62.3768 118.414 63.3849L118.611 63.6217C118.876 63.8867 119.186 63.9586 119.557 63.8396C120.046 63.6869 120.339 63.3728 120.343 62.8973C120.345 61.8918 120.309 60.8843 120.281 59.8775C120.264 59.3146 120.224 58.7496 120.193 58.0992C120.755 58.3824 120.976 58.7045 120.929 59.1895C120.906 59.4134 120.948 59.6468 120.912 59.8681C120.766 60.7384 121.365 61.2159 121.967 61.6867C122.198 61.8663 122.485 61.869 122.705 61.676C123.274 61.1735 123.834 60.6584 123.724 59.8109C123.693 59.5917 123.687 59.3516 123.745 59.1397C123.966 58.3252 123.885 57.5424 123.549 56.7743C123.437 56.5207 123.388 56.2793 123.555 55.9706C123.943 56.3048 124.348 56.5409 124.585 56.8826C125.144 57.6775 125.637 58.5149 126.125 59.3516C126.511 60.012 126.837 60.7021 127.211 61.3686C127.406 61.717 127.697 61.9921 128.158 61.951C128.626 61.9093 128.94 61.6712 129.071 61.2226C129.152 60.9415 129.271 60.6705 129.389 60.3523L129.493 60.4606L129.525 60.6832C129.59 61.7136 130.181 62.3478 131.179 62.6956C131.528 62.816 131.868 62.9599 132.19 63.13C133.496 63.8208 134.974 63.5639 135.906 62.4689C136.053 62.2974 136.191 62.1205 136.398 61.8663C136.486 62.2483 136.556 62.5389 136.615 62.8301C136.767 63.5477 137.138 64.1517 137.692 64.65C138.214 65.1195 138.926 65.1545 139.525 64.7704C140.052 64.4315 140.33 63.9956 140.275 63.3675C140.174 62.2463 139.881 61.1803 139.427 60.1492ZM113.984 53.4074C114.447 52.2412 114.883 51.1483 115.318 50.0533L115.525 50.1031C115.525 50.6781 115.437 51.268 115.549 51.8242C115.654 52.336 115.975 52.8109 116.247 53.4081H113.984V53.4074ZM134.812 59.1135C134.543 59.324 134.341 59.6118 134.086 59.8439C133.65 60.2447 133.104 60.1734 133.018 59.6448C132.937 59.1558 133.077 58.6272 133.163 58.1221C133.247 57.6285 133.464 57.2747 134.041 57.0568C134.555 56.8577 134.96 56.4077 135.554 55.9679C135.689 57.1852 135.898 58.2593 134.812 59.1135Z" fill="#11B0C8" stroke="#87F54E" stroke-width="2" mask="url(#path-9-inside-3_99_963)"/>
<path d="M85.0107 32.1597C85.3848 31.8914 85.7006 31.87 85.9053 31.9409C86.1021 32.0092 86.3089 32.2021 86.3955 32.6118V32.6128C86.585 33.4979 86.509 34.3883 86.25 35.2915L86.249 35.2925C86.1931 35.4893 86.1218 35.673 86.0391 35.9067C85.8262 36.4977 85.6584 37.1824 86.0557 37.9614V37.9624C86.0906 38.0313 86.1112 38.1429 86.1133 38.3481C86.1145 38.4684 86.1065 38.6683 86.1113 38.8599L86.1211 39.0464C86.1264 39.1072 86.1284 39.1748 86.1299 39.2593C86.1312 39.3388 86.1328 39.4379 86.1387 39.5347C86.15 39.7208 86.1817 39.9848 86.332 40.2222V40.2231C86.7441 40.8749 86.6013 41.5192 86.4404 42.4409V42.4419C86.4022 42.6609 86.3054 42.8969 86.1729 43.1392L86.1719 43.1411C85.726 43.9643 85.765 44.7922 86.2217 45.5532L86.4316 45.9028L86.8154 45.7681C87.3382 45.5845 87.9218 45.4022 88.4658 45.1753L88.4668 45.1763C88.7416 45.0625 88.9952 44.9137 89.2256 44.7583L89.4482 44.6021V44.6011C90.022 44.1791 90.6486 43.6654 91.1885 43.2583L91.1904 43.2573C91.4953 43.0262 91.7698 42.9139 92.0928 42.9419V42.9429C92.5117 42.9809 92.8463 42.8545 93.1172 42.688C93.3527 42.5432 93.5997 42.3216 93.748 42.2056C95.3348 40.9712 96.9107 39.7383 98.5234 38.5542C99.0206 38.1891 99.6104 37.889 100.215 37.6606L100.216 37.6597C100.682 37.4825 101.187 37.4483 101.816 37.3491H101.819C101.893 37.3372 101.93 37.349 101.946 37.3569C101.963 37.3649 101.994 37.3858 102.03 37.4487V37.4497C102.037 37.4623 102.04 37.4708 102.041 37.4751C102.039 37.4808 102.034 37.4943 102.021 37.5142C102.005 37.5369 101.981 37.5646 101.947 37.5962H101.946C101.419 38.0947 100.908 38.5858 100.376 39.0464L99.8359 39.4966C99.4986 39.7668 99.0747 40.0917 98.8154 40.6079V40.6089C98.3754 41.4875 97.7197 42.1561 96.8125 42.5981L96.6309 42.6821C96.4975 42.7394 96.369 42.8113 96.2744 42.8618C96.1705 42.9173 96.0927 42.9564 96.0186 42.9829C94.702 43.4524 94.0625 44.4758 93.7773 45.5942V45.5952C93.3862 47.1379 92.3558 48.0753 90.7695 48.6499V48.6509C90.1491 48.876 89.6103 49.0546 88.9736 49.2837H88.9717C88.3692 49.5024 87.9255 49.9279 87.7422 50.4722C87.5583 51.0187 87.6597 51.6197 88.0205 52.1362L88.0215 52.1372C88.2906 52.5202 88.5114 52.9037 88.7861 53.3345V53.3354C88.8547 53.4439 88.9747 53.6592 89.1016 53.8257C89.8838 54.8543 90.6682 55.8618 91.4355 56.8901V56.8911C91.8368 57.4295 92.3862 57.6384 92.9033 57.7437L93.123 57.7837C93.8093 57.8917 94.1968 58.0483 94.4424 58.2681C94.6481 58.4522 94.8072 58.7281 94.9141 59.2124L94.9561 59.4331C95.1405 60.5324 95.6071 61.4522 96.1943 62.3276V62.3286C96.482 62.7598 96.7124 63.1958 96.7822 63.5815L96.8027 63.7437C96.9377 66.2263 97.7152 68.5415 98.4961 70.7876C98.5942 71.0692 98.6945 71.3671 98.8086 71.6646L98.9277 71.9614C99.1965 72.6036 99.134 73.281 98.9951 74.0698V74.0708C98.964 74.2484 98.9075 74.2986 98.8516 74.3306C98.7588 74.3836 98.5706 74.4322 98.1963 74.4263L97.7422 74.4194L97.6914 74.8696C97.6685 75.0717 97.6718 75.1014 97.6582 75.1577L97.6572 75.1606C97.6005 75.4003 97.5343 75.4775 97.5 75.5054C97.4697 75.5299 97.3938 75.5724 97.1738 75.5698C96.8544 75.5649 96.7093 75.3975 96.6953 75.2114L96.6943 75.2104L96.6611 74.9155C96.5595 74.2409 96.3002 73.6493 95.999 73.0884L95.998 73.0874C95.8563 72.8238 95.8229 72.4837 95.7686 72.0229C95.7069 71.4978 95.548 71.0321 95.2344 70.5835L95.0908 70.3921C94.3821 69.5163 93.8113 68.6224 93.5371 67.5942L93.4863 67.3862C93.2805 66.4571 92.8251 65.5927 92.0293 64.9282L91.8652 64.7983C91.2718 64.3484 90.9311 63.8548 90.8828 63.188C90.7738 61.6719 89.9518 60.3984 89.3037 59.2642L89.2891 59.2378L89.2705 59.2144L89.0879 58.9683L89.0625 58.9341L89.0322 58.9058L88.7783 58.6782C88.6924 58.6048 88.61 58.5357 88.5439 58.478C88.4319 58.3802 88.3418 58.2941 88.2715 58.2104L88.208 58.1274C88.1314 58.0157 88.0695 57.8782 88.001 57.6909C87.9407 57.5261 87.857 57.2656 87.7666 57.0386L87.5625 56.5259L87.0723 56.7798C86.9894 56.8226 86.9481 56.834 86.8232 56.8901C86.7329 56.9307 86.5748 57.005 86.4492 57.1479C86.2025 57.4267 86.0534 57.6013 85.8818 57.6968C85.7671 57.7606 85.6174 57.8039 85.3223 57.6733L84.7637 57.4263L84.6318 58.022L84.0039 60.8716C83.7918 61.8377 83.5879 62.7961 83.3701 63.7554C83.3143 64.0005 83.2632 64.1987 83.1816 64.3647C82.7207 65.2858 82.3722 66.2341 82.0547 67.1802C81.9438 67.5076 81.6512 67.8502 81.2881 68.2036L81.2871 68.2046C81.1692 68.3198 81.1124 68.3174 81.1064 68.3169C81.0917 68.316 81.0148 68.3039 80.875 68.1626L80.874 68.1616L80.6641 67.9419C80.4694 67.7291 80.3205 67.533 80.2236 67.3286C80.1036 67.0755 80.0549 66.7916 80.1436 66.4146C80.3435 65.5752 80.4671 64.8369 80.7598 64.1392L80.8965 63.8423C81.0068 63.6222 81.0912 63.3899 81.1523 63.1577L81.2061 62.9253C81.5188 61.3624 81.818 59.7992 82.1133 58.2349C82.1589 57.9933 82.2167 57.6731 82.1631 57.3472C82.1042 56.9899 81.9212 56.6661 81.5762 56.3872L81.5752 56.3862L81.5176 56.3296C81.4709 56.2712 81.457 56.2073 81.4619 56.1255C81.4701 55.9914 81.5342 55.818 81.6465 55.6421L81.6455 55.6411C82.3801 54.4961 82.563 53.2711 82.5801 52.0542C82.5839 51.8098 82.6618 51.5786 82.7529 51.2104L82.7539 51.2075C82.8563 50.7812 82.9717 50.3647 83.0859 49.9272L83.1855 49.5454L82.8369 49.3599L82.6484 49.2593L82.335 49.0923L82.0742 49.3325C81.9554 49.4417 81.7352 49.622 81.5742 49.8003L81.5732 49.8013C81.2434 50.1677 80.9152 50.5626 80.6074 50.9155C80.493 51.0452 80.3995 51.1177 80.3223 51.1519C80.2612 51.1788 80.1932 51.1904 80.0869 51.1567L80.085 51.1558C79.7585 51.0532 79.6001 50.8539 79.5635 50.5747C79.5308 50.3224 79.5408 50.0777 79.5996 49.8892L79.5986 49.8882C79.7202 49.5046 79.8605 49.1246 80.0049 48.7329C80.1483 48.3436 80.2962 47.9417 80.4268 47.5337C80.5962 47.009 80.6996 46.4318 80.8115 45.9614C80.8776 45.688 80.934 45.3758 80.9863 45.1323C81.0427 44.8699 81.1035 44.6353 81.1914 44.4214C81.9109 42.6727 82.3465 40.8542 82.6738 39.0581C82.8064 38.3289 82.8364 37.5922 82.8389 36.8745C82.8414 36.1307 82.8165 35.468 82.8301 34.7583L82.8291 34.7573C82.8344 34.5093 82.818 34.2545 82.8086 34.0435C82.7986 33.82 82.7961 33.6273 82.8174 33.4468L82.8164 33.4458C82.8449 33.2273 82.9464 32.9778 83.0898 32.7759L83.0908 32.7769C83.2947 32.4903 83.3508 32.4835 83.3701 32.479C83.3952 32.4731 83.4528 32.4663 83.5801 32.4829C83.7081 32.4996 83.8747 32.535 84.1104 32.5913L84.3311 32.644L84.5166 32.5112C84.6711 32.4009 84.8374 32.2834 85.0098 32.1606L85.0107 32.1597Z" fill="#11B0C8" stroke="#87F54E"/>
<path d="M208.986 37.7773H208.99C209.128 37.7782 209.225 37.8145 209.289 37.8633C209.349 37.9087 209.417 37.9919 209.453 38.1602V38.1611C209.644 39.0433 209.738 39.9403 209.861 40.8809V40.8818C209.9 41.1841 209.867 41.8887 210.466 42.4082L210.869 42.7578L211.191 42.333C211.331 42.1499 211.412 42.0343 211.512 41.9141L211.513 41.9131C212.219 41.0566 212.845 40.2212 213.571 39.4463L213.572 39.4473C213.892 39.1067 214.135 38.9865 214.353 38.958C214.584 38.9278 214.885 38.9874 215.349 39.2109H215.35C216.044 39.5446 216.82 39.7428 217.679 39.5605H217.68C218.273 39.4334 218.777 39.5593 219.247 39.9053L219.446 40.0674C219.682 40.2782 219.783 40.4572 219.812 40.5986C219.84 40.7264 219.824 40.8913 219.677 41.1191V41.1201C219.496 41.4029 219.401 41.6974 219.439 42.0156C219.475 42.3118 219.62 42.5597 219.758 42.7607L219.76 42.7627C220.136 43.3073 220.537 44.0408 221.105 44.6289L221.106 44.6299C221.173 44.6984 221.236 44.8095 221.3 44.9873C221.335 45.0854 221.362 45.175 221.389 45.2705L221.481 45.5918C221.551 45.8208 221.547 46.0322 221.59 46.4004C221.631 46.7534 221.563 47.0676 221.366 47.3789C220.937 48.0554 220.485 48.6018 219.824 48.9385C219.637 49.0334 219.495 49.1053 219.367 49.1475L219.242 49.1797C218.508 49.312 217.888 49.6145 217.319 50.0293C216.942 50.3042 216.514 50.4956 216.016 50.7568L216.013 50.7578C215.911 50.8116 215.804 50.854 215.656 50.915C215.521 50.9713 215.353 51.043 215.192 51.1436L215.191 51.1445C214.882 51.3391 214.659 51.656 214.652 52.0312C214.646 52.4203 214.875 52.7462 215.218 52.9248C216.239 53.4612 216.814 54.3576 217.499 55.3857V55.3867C217.667 55.639 217.705 55.9256 217.67 56.2764L217.65 56.4316C217.52 57.3231 217.75 58.0484 218.318 58.7646C219.382 60.1059 219.765 61.6631 219.494 63.3154C219.284 64.5835 219.582 65.6928 220.062 66.7549V66.7559C220.331 67.3602 220.558 67.9863 220.762 68.6221L220.763 68.623C220.836 68.8506 220.797 69.0884 220.62 69.3193H220.619C220.284 69.7597 219.742 69.8446 219.284 69.5068L219.193 69.4336C218.717 69.0126 218.433 68.4691 218.269 67.8516L218.205 67.583C218.024 66.6958 217.794 65.8193 217.448 64.9512L217.447 64.9502L217.405 64.8262C217.317 64.5262 217.31 64.1563 217.331 63.7461C217.389 62.62 217.05 61.6422 216.167 60.8271C215.937 60.6153 215.733 60.3557 215.544 60.0713L215.36 59.7793C214.678 58.6423 213.858 57.5665 212.703 56.7305C212.475 56.565 212.212 56.3925 212.043 56.2744L211.313 55.7656L211.258 56.6533C211.249 56.8002 211.248 57.0147 211.243 57.165C211.24 57.2519 211.235 57.3366 211.228 57.4189L211.194 57.6582C211.058 58.3357 210.971 58.9189 210.728 59.4316V59.4326C210.368 60.1917 210.167 60.9537 210.11 61.7686L210.095 62.1211C210.085 62.647 210.001 63.1804 209.812 63.624C209.589 64.1381 209.001 64.2811 208.559 63.9199L208.473 63.8408C208.389 63.7543 208.308 63.5787 208.28 63.3936C208.247 63.1507 208.278 62.8794 208.322 62.5479V62.5459C208.432 61.6972 208.423 60.8604 208.305 60.0059C208.229 59.4578 208.294 58.8403 208.463 58.2842C208.731 57.4038 208.727 56.5693 208.218 55.709L208.217 55.708L208.124 55.5254C207.938 55.0925 207.975 54.6193 208.188 54.1016H208.188C208.262 53.9226 208.35 53.7457 208.448 53.5498C208.544 53.3599 208.65 53.1499 208.741 52.9307C208.911 52.5227 208.99 52.0936 208.837 51.6816C208.685 51.2714 208.346 50.9958 207.951 50.792H207.952C207.481 50.5473 207.269 50.2762 207.245 49.9121V49.9111C207.211 49.3993 207.168 49.0015 207.251 48.6396C207.565 47.2829 207.784 45.919 207.82 44.501C207.837 43.9066 207.914 43.3072 208.007 42.6875C208.098 42.0768 208.208 41.4329 208.277 40.7939C208.35 40.124 208.337 39.413 208.36 38.8037C208.363 38.7368 208.363 38.6715 208.362 38.6152C208.362 38.5557 208.361 38.507 208.362 38.459C208.364 38.3625 208.372 38.3037 208.384 38.2627L208.385 38.2607C208.474 37.9469 208.734 37.7743 208.986 37.7773ZM215.021 43.4717C214.731 43.4808 214.459 43.5226 214.211 43.6367C213.693 43.8755 213.446 44.3597 213.212 44.9072V44.9082C213.096 45.1802 212.954 45.3776 212.775 45.5254C212.596 45.6737 212.351 45.7941 211.996 45.8721L211.45 45.9922L211.63 46.5205C211.674 46.6496 211.677 46.7206 211.729 46.9238C211.761 47.045 211.823 47.2696 211.995 47.4453L212.076 47.5176C212.503 47.8494 212.832 48.241 213.115 48.7021L213.117 48.7051C213.222 48.8739 213.38 48.9678 213.456 49.0127C213.565 49.0766 213.61 49.0958 213.69 49.1494L214.058 49.3936L214.346 49.0586C214.5 48.8799 214.629 48.7508 214.802 48.5596C214.958 48.3868 215.123 48.1894 215.253 47.959H215.254C215.351 47.7862 215.459 47.5682 215.531 47.3379C215.592 47.1436 215.641 46.8975 215.603 46.6455L215.581 46.5381C215.461 46.0593 215.422 45.6864 215.503 45.3691C215.578 45.0751 215.775 44.7612 216.277 44.4404L217.513 43.6523L216.053 43.5215C215.652 43.4855 215.311 43.4626 215.021 43.4717Z" fill="#11B0C8" stroke="#87F54E"/>
<path d="M231.563 34.6753C231.956 34.6161 232.212 34.7021 232.351 34.8159C232.476 34.9195 232.577 35.1047 232.543 35.4282C232.502 35.7938 232.342 36.1932 232.128 36.5874H232.127C231.937 36.939 231.731 37.2743 231.518 37.6128L230.857 38.6587C230.752 38.83 230.656 38.9973 230.591 39.1558C230.524 39.3198 230.474 39.5152 230.509 39.7319C230.544 39.9487 230.652 40.1194 230.77 40.2554C230.883 40.3867 231.031 40.5154 231.189 40.647V40.6479C231.749 41.1136 231.774 41.6855 231.646 42.5151L231.624 42.5825C230.979 43.782 230.718 45.068 230.482 46.2886C230.27 47.3898 229.928 48.4567 229.426 49.4712C229.32 49.6835 229.245 49.901 229.184 50.1011C229.117 50.3176 229.073 50.4823 229.01 50.6733L228.862 51.1147L229.293 51.2935C230.078 51.618 230.796 51.4526 231.279 51.394H231.281C231.94 51.311 232.184 51.3122 232.346 51.3706C232.486 51.4212 232.629 51.5395 232.977 51.9917L233.127 52.187H233.373L234.892 52.188C235.382 52.1959 235.782 52.3352 236.094 52.6157L236.225 52.7466C236.546 53.1017 236.92 53.2531 237.352 53.3062C237.81 53.3628 238.25 53.4433 238.644 53.5835H238.645C238.91 53.6777 239.179 53.8494 239.382 54.0474L239.383 54.0483C239.567 54.2273 239.592 54.3566 239.587 54.4282C239.582 54.5064 239.534 54.6433 239.327 54.814C239.147 54.9622 238.981 55.0486 238.713 55.2319L238.508 55.3716L238.495 55.6196C238.473 56.065 238.373 56.2266 238.287 56.2993C238.189 56.3819 237.976 56.4657 237.469 56.4487H237.47C236.791 56.4238 236.185 56.2263 235.66 55.8501L235.658 55.8481C235.065 55.426 234.467 55.3174 233.742 55.4253C232.689 55.5788 231.752 55.4857 230.996 54.8276C230.82 54.674 230.616 54.5856 230.46 54.5259C230.269 54.4527 230.178 54.4291 230.05 54.3726L229.794 54.2593L229.564 54.4175L229.369 54.5513L229.139 54.7095L229.152 54.9888C229.174 55.4129 229.169 55.9522 229.234 56.4438C229.353 57.3509 229.308 58.1621 228.917 58.9087L228.834 59.0571C228.568 59.5037 228.545 59.9788 228.735 60.4429V60.4438C228.97 61.0173 228.887 61.6075 228.826 62.3872C228.818 62.4634 228.762 62.5964 228.652 62.7427C227.963 63.652 227.795 64.6754 227.703 65.6372C227.54 67.332 227.337 69.0279 227.123 70.7241C227.08 71.061 226.954 71.3643 226.819 71.8022C226.595 72.5247 226.365 73.2441 226.132 73.9614C226.103 74.0487 226.084 74.1121 226.065 74.1616L226.011 74.2798C225.889 74.4749 225.798 74.4871 225.788 74.4878C225.782 74.4882 225.693 74.4926 225.548 74.312C225.209 73.8876 225.08 73.3553 225.065 72.7583C225.031 71.3362 225.068 69.9832 225.45 68.6343V68.6333C225.61 68.0643 225.661 67.4806 225.682 66.9224C225.704 66.3244 225.692 65.8487 225.723 65.2954V65.1812C225.709 64.9238 225.609 64.6858 225.516 64.52L225.515 64.519L225.441 64.3794C225.104 63.6808 225.188 62.9665 225.544 62.2095C225.667 61.9527 225.743 61.6869 225.732 61.4019C225.721 61.1154 225.623 60.8578 225.479 60.6157V60.6147L225.367 60.4058C225.264 60.1876 225.184 59.9427 225.105 59.6753L225.104 59.6724C225.018 59.3808 225.06 59.1037 225.261 58.7769C225.467 58.4471 225.711 57.978 225.729 57.4878V57.4868C225.752 56.7687 225.893 56.1405 226.251 55.564L226.25 55.563C226.321 55.4498 226.358 55.3364 226.38 55.2603C226.406 55.1688 226.418 55.1162 226.446 55.0317L226.697 54.2856L225.916 54.3755C225.54 54.4186 225.228 54.3137 224.877 54.1294C224.689 54.0305 224.527 53.9301 224.313 53.8091C224.114 53.6958 223.889 53.5777 223.642 53.4888C223.189 53.3261 222.656 53.1057 222.024 53.0962L221.747 53.106C221.489 53.1274 221.338 53.0674 221.244 52.9927C221.145 52.9141 221.049 52.7701 220.995 52.5151C220.954 52.3202 220.989 52.2202 221.022 52.1685C221.05 52.1271 221.107 52.0698 221.229 52.02L221.374 51.9731C221.547 51.93 221.731 51.9032 221.909 51.894H221.911C222.372 51.8681 222.841 51.7685 223.269 51.4907L223.448 51.3608C223.719 51.1452 224.062 51.0953 224.57 51.0933C225.059 51.0912 225.577 51.017 225.902 50.646C226.197 50.3095 226.217 49.8669 226.15 49.4429L226.117 49.2622C225.971 48.568 226.057 47.9331 226.379 47.314L226.378 47.313C226.692 46.7104 226.851 46.0783 226.841 45.3979V45.396C226.826 44.6238 227.043 43.8712 227.336 43.0688L227.335 43.0679C227.516 42.5792 227.765 41.9873 227.846 41.3774C228.033 39.9697 228.7 38.7319 229.395 37.3696L229.396 37.3706C229.658 36.8559 229.935 36.3279 230.188 35.7944C230.488 35.1644 230.896 34.7751 231.563 34.6743V34.6753Z" fill="#11B0C8" stroke="#87F54E"/>
<path d="M71.9688 42.5032C72.3569 42.4801 72.6136 42.5753 72.7891 42.7737C73.0013 43.0151 73.2466 43.1501 73.5156 43.2073C73.7609 43.2594 74.0078 43.2408 74.2041 43.2239C75.0639 43.1518 75.9175 43.1411 76.8125 43.1047C77.156 43.0904 77.355 43.2081 77.4775 43.4309L77.4785 43.4329C77.594 43.6414 77.5691 43.8605 77.3359 44.1624C76.7531 44.9129 75.918 45.2235 74.8633 45.262H74.8623C74.6415 45.2701 74.4201 45.2743 74.1973 45.2756L73.5234 45.2737C72.8976 45.2684 72.2977 45.4016 71.7051 45.7551L71.3008 45.9963L71.5166 46.4143C71.6303 46.6345 71.6227 46.7957 71.5703 46.9368C71.509 47.1015 71.3685 47.2822 71.1445 47.4758C70.2511 48.2481 69.3148 48.9733 68.3691 49.7219H68.3682C67.6738 50.2725 66.8521 50.9562 66.6826 52.1487L66.6367 52.4739L66.917 52.6458C67.1026 52.7592 67.203 52.8182 67.3086 52.885L67.3105 52.886C67.7728 53.1758 67.9285 53.377 67.9785 53.5374C68.0273 53.694 68.0154 53.9431 67.7891 54.4377C67.7008 54.6299 67.5825 54.8204 67.4434 55.0295C67.3111 55.2282 67.1478 55.4605 67.0088 55.6917L67.0078 55.6936C66.797 56.0463 66.5834 56.4174 66.4004 56.8079C66.2826 57.0589 66.2262 57.3446 66.2305 57.6116V57.6125C66.2358 58.0507 66.4346 58.4499 66.8164 58.6555C67.191 58.8573 67.6323 58.814 68.0127 58.6077L68.0156 58.6057C68.2301 58.4877 68.4321 58.3568 68.6182 58.2336C68.8091 58.1073 68.9807 57.9906 69.1592 57.885L69.1621 57.884C69.565 57.6421 69.9069 57.5943 70.2725 57.7737H70.2744C70.4938 57.8805 70.7414 57.953 71.0088 57.9397C71.2823 57.9261 71.5361 57.8249 71.7637 57.6506L71.7646 57.6497C71.9325 57.5205 72.0758 57.4889 72.208 57.4973C72.3548 57.5067 72.532 57.5696 72.7432 57.7034L72.7441 57.7043C72.8753 57.7867 73.005 57.8768 73.1436 57.9749C73.2786 58.0705 73.4257 58.1754 73.5762 58.2747V58.2756C74.0946 58.6187 74.5922 58.837 75.1318 58.8333C75.6715 58.8294 76.1653 58.6041 76.6768 58.2561C77.0178 58.024 77.2506 57.9595 77.3887 57.9631C77.4856 57.9658 77.5859 58.0001 77.6973 58.175V58.176C77.8005 58.3402 77.8522 58.6161 77.8164 58.8235V58.8254C77.6024 60.088 76.3618 60.9628 74.959 60.7424H74.958C74.1192 60.6107 73.3884 60.7636 72.7197 61.3352C72.4406 61.5715 72.1212 61.7722 71.8008 61.887L71.7998 61.8879C71.6697 61.9348 71.5194 61.9713 71.3779 61.9856C71.2309 62.0005 71.1281 61.9874 71.0713 61.967C70.7428 61.8494 70.4207 61.8242 70.1152 61.9114C69.8135 61.9975 69.5783 62.1787 69.3945 62.384C69.0404 62.7786 68.745 63.2209 68.4971 63.6614V63.6624C68.3361 63.9507 68.2018 64.2505 68.0781 64.5247C67.9514 64.8054 67.8341 65.0623 67.6963 65.303C67.5258 65.5996 67.2903 65.8861 67.0264 66.1204C66.9427 66.1936 66.8682 66.2102 66.8105 66.2063C66.7499 66.2022 66.6659 66.1723 66.5771 66.0803L66.5732 66.0764C66.4287 65.929 66.3137 65.7424 66.2627 65.5774C66.1994 65.3709 66.1634 65.1458 66.1465 64.9094L66.1357 64.6692C66.1288 64.3689 66.0952 64.0424 65.9629 63.7297C65.8254 63.4049 65.5954 63.1274 65.25 62.9016L65.248 62.8997L65.1133 62.7981C64.9963 62.694 64.9277 62.5817 64.8887 62.4641C64.8337 62.2984 64.8244 62.0835 64.8809 61.8098C64.9617 61.4243 64.9879 60.9625 64.6748 60.6184C64.3825 60.2973 63.928 60.237 63.5332 60.2278H63.5303C63.1127 60.2203 62.7943 60.2368 62.4395 60.2092H62.4375C62.0984 60.1843 61.9572 60.1035 61.9014 60.0471C61.8712 60.0165 61.8277 59.9549 61.8184 59.8108L61.8223 59.636C61.8562 59.2562 62.0111 58.8758 62.1846 58.3938L62.1855 58.3928C62.2057 58.3365 62.2415 58.2699 62.3115 58.1643C62.3717 58.0736 62.4779 57.9241 62.5693 57.7756L63.0391 57.0139H61.7402C61.4903 56.996 61.3424 56.9135 61.2705 56.8381C61.211 56.7756 61.1643 56.6783 61.1953 56.5022V56.5012C61.2704 56.0684 61.459 55.6185 61.6973 55.1838L61.6982 55.1819C61.8458 54.9102 62.0927 54.6966 62.4229 54.3567V54.3557C62.9109 53.8522 63.2055 53.2474 63.2451 52.5403C63.2911 51.7504 63.5026 51.0348 63.9111 50.3176L63.9121 50.3157C64.2797 49.6632 64.3786 48.87 64.4639 48.2542C64.5673 47.5242 64.7336 47.1039 64.9941 46.8137C65.2568 46.5213 65.6759 46.2922 66.4395 46.0852V46.0862L66.4482 46.0833L66.8086 45.9768C67.2601 45.8954 67.6779 45.7371 68.0039 45.4358C68.3458 45.1197 68.5361 44.6948 68.6045 44.1868C68.6138 44.1245 68.6533 44.0236 68.7383 43.9006C68.8213 43.7806 68.9286 43.6683 69.0332 43.5852C69.866 42.9241 70.8545 42.5726 71.9697 42.5042L71.9688 42.5032Z" fill="#11B0C8" stroke="#87F54E"/>
<path d="M195.939 43.0413C197.02 42.0995 198.314 41.9277 199.782 42.4133V42.4124C200.853 42.7682 201.725 43.3913 202.562 44.1711V44.1721C202.954 44.5358 203.134 44.9402 203.195 45.4631V45.4622C203.23 45.7857 203.31 46.173 203.501 46.5129C204.113 47.6006 204.149 48.7385 203.794 49.9397L203.793 49.9417C203.654 50.4189 203.419 50.8835 203.164 51.3928C202.93 51.8562 202.837 52.3203 202.919 52.7883C203 53.2477 203.241 53.6543 203.568 54.0286V54.0295C204.17 54.7198 204.654 55.4265 204.868 56.2522C205.065 57.0206 204.77 57.7101 204.26 58.3811H204.259C203.358 59.5681 202.369 60.7064 201.29 61.7346C201.03 61.982 200.701 62.1889 200.317 62.3948C200.126 62.4974 199.929 62.5947 199.724 62.6985C199.622 62.7497 199.519 62.8027 199.416 62.8567L199.107 63.0227C199.071 63.043 199.022 63.0629 198.974 63.0745C198.931 63.0846 198.907 63.0844 198.902 63.0842H198.9C198.436 63.0022 198.006 63.0434 197.617 63.1145C197.424 63.1498 197.235 63.1937 197.058 63.2346L196.539 63.3469C196.122 63.4229 195.873 63.3885 195.7 63.3069C195.529 63.2258 195.356 63.0614 195.17 62.7161V62.7151L195.086 62.5784C194.883 62.2819 194.621 62.1364 194.354 62.0256L194.351 62.0247C193.949 61.8608 193.559 61.6522 193.171 61.4211L193.17 61.4202L192.781 61.1956C192.36 60.9697 191.837 60.7759 191.17 60.9387C190.893 61.0056 190.618 60.8781 190.499 60.4885L190.498 60.4875C190.357 60.0292 190.344 59.5929 190.272 59.0901C190.316 58.6442 190.345 58.2762 190.384 57.9241L190.43 57.5598C190.609 56.2828 190.476 55.0362 189.643 53.8958L189.467 53.6682C188.98 53.0788 188.997 52.0605 189.623 51.3606C190.294 50.6116 190.641 49.7949 190.798 48.8762V48.8752C191.004 47.6519 191.825 46.8205 193.012 46.1077C193.362 45.8975 193.644 45.5977 193.863 45.3557C194.225 44.9559 194.573 44.5197 194.901 44.1311C195.238 43.7327 195.571 43.3629 195.939 43.0413ZM196.432 47.2395C196.061 47.4112 195.666 47.6438 195.383 47.9768C195.083 48.3306 194.921 48.786 195.018 49.3313V49.3323C195.091 49.7454 195.058 50.0781 194.946 50.3645C194.833 50.6536 194.625 50.9326 194.289 51.2141C193.35 52.0004 193.061 53.0432 193.309 54.175V54.176C193.345 54.3422 193.378 54.5101 193.411 54.6838C193.444 54.856 193.478 55.0349 193.516 55.2131C193.557 55.4081 193.637 55.6636 193.838 55.8635C194.058 56.0827 194.349 56.1635 194.66 56.1506H194.663C194.94 56.1381 195.146 56.2572 195.364 56.5315L195.459 56.6594C195.802 57.1566 196.139 57.6558 196.523 58.2209L196.688 58.4622L196.979 58.4377C197.441 58.3986 197.959 58.351 198.452 58.3059L198.861 58.2688L198.904 57.8606C198.94 57.5189 198.98 57.2368 198.933 56.9563C198.884 56.6714 198.75 56.4035 198.562 56.0354V56.0344L198.497 55.9026C198.199 55.2417 198.225 54.5951 198.524 53.9036V53.9026C198.594 53.7429 198.699 53.5292 198.788 53.3127L198.87 53.0969C198.98 52.7809 199.046 52.438 198.923 52.0959C198.802 51.7596 198.536 51.5322 198.255 51.3489H198.256C198.138 51.2709 198.016 51.2043 197.914 51.1487C197.806 51.0899 197.719 51.0426 197.638 50.9905C197.264 50.7498 197.017 50.4925 196.88 50.2219C196.747 49.9599 196.698 49.6479 196.78 49.2522L196.781 49.2493C196.878 48.7749 197.004 48.3124 197.127 47.8127L197.376 46.802L196.432 47.2395Z" fill="#11B0C8" stroke="#87F54E"/>
<path d="M56.623 41.8708V41.8718C56.8689 41.8936 56.9667 41.954 57.0078 41.9939C57.044 42.029 57.0972 42.1072 57.1143 42.3123V42.5593C56.981 43.2984 57.0411 44.0101 57.335 44.7126L57.4795 45.0212C57.711 45.4684 57.6403 45.9815 57.3936 46.5945V46.5955C57.0146 47.5397 56.8291 48.5142 56.8613 49.5359C56.8724 49.8891 56.9236 50.2552 57.0977 50.5964C57.2763 50.9466 57.5615 51.2265 57.9639 51.447V51.448C58.4565 51.7211 58.6636 52.0473 58.7227 52.3367C58.7832 52.6336 58.7054 52.9764 58.4658 53.3074L58.4648 53.3083C58.3127 53.5198 58.185 53.741 58.0713 53.9412C57.9538 54.148 57.8526 54.3307 57.7373 54.5027C57.5355 54.8039 57.4161 55.1281 57.4023 55.4734C57.3886 55.8175 57.4812 56.1452 57.6445 56.4519L57.6484 56.4597L57.7227 56.5945L57.7246 56.5974C58.1785 57.3998 58.2722 58.1836 57.9385 59.0056L57.9375 59.0095C57.8807 59.1533 57.8367 59.314 57.8066 59.4128C57.7716 59.528 57.7443 59.6013 57.7119 59.657L57.709 59.6609C56.9079 61.0677 56.7523 62.5559 56.8633 64.0544V64.0564C56.9045 64.5864 56.8092 65.1207 56.7324 65.7585L56.7314 65.7615C56.7231 65.8348 56.6752 65.9506 56.5771 66.1023C56.4337 66.3134 56.2913 66.3751 56.1924 66.3845C56.0912 66.394 55.9303 66.3581 55.7363 66.1687C55.4205 65.8587 55.2801 65.4639 55.2334 64.9822L55.2188 64.7693C55.2039 64.4129 55.2064 64.0636 55.21 63.7H55.2363V63.2C55.2363 62.7342 55.2282 62.2942 55.2373 61.8474L55.2363 61.8464C55.2502 61.3405 55.1553 60.8437 54.8848 60.3806L54.7578 60.1843C54.5057 59.8272 54.4269 59.4767 54.5234 59.0808C54.6439 58.5924 54.6257 58.1005 54.4355 57.6189L54.3438 57.4128C54.1902 57.106 54.2449 56.7927 54.3262 56.2283C54.4406 55.4515 54.444 54.6476 54.4775 53.9236L54.4766 53.9226C54.5029 53.3558 54.2397 52.8991 53.8047 52.5818C53.4788 52.3441 53.3286 52.0957 53.2715 51.8494C53.2119 51.5921 53.2399 51.2801 53.3721 50.907C53.4572 50.6685 53.5638 50.4314 53.6797 50.1804C53.7928 49.9353 53.9188 49.6689 54.0312 49.4011L54.0322 49.4021C54.1502 49.1235 54.3163 48.7602 54.3906 48.3796C54.4363 48.1453 54.4368 47.872 54.3232 47.6101C54.2046 47.3368 53.984 47.129 53.6885 47.0027L53.6875 47.0017C53.4869 46.9163 53.4317 46.8268 53.4082 46.7634C53.3764 46.6777 53.367 46.537 53.418 46.3074C53.4356 46.2291 53.4551 46.1145 53.4639 46.0701C53.4766 46.0058 53.4873 45.9679 53.498 45.9412V45.9402C53.882 44.9758 54.016 43.9911 53.873 42.9451V42.9441L53.8584 42.8142C53.8497 42.6979 53.8562 42.6192 53.8672 42.5681C53.8797 42.5105 53.8948 42.5012 53.8965 42.4998C53.9054 42.4922 53.9444 42.4642 54.0576 42.4441C54.1722 42.4238 54.3338 42.4157 54.5566 42.4285H54.5576C54.9068 42.4485 55.2342 42.276 55.416 42.1599C55.7846 41.9281 56.18 41.8351 56.623 41.8708Z" fill="#11B0C8" stroke="#87F54E"/>
<path d="M55.2422 30.7122C55.6547 30.6677 56.1445 31.1192 56.0645 31.7434V31.7473C56.0314 32.0205 55.9701 32.2648 55.8955 32.6624L55.7686 33.3401L56.4521 33.2502C57.0116 33.177 57.3323 33.302 57.4824 33.4436C57.6138 33.5676 57.7141 33.8001 57.6055 34.22C57.3338 35.2622 57.1738 36.3045 57.0908 37.3616C57.0426 37.973 56.7703 38.385 56.2256 38.5715H56.2246C55.6627 38.7642 55.1085 38.6452 54.5938 38.2483H54.5947C54.1763 37.9251 53.7764 37.6305 53.3936 37.3079H53.3945C53.1578 37.1066 53.0387 36.8924 52.9902 36.676C52.9406 36.4539 52.9577 36.1951 53.0508 35.9026C53.2051 35.429 53.4482 34.9604 53.7227 34.4817V34.4807C53.8707 34.2211 54.0108 33.9209 54.0342 33.5823C54.0558 33.2685 53.9757 32.9682 53.7988 32.676L53.7168 32.551C53.4925 32.225 53.5547 31.689 53.9277 31.2971C54.2594 30.9488 54.7076 30.7701 55.2422 30.7122Z" fill="#11B0C8" stroke="#87F54E"/>
<mask id="path-17-inside-4_99_963" fill="white">
<path d="M236.194 78.7278V78.8731H235.753V79.9592H235.575V78.8731H235.133V78.7278"/>
</mask>
<path d="M236.194 78.7278V78.8731H235.753V79.9592H235.575V78.8731H235.133V78.7278" fill="#11B0C8"/>
<path d="M236.194 78.8731V79.8731H237.194V78.8731H236.194ZM235.753 78.8731V77.8731H234.753V78.8731H235.753ZM235.753 79.9592V80.9592H236.753V79.9592H235.753ZM235.575 79.9592H234.575V80.9592H235.575V79.9592ZM235.575 78.8731H236.575V77.8731H235.575V78.8731ZM235.133 78.8731H234.133V79.8731H235.133V78.8731ZM235.194 78.7278V78.8731H237.194V78.7278H235.194ZM236.194 77.8731H235.753V79.8731H236.194V77.8731ZM234.753 78.8731V79.9592H236.753V78.8731H234.753ZM235.753 78.9592H235.575V80.9592H235.753V78.9592ZM236.575 79.9592V78.8731H234.575V79.9592H236.575ZM235.575 77.8731H235.133V79.8731H235.575V77.8731ZM236.133 78.8731V78.7278H234.133V78.8731H236.133Z" fill="#87F54E" mask="url(#path-17-inside-4_99_963)"/>
<mask id="path-19-inside-5_99_963" fill="white">
<path d="M236.314 78.7278H236.566L236.943 79.7682L237.317 78.7278H237.567V79.9592H237.402V79.2389L237.403 79.1058V78.9208L237.029 79.9592H236.855L236.472 78.9208V78.9571L236.482 79.0957V79.9592H236.314"/>
</mask>
<path d="M236.314 78.7278H236.566L236.943 79.7682L237.317 78.7278H237.567V79.9592H237.402V79.2389L237.403 79.1058V78.9208L237.029 79.9592H236.855L236.472 78.9208V78.9571L236.482 79.0957V79.9592H236.314" fill="#11B0C8"/>
<path d="M236.566 78.7278L237.506 78.3866L237.266 77.7278H236.566V78.7278ZM236.943 79.7682L236.003 80.1095L236.948 82.7111L237.884 80.1066L236.943 79.7682ZM237.317 78.7278V77.7278H236.614L236.376 78.3894L237.317 78.7278ZM237.567 78.7278H238.567V77.7278H237.567V78.7278ZM237.567 79.9592V80.9592H238.567V79.9592H237.567ZM237.402 79.9592H236.402V80.9592H237.402V79.9592ZM237.402 79.2389L236.402 79.2282V79.2389H237.402ZM237.403 79.1058L238.403 79.1165V79.1058H237.403ZM237.403 78.9208H238.403L236.463 78.5819L237.403 78.9208ZM237.029 79.9592V80.9592H237.732L237.97 80.2982L237.029 79.9592ZM236.855 79.9592L235.917 80.3056L236.158 80.9592H236.855V79.9592ZM236.472 78.9208L237.41 78.5745L235.472 78.9208H236.472ZM236.472 78.9571H235.472V78.993L235.474 79.0287L236.472 78.9571ZM236.482 79.0957H237.482V79.0598L237.479 79.0241L236.482 79.0957ZM236.482 79.9592V80.9592H237.482V79.9592H236.482ZM236.314 79.7278H236.566V77.7278H236.314V79.7278ZM235.626 79.069L236.003 80.1095L237.883 79.427L237.506 78.3866L235.626 79.069ZM237.884 80.1066L238.258 79.0662L236.376 78.3894L236.002 79.4299L237.884 80.1066ZM237.317 79.7278H237.567V77.7278H237.317V79.7278ZM236.567 78.7278V79.9592H238.567V78.7278H236.567ZM237.567 78.9592H237.402V80.9592H237.567V78.9592ZM238.402 79.9592V79.2389H236.402V79.9592H238.402ZM238.402 79.2497L238.403 79.1165L236.403 79.095L236.402 79.2282L238.402 79.2497ZM238.403 79.1058V78.9208H236.403V79.1058H238.403ZM236.463 78.5819L236.089 79.6203L237.97 80.2982L238.344 79.2598L236.463 78.5819ZM237.029 78.9592H236.855V80.9592H237.029V78.9592ZM237.793 79.6129L237.41 78.5745L235.534 79.2672L235.917 80.3056L237.793 79.6129ZM235.472 78.9208V78.9571H237.472V78.9208H235.472ZM235.474 79.0287L235.484 79.1672L237.479 79.0241L237.469 78.8856L235.474 79.0287ZM235.482 79.0957V79.9592H237.482V79.0957H235.482ZM236.482 78.9592H236.314V80.9592H236.482V78.9592Z" fill="#87F54E" mask="url(#path-19-inside-5_99_963)"/>
</g>
<defs>
<filter id="filter0_d_99_963" x="0" y="0.402832" width="285" height="100.663" filterUnits="userSpaceOnUse" color-interpolation-filters="sRGB">
<feFlood flood-opacity="0" result="BackgroundImageFix"/>
<feColorMatrix in="SourceAlpha" type="matrix" values="0 0 0 0 0 0 0 0 0 0 0 0 0 0 0 0 0 0 127 0" result="hardAlpha"/>
<feOffset/>
<feGaussianBlur stdDeviation="7.5"/>
<feComposite in2="hardAlpha" operator="out"/>
<feColorMatrix type="matrix" values="0 0 0 0 0.529412 0 0 0 0 0.960784 0 0 0 0 0.305882 0 0 0 1 0"/>
<feBlend mode="normal" in2="BackgroundImageFix" result="effect1_dropShadow_99_963"/>
<feBlend mode="normal" in="SourceGraphic" in2="effect1_dropShadow_99_963" result="shape"/>
</filter>
<clipPath id="clip0_99_963">
<rect width="66" height="46" fill="white" transform="translate(292 33)"/>
</clipPath>
</defs>
</svg>
