<svg width="169" height="239" viewBox="0 0 169 239" fill="none" xmlns="http://www.w3.org/2000/svg">
<g clip-path="url(#clip0_99_1013)">
<path d="M6.51515 215.661C2.38885 209.413 0.548273 201.931 1.305 194.482C2.06174 187.033 5.36928 180.075 10.6677 174.784C26.3523 159.032 39.9446 141.327 51.1098 122.105C66.8441 95.2365 78.361 65.2407 85.3815 32.961C87.7381 22.1147 94.307 12.6487 103.643 6.64559C112.979 0.642468 124.317 -1.40608 135.164 0.950588C146.01 3.30726 155.476 9.87611 161.479 19.2121C167.482 28.548 169.531 39.8863 167.174 50.7327C158.298 91.6679 143.543 129.891 123.332 164.435C111.017 185.566 96.511 205.341 80.0545 223.434C59.8691 245.495 24.2868 242.659 7.83877 217.672L6.51515 215.661Z" fill="#87F54E"/>
<path d="M112.652 49.6427C119.461 49.6427 124.98 44.1233 124.98 37.3147C124.98 30.5062 119.461 24.9868 112.652 24.9868C105.844 24.9868 100.324 30.5062 100.324 37.3147C100.324 44.1233 105.844 49.6427 112.652 49.6427Z" fill="white"/>
<path d="M112.651 49.8892C110.163 49.8892 107.732 49.1516 105.664 47.7696C103.596 46.3876 101.984 44.4233 101.033 42.1253C100.081 39.8272 99.8326 37.2986 100.318 34.8592C100.804 32.4198 102.002 30.1792 103.761 28.4209C105.521 26.6626 107.762 25.4655 110.201 24.9811C112.641 24.4966 115.17 24.7465 117.467 25.6993C119.765 26.652 121.728 28.2647 123.109 30.3334C124.49 32.4022 125.226 34.8339 125.225 37.3212C125.222 40.6545 123.896 43.8502 121.538 46.2066C119.18 48.563 115.984 49.8875 112.651 49.8892ZM112.651 25.2334C110.26 25.2334 107.923 25.9423 105.935 27.2705C103.947 28.5988 102.398 30.4866 101.483 32.6954C100.568 34.9042 100.329 37.3346 100.795 39.6794C101.261 42.0243 102.413 44.1781 104.103 45.8686C105.794 47.5591 107.948 48.7104 110.292 49.1768C112.637 49.6432 115.068 49.4038 117.277 48.4889C119.485 47.574 121.373 46.0247 122.701 44.0369C124.03 42.049 124.739 39.712 124.739 37.3212C124.735 34.1164 123.46 31.0438 121.194 28.7776C118.928 26.5114 115.856 25.2368 112.651 25.2334Z" fill="black"/>
<path d="M136.01 61.9706C142.818 61.9706 148.338 56.4512 148.338 49.6426C148.338 42.8341 142.818 37.3147 136.01 37.3147C129.201 37.3147 123.682 42.8341 123.682 49.6426C123.682 56.4512 129.201 61.9706 136.01 61.9706Z" fill="white"/>
<path d="M136.01 62.2171C133.523 62.2171 131.091 61.4795 129.023 60.0975C126.955 58.7155 125.344 56.7512 124.392 54.4532C123.441 52.1551 123.192 49.6265 123.678 47.1871C124.163 44.7477 125.362 42.5071 127.121 40.7488C128.88 38.9905 131.121 37.7934 133.561 37.3089C136.001 36.8245 138.529 37.0744 140.827 38.0272C143.124 38.9799 145.088 40.5926 146.469 42.6613C147.849 44.73 148.586 47.1618 148.585 49.6491C148.581 52.9824 147.255 56.1781 144.897 58.5345C142.54 60.8909 139.343 62.2154 136.01 62.2171ZM136.01 37.5612C133.619 37.5612 131.282 38.2702 129.294 39.5984C127.307 40.9266 125.757 42.8145 124.842 45.0233C123.927 47.232 123.688 49.6625 124.154 52.0073C124.621 54.3521 125.772 56.506 127.463 58.1965C129.153 59.887 131.307 61.0383 133.652 61.5047C135.997 61.9711 138.427 61.7317 140.636 60.8168C142.845 59.9019 144.732 58.3526 146.061 56.3648C147.389 54.3769 148.098 52.0399 148.098 49.6491C148.094 46.4443 146.82 43.3717 144.554 41.1055C142.287 38.8393 139.215 37.5647 136.01 37.5612Z" fill="black"/>
<path d="M22.2802 194.775C20.9436 196.027 6.77296 218.821 22.3321 212.942C37.8913 207.064 48.2856 203.138 53.4244 194.691C58.5632 186.243 67.6989 187.514 70.9042 178.424C74.1094 169.334 79.9036 143.348 91.5632 136.185C103.223 129.022 115.492 110.16 118.062 101.07C120.631 91.9794 131.642 85.4975 131.642 85.4975L95.2616 68.0762C95.2616 68.0762 88.877 107.006 81.1234 119.367C73.3698 131.727 40.4023 177.905 22.2802 194.775Z" fill="#99FF9B"/>
<path d="M152.236 39.9165C151.632 39.9171 151.041 39.7492 150.527 39.4317C150.013 39.1142 149.599 38.6596 149.329 38.1192C144.736 28.9382 141.77 25.1425 136.093 21.1586C131.713 18.0961 121.637 19.1342 118.451 19.7441C118.028 19.8365 117.59 19.8431 117.164 19.7636C116.738 19.684 116.333 19.52 115.971 19.2811C115.61 19.0422 115.3 18.7334 115.06 18.3727C114.819 18.0121 114.654 17.607 114.573 17.1813C114.492 16.7557 114.497 16.3181 114.588 15.8945C114.679 15.4708 114.853 15.0696 115.102 14.7146C115.35 14.3596 115.667 14.0579 116.034 13.8274C116.401 13.5969 116.81 13.4422 117.238 13.3725C118.769 13.0806 132.421 10.6669 139.817 15.8446C147.214 21.0223 150.621 26.226 155.13 35.2189C155.378 35.713 155.495 36.2622 155.471 36.8144C155.447 37.3665 155.282 37.9033 154.992 38.3739C154.702 38.8444 154.297 39.2331 153.814 39.5031C153.332 39.7731 152.789 39.9154 152.236 39.9165Z" fill="#65ECFF"/>
<path d="M152.231 40.1566C151.581 40.1562 150.944 39.9737 150.392 39.6296C149.841 39.2856 149.396 38.7938 149.11 38.21C144.568 29.0679 141.59 25.2852 135.958 21.3402C131.65 18.3231 121.684 19.3937 118.498 19.9647C117.589 20.134 116.65 19.9371 115.885 19.4169C115.121 18.8968 114.593 18.0954 114.417 17.1877C114.331 16.7378 114.335 16.2754 114.429 15.827C114.522 15.3786 114.703 14.953 114.961 14.5746C115.218 14.1961 115.548 13.8723 115.932 13.6215C116.315 13.3707 116.744 13.1979 117.194 13.113C118.732 12.8145 132.48 10.3943 139.955 15.624C147.43 20.8536 150.823 26.0054 155.352 35.0891C155.557 35.4995 155.679 35.9462 155.712 36.4038C155.744 36.8613 155.686 37.3208 155.54 37.7559C155.308 38.4484 154.864 39.0507 154.272 39.4778C153.68 39.905 152.968 40.1356 152.238 40.1371L152.231 40.1566ZM126.278 18.8292C129.956 18.8292 133.908 19.3159 136.257 20.9639C141.966 24.9608 144.951 28.75 149.564 38.0154C149.814 38.5136 150.198 38.9324 150.672 39.2246C151.147 39.5169 151.693 39.6711 152.251 39.6699C152.715 39.672 153.173 39.563 153.587 39.352C153.94 39.1762 154.254 38.9326 154.512 38.6352C154.771 38.3379 154.968 37.9925 155.092 37.6189C155.217 37.2453 155.267 36.8508 155.239 36.4579C155.211 36.065 155.106 35.6815 154.93 35.3292C150.44 26.3493 147.014 21.1715 139.689 16.0457C132.364 10.9199 118.816 13.3206 117.298 13.6061C116.517 13.7571 115.827 14.211 115.38 14.8687C114.932 15.5264 114.763 16.3345 114.91 17.1163C115.059 17.8981 115.513 18.5887 116.171 19.0364C116.829 19.4841 117.638 19.6523 118.42 19.504C121 19.0586 123.614 18.8329 126.232 18.8292H126.278Z" fill="black"/>
<path d="M137.91 83.6807C137.348 85.7389 136.126 87.5555 134.43 88.8509C132.735 90.1464 130.661 90.8489 128.528 90.8504C127.669 90.8491 126.814 90.7357 125.984 90.513L125.335 90.3638C124.823 90.2534 124.181 90.1302 123.512 90.0004L122.169 89.7409L121.52 89.6111C121.057 89.5203 120.577 89.4164 120.08 89.2997L119.431 89.1504C119.009 89.0531 118.568 88.9493 118.133 88.8325L117.608 88.6897H117.543L116.991 88.5405C115.882 88.2291 114.707 87.8917 113.488 87.418L112.923 87.2104L112.806 87.165C112.618 87.0936 112.424 87.0222 112.229 86.9379C111.1 86.5053 109.936 85.9949 108.738 85.4066L108.187 85.1276L108.018 85.0433L107.512 84.7772L106.993 84.4982C106.013 83.9662 105.079 83.4277 104.183 82.8956L103.684 82.5972L102.977 82.1624L102.483 81.8445C101.361 81.1373 100.31 80.4171 99.3171 79.6904L98.8694 79.3594L98.3827 78.9831C97.3878 78.2261 96.4578 77.4475 95.5927 76.6473L95.2359 76.3164C94.9309 76.0244 94.626 75.7324 94.334 75.4405L93.9966 75.0901C93.1167 74.1955 92.2891 73.251 91.518 72.2612C91.4466 72.1703 91.3753 72.0795 91.3169 71.9886C90.4893 70.9171 89.7266 69.7969 89.033 68.6341C87.9554 66.8704 87.4672 64.8095 87.6392 62.7498C87.8113 60.6901 88.6345 58.7387 89.9898 57.1782C91.345 55.6177 93.1619 54.5291 95.1771 54.0702C97.1924 53.6113 99.3014 53.8059 101.199 54.6257C102.551 55.1885 103.755 56.0569 104.715 57.1627C104.871 57.3312 105.016 57.5089 105.15 57.6947C105.366 57.9748 105.565 58.2673 105.747 58.5707C106.315 59.5291 106.985 60.4232 107.745 61.2374C108.089 61.6137 108.479 61.99 108.907 62.3793C109.9 63.2682 110.959 64.0815 112.073 64.8125L112.385 65.0201C113.358 65.669 114.467 66.3178 115.739 67.038L116.336 67.3624L116.518 67.4597C117.737 68.1167 119.006 68.6764 120.313 69.1338C120.67 69.2635 121.021 69.3803 121.365 69.4906C122.61 69.8799 123.811 70.1719 124.966 70.4185L125.932 70.6131L127.198 70.8597C128.093 71.0284 128.95 71.1971 129.793 71.3917C130.241 71.4825 130.675 71.5929 131.091 71.7096C132.325 72.0468 133.481 72.6241 134.492 73.4085C135.503 74.1929 136.35 75.169 136.983 76.2809C137.616 77.3929 138.024 78.6188 138.183 79.8885C138.342 81.1583 138.25 82.4469 137.91 83.6807Z" fill="black"/>
<path d="M128.555 91.1748C127.679 91.1755 126.807 91.0621 125.96 90.8374H125.888C125.726 90.792 125.519 90.7401 125.285 90.6946C124.818 90.5908 124.247 90.4805 123.643 90.3637L123.468 90.3313L122.664 90.1756L122.125 90.0718L121.58 89.9615H121.476C121.016 89.8706 120.529 89.7668 120.029 89.6435L119.504 89.5267H119.381C118.952 89.4294 118.511 89.3256 118.083 89.2088L117.551 89.0661L117.058 88.9298H116.941C115.734 88.5924 114.553 88.2096 113.411 87.8008L112.892 87.6062L112.626 87.5088C112.464 87.444 112.302 87.3856 112.133 87.3077C111.037 86.886 109.882 86.3799 108.629 85.7764L108.208 85.5558L108.078 85.491L107.987 85.4455L107.922 85.4131C107.734 85.3223 107.565 85.2314 107.397 85.1406L107.202 85.0368L106.871 84.8551C105.989 84.3814 105.067 83.8559 104.055 83.2525L103.659 83.0189L103.549 82.954L102.842 82.5128C102.667 82.409 102.504 82.2987 102.336 82.1884C101.278 81.5395 100.201 80.7934 99.1628 80.0277L98.8643 79.8071L98.7086 79.6968L98.2155 79.314C97.2358 78.5614 96.269 77.7698 95.406 76.9652L95.0492 76.6278C94.7118 76.3099 94.4003 76.0244 94.1408 75.7454C94.0175 75.6286 93.9072 75.5053 93.7969 75.3885C92.9062 74.4893 92.072 73.5358 91.2989 72.5337C91.2197 72.4407 91.1461 72.3432 91.0783 72.2417C90.2487 71.1656 89.4839 70.0411 88.7879 68.8742C87.695 67.0544 87.2064 64.9353 87.392 62.8207C87.5777 60.706 88.4282 58.7045 89.8215 57.103C91.2148 55.5015 93.0794 54.3823 95.148 53.9058C97.2165 53.4293 99.3829 53.62 101.336 54.4505C102.73 55.0263 103.973 55.9142 104.97 57.0459C105.126 57.2146 105.275 57.4027 105.424 57.5974C105.644 57.8867 105.847 58.1878 106.034 58.4993C106.586 59.4328 107.239 60.3031 107.981 61.0946C108.292 61.432 108.629 61.7889 109.122 62.2171C110.102 63.0958 111.148 63.8984 112.25 64.6178L112.555 64.8255C113.541 65.4743 114.631 66.1231 115.896 66.8304L116.487 67.1548L116.675 67.2521C117.878 67.9001 119.13 68.4533 120.419 68.9066L121.457 69.257C122.547 69.5944 123.682 69.9059 125.032 70.1784L126.291 70.4314L127.251 70.6196C128.082 70.7753 128.977 70.944 129.846 71.1516C130.294 71.2425 130.735 71.3528 131.144 71.4696C133.71 72.1754 135.892 73.8683 137.214 76.1784C138.536 78.4884 138.889 81.2277 138.197 83.7975C137.61 85.9081 136.352 87.77 134.612 89.1012C132.872 90.4324 130.746 91.1603 128.555 91.1748ZM126.096 90.195C127.286 90.5195 128.529 90.6062 129.753 90.4501C130.977 90.294 132.158 89.8982 133.229 89.2854C134.299 88.6725 135.239 87.8547 135.994 86.8785C136.748 85.9023 137.303 84.787 137.626 83.5963C138.28 81.189 137.953 78.6205 136.716 76.4542C135.479 74.2879 133.433 72.7006 131.027 72.0405C130.599 71.9237 130.171 71.8134 129.73 71.7291C128.847 71.5215 127.965 71.3528 127.134 71.197L126.161 71.0089L124.896 70.7558C123.527 70.4639 122.372 70.1654 121.262 69.815C120.912 69.7047 120.562 69.5879 120.198 69.4582C118.875 68.995 117.591 68.4287 116.357 67.7647L116.175 67.6674L115.585 67.3429C114.287 66.6227 113.197 65.9609 112.204 65.3121L111.887 65.098C110.761 64.3591 109.691 63.5371 108.688 62.6389C108.201 62.1977 107.825 61.8278 107.5 61.471C106.726 60.6405 106.043 59.7291 105.463 58.7523C105.288 58.4608 105.098 58.1792 104.892 57.9088C104.762 57.7318 104.621 57.5628 104.47 57.4027C103.542 56.3316 102.378 55.4899 101.07 54.9436C99.2426 54.1662 97.2156 53.9876 95.28 54.4335C93.3445 54.8793 91.5999 55.9267 90.2964 57.4254C88.993 58.9242 88.1977 60.7972 88.0246 62.7759C87.8515 64.7545 88.3095 66.7372 89.3329 68.4395C90.0174 69.5932 90.7737 70.7027 91.5973 71.7615C91.6622 71.8589 91.7206 71.9367 91.779 72.0146C92.5491 73.0013 93.3744 73.9436 94.2511 74.837L94.582 75.1809C94.861 75.4599 95.153 75.7389 95.4449 76.0179L95.8343 76.3813C96.7037 77.1793 97.6315 77.9579 98.5983 78.6976L99.0849 79.0739L99.2407 79.1842L99.5261 79.3984C100.564 80.1575 101.622 80.8777 102.68 81.5395C102.848 81.6563 103.004 81.7601 103.166 81.8575L103.88 82.2922L103.984 82.3571L104.366 82.5842C105.379 83.1876 106.313 83.7066 107.169 84.1868L107.494 84.362L107.689 84.4658L108.188 84.7253L108.279 84.7708L108.48 84.8746L108.915 85.0952C110.135 85.6856 111.27 86.1852 112.367 86.607L112.84 86.7951L112.944 86.8341H113.016V87.1715L113.132 86.873L113.638 87.0547C114.767 87.4634 115.942 87.8398 117.129 88.1772L117.246 88.2096L117.668 88.3199V88.6573L117.759 88.3458L118.278 88.4821C118.712 88.5989 119.154 88.7027 119.575 88.8H119.705L120.224 88.9168C120.724 89.0336 121.197 89.1374 121.658 89.2283H121.762L122.294 89.3386L122.832 89.4424L123.637 89.663H123.812C124.422 89.7798 124.993 89.8901 125.467 89.9939C125.694 90.0393 125.895 90.0912 126.064 90.1366L126.096 90.195Z" fill="black"/>
<path d="M114.273 36.7502H112.605L113.793 35.5628C113.838 35.5172 113.864 35.4554 113.864 35.3909C113.864 35.3264 113.838 35.2645 113.793 35.2189C113.747 35.1733 113.685 35.1477 113.621 35.1477C113.556 35.1477 113.494 35.1733 113.449 35.2189L112.261 36.4063V34.7258C112.261 34.6604 112.235 34.5977 112.189 34.5515C112.143 34.5052 112.08 34.4792 112.015 34.4792C111.983 34.4792 111.951 34.4857 111.921 34.4981C111.892 34.5106 111.865 34.5289 111.843 34.5518C111.82 34.5748 111.803 34.6021 111.791 34.6319C111.779 34.6618 111.774 34.6937 111.775 34.7258V36.4063L110.581 35.2189C110.558 35.196 110.532 35.1777 110.502 35.1653C110.473 35.1528 110.441 35.1464 110.409 35.1464C110.377 35.1464 110.345 35.1528 110.316 35.1653C110.286 35.1777 110.259 35.196 110.237 35.2189C110.194 35.2657 110.17 35.3271 110.17 35.3909C110.17 35.4546 110.194 35.516 110.237 35.5628L111.431 36.7502H109.744C109.686 36.7596 109.634 36.7893 109.596 36.8339C109.558 36.8784 109.537 36.935 109.537 36.9935C109.537 37.052 109.558 37.1086 109.596 37.1531C109.634 37.1977 109.686 37.2274 109.744 37.2368H111.431L110.224 38.4047C110.191 38.4395 110.169 38.483 110.161 38.53C110.153 38.5769 110.158 38.6253 110.177 38.6693C110.195 38.7133 110.226 38.7509 110.265 38.7776C110.305 38.8044 110.351 38.8191 110.399 38.82C110.462 38.8187 110.523 38.7932 110.568 38.7486L111.762 37.5547V39.2417C111.762 39.3054 111.787 39.3665 111.832 39.4115C111.877 39.4565 111.938 39.4818 112.002 39.4818C112.066 39.4818 112.128 39.4567 112.174 39.4119C112.22 39.367 112.247 39.306 112.248 39.2417V37.5547L113.436 38.7486C113.483 38.7942 113.545 38.8197 113.611 38.82C113.674 38.8187 113.735 38.7932 113.78 38.7486C113.803 38.7262 113.821 38.6995 113.833 38.67C113.846 38.6404 113.852 38.6087 113.852 38.5767C113.852 38.5446 113.846 38.5129 113.833 38.4834C113.821 38.4538 113.803 38.4271 113.78 38.4047L112.605 37.2368H114.286C114.321 37.2426 114.357 37.2406 114.392 37.2311C114.426 37.2215 114.458 37.2046 114.485 37.1814C114.512 37.1583 114.534 37.1295 114.549 37.097C114.564 37.0646 114.572 37.0292 114.572 36.9935C114.572 36.9577 114.564 36.9224 114.549 36.89C114.534 36.8575 114.512 36.8287 114.485 36.8056C114.458 36.7824 114.426 36.7655 114.392 36.7559C114.357 36.7464 114.321 36.7444 114.286 36.7502H114.273Z" fill="black"/>
<path d="M138.281 49.0782H136.613L137.8 47.8908C137.846 47.8452 137.872 47.7834 137.872 47.7189C137.872 47.6544 137.846 47.5925 137.8 47.5469C137.755 47.5013 137.693 47.4757 137.628 47.4757C137.564 47.4757 137.502 47.5013 137.456 47.5469L136.269 48.7343V47.0538C136.269 46.9884 136.243 46.9257 136.197 46.8795C136.151 46.8332 136.088 46.8073 136.023 46.8073C135.99 46.8072 135.959 46.8137 135.929 46.8261C135.9 46.8386 135.873 46.8569 135.85 46.8798C135.828 46.9028 135.811 46.9301 135.799 46.9599C135.787 46.9898 135.782 47.0217 135.782 47.0538V48.7343L134.589 47.5469C134.566 47.524 134.54 47.5057 134.51 47.4933C134.48 47.4808 134.449 47.4744 134.417 47.4744C134.385 47.4744 134.353 47.4808 134.323 47.4933C134.294 47.5057 134.267 47.524 134.245 47.5469C134.201 47.5937 134.177 47.6551 134.177 47.7189C134.177 47.7826 134.201 47.844 134.245 47.8908L135.439 49.0782H133.752C133.694 49.0876 133.641 49.1173 133.604 49.1619C133.566 49.2064 133.545 49.263 133.545 49.3215C133.545 49.38 133.566 49.4366 133.604 49.4811C133.641 49.5257 133.694 49.5554 133.752 49.5648H135.439L134.232 50.7327C134.199 50.7675 134.177 50.811 134.169 50.858C134.16 50.9049 134.166 50.9533 134.184 50.9973C134.203 51.0413 134.234 51.0789 134.273 51.1056C134.313 51.1324 134.359 51.1471 134.407 51.148C134.47 51.1467 134.531 51.1212 134.576 51.0766L135.77 49.8827V51.5697C135.77 51.6334 135.795 51.6945 135.84 51.7395C135.885 51.7845 135.946 51.8098 136.01 51.8098C136.074 51.8098 136.136 51.7847 136.182 51.7399C136.228 51.695 136.254 51.634 136.256 51.5697V49.8827L137.443 51.0766C137.49 51.1222 137.553 51.1477 137.619 51.148C137.682 51.1467 137.742 51.1212 137.787 51.0766C137.81 51.0542 137.829 51.0275 137.841 50.998C137.853 50.9684 137.86 50.9367 137.86 50.9047C137.86 50.8726 137.853 50.8409 137.841 50.8114C137.829 50.7818 137.81 50.7551 137.787 50.7327L136.613 49.5648H138.293C138.329 49.5706 138.365 49.5686 138.399 49.5591C138.434 49.5495 138.466 49.5326 138.493 49.5094C138.52 49.4863 138.542 49.4575 138.557 49.425C138.572 49.3926 138.58 49.3573 138.58 49.3215C138.58 49.2857 138.572 49.2504 138.557 49.218C138.542 49.1855 138.52 49.1567 138.493 49.1336C138.466 49.1104 138.434 49.0935 138.399 49.0839C138.365 49.0744 138.329 49.0724 138.293 49.0782H138.281Z" fill="black"/>
<path d="M97.916 78.9571C97.0361 78.0626 96.2086 77.118 95.4375 76.1282C95.3661 76.0374 95.2947 75.9465 95.2363 75.8557C96.8584 74.9343 98.3767 74.7332 98.9736 75.4599C99.5706 76.1866 99.0904 77.5816 97.916 78.9571Z" fill="white"/>
<path d="M97.9291 79.3141L97.741 79.1259C96.8574 78.2242 96.0255 77.2732 95.2494 76.2775C95.1701 76.1863 95.0985 76.0886 95.0353 75.9855L94.8926 75.7714L95.1197 75.6416C96.9104 74.623 98.4936 74.4932 99.1619 75.3043C99.8302 76.1153 99.3955 77.5947 98.1043 79.1129L97.9291 79.3141ZM95.5998 75.9336C96.3147 76.8549 97.0793 77.7365 97.8902 78.5744C98.8635 77.3546 99.2268 76.1477 98.7726 75.5897C98.3184 75.0317 97.0337 75.181 95.5998 75.9336Z" fill="black"/>
<path d="M104.067 57.1821C102.282 58.7653 100.336 59.4076 99.5247 58.6225C98.7136 57.8374 99.2716 56.2672 100.524 54.6451C101.886 55.2044 103.099 56.073 104.067 57.1821Z" fill="white"/>
<path d="M100.492 59.1676C100.289 59.178 100.087 59.1478 99.8963 59.0787C99.7057 59.0096 99.5309 58.9031 99.3822 58.7653C98.5906 57.9803 98.9799 56.2478 100.355 54.47L100.472 54.3208L100.647 54.3922C102.031 54.9694 103.263 55.8574 104.248 56.9875L104.411 57.1692L104.229 57.3314C102.873 58.5188 101.51 59.1676 100.492 59.1676ZM100.628 54.9177C99.5379 56.3971 99.1551 57.8505 99.7261 58.4215C100.297 58.9924 102.101 58.4993 103.723 57.1238C102.853 56.1907 101.799 55.4483 100.628 54.9437V54.9177Z" fill="black"/>
<path d="M107.098 61.2569C105.372 62.7038 103.548 63.2683 102.796 62.5156C102.043 61.763 102.731 59.5699 104.502 57.7142C104.718 57.9943 104.917 58.2868 105.099 58.5902C105.667 59.5486 106.337 60.4427 107.098 61.2569Z" fill="white"/>
<path d="M103.736 63.0606C103.533 63.071 103.331 63.0408 103.14 62.9717C102.95 62.9026 102.775 62.796 102.626 62.6583C101.692 61.724 102.419 59.5115 104.326 57.5195L104.521 57.3119L104.696 57.539C104.917 57.8251 105.121 58.1241 105.306 58.4344C105.856 59.3796 106.509 60.2609 107.252 61.0622L107.421 61.2503L107.227 61.4126C106.274 62.3285 105.048 62.9074 103.736 63.0606ZM104.482 58.0645C102.957 59.7515 102.276 61.6267 102.97 62.3144C103.664 63.0022 105.176 62.4507 106.746 61.2049C106.045 60.4302 105.423 59.5867 104.891 58.6874C104.77 58.4971 104.633 58.2981 104.482 58.0905V58.0645Z" fill="black"/>
<path d="M111.425 64.8319C110.311 64.1051 109.253 63.2961 108.259 62.4117C108.146 62.5069 108.036 62.6107 107.928 62.7232C106.027 64.6243 105.183 66.8628 106.04 67.7192C106.896 68.5757 108.765 67.862 110.543 66.2853C110.707 66.1512 110.869 66.002 111.029 65.8376C111.277 65.591 111.511 65.3311 111.73 65.059L111.425 64.8319Z" fill="white"/>
<path d="M106.981 68.2514C106.779 68.2618 106.576 68.2315 106.386 68.1625C106.195 68.0934 106.02 67.9868 105.871 67.8491C104.898 66.8823 105.729 64.54 107.76 62.5092C107.87 62.3989 107.987 62.2886 108.097 62.1912L108.266 62.042L108.421 62.1912C109.406 63.0721 110.455 63.8768 111.562 64.5984L112.094 64.9553L111.925 65.1629C111.702 65.4416 111.464 65.7081 111.211 65.961C111.051 66.1233 110.882 66.2771 110.705 66.4217C109.362 67.6025 108 68.2514 106.981 68.2514ZM108.279 62.6973L108.123 62.853C106.176 64.7996 105.566 66.8369 106.235 67.5052C106.903 68.1735 108.733 67.5442 110.4 66.0648C110.569 65.9221 110.725 65.7728 110.887 65.6171C111.049 65.4614 111.237 65.2473 111.4 65.0656L111.309 65.0072C110.241 64.3173 109.222 63.5542 108.259 62.7233L108.279 62.6973Z" fill="black"/>
<path d="M115.246 67.0704C114.043 66.4934 112.885 65.8276 111.781 65.0785C111.684 65.1888 111.593 65.3056 111.496 65.4289C109.861 67.57 109.322 69.8994 110.289 70.6196C111.256 71.3398 113.007 70.399 114.558 68.6017C114.701 68.446 114.844 68.2773 114.98 68.0956C115.194 67.8181 115.391 67.5278 115.57 67.2261L115.246 67.0704Z" fill="white"/>
<path d="M111.011 71.0997C110.699 71.1073 110.393 71.0115 110.141 70.8272C109.596 70.4055 109.434 69.5815 109.681 68.5044C109.992 67.3227 110.544 66.2181 111.303 65.2602C111.4 65.1304 111.497 65.0071 111.601 64.8904L111.744 64.7281L111.919 64.8514C113.014 65.584 114.161 66.2346 115.351 66.7979L115.929 67.0834L115.793 67.3105C115.614 67.635 115.417 67.9491 115.202 68.2513C115.059 68.4395 114.91 68.6147 114.768 68.7769C113.476 70.2433 112.055 71.0997 111.011 71.0997ZM111.828 65.4029L111.692 65.5781C110.975 66.4731 110.451 67.5071 110.154 68.6147C109.953 69.4841 110.057 70.1524 110.433 70.4379C111.186 71.0154 112.918 70.146 114.378 68.459C114.527 68.2903 114.664 68.1281 114.793 67.9529C114.923 67.7777 115.098 67.5376 115.228 67.3365L115.137 67.2911C113.992 66.7391 112.886 66.1082 111.828 65.4029Z" fill="black"/>
<path d="M119.666 69.1532C118.433 70.7363 116.993 71.5669 116.13 71.0997C115.267 70.6325 115.28 69.1921 115.87 67.5051C117.09 68.1532 118.36 68.7042 119.666 69.1532Z" fill="white"/>
<path d="M116.701 71.4566C116.459 71.4632 116.221 71.4025 116.013 71.2814C115.124 70.7753 114.981 69.2829 115.643 67.3883L115.734 67.1223L115.987 67.2586C117.193 67.9061 118.449 68.4551 119.744 68.9001L120.062 69.0169L119.854 69.2829C118.783 70.6844 117.615 71.4566 116.701 71.4566ZM116.013 67.8296C115.546 69.3089 115.636 70.5093 116.253 70.8596C116.869 71.21 118.141 70.5936 119.263 69.2635C118.15 68.8569 117.064 68.3779 116.013 67.8296Z" fill="black"/>
<path d="M124.318 70.4379C123.222 71.5993 122.06 72.1509 121.32 71.7356C120.756 71.4112 120.568 70.5807 120.717 69.5231C121.963 69.8994 123.163 70.1979 124.318 70.4379Z" fill="white"/>
<path d="M121.891 72.1444C121.647 72.1482 121.407 72.0854 121.196 71.9627C120.547 71.5994 120.307 70.7234 120.476 69.5036L120.515 69.2246L120.787 69.309C121.884 69.6464 123.019 69.9578 124.369 70.2303L124.791 70.3211L124.492 70.6326C123.571 71.5864 122.643 72.1444 121.891 72.1444ZM120.924 69.8605C120.852 70.704 121.041 71.3074 121.443 71.541C121.981 71.8524 122.896 71.4891 123.831 70.6131C122.766 70.3406 121.826 70.1005 120.924 69.828V69.8605Z" fill="black"/>
<path d="M129.145 71.4112C127.977 72.7932 126.666 73.481 125.861 73.0203C125.271 72.6829 125.089 71.7745 125.284 70.6326L126.549 70.8791C127.445 71.0478 128.301 71.2165 129.145 71.4112Z" fill="white"/>
<path d="M126.419 73.4031C126.191 73.4027 125.967 73.3423 125.77 73.2279C125.121 72.8516 124.849 71.8848 125.07 70.5871L125.115 70.3406L125.653 70.4509L126.62 70.639C127.451 70.7948 128.34 70.9699 129.216 71.1711L129.598 71.2619L129.345 71.5669C128.333 72.7413 127.269 73.4031 126.419 73.4031ZM125.485 70.918C125.368 71.8653 125.55 72.5596 125.984 72.8062C126.601 73.1565 127.658 72.6569 128.69 71.5539C127.944 71.3917 127.204 71.249 126.503 71.1127L125.537 70.931L125.485 70.918Z" fill="black"/>
<path d="M98.4086 78.9571C97.4137 78.2002 96.4837 77.4215 95.6186 76.6213L95.2617 76.2904C96.3712 75.1095 97.5456 74.5515 98.2853 74.9927C99.1418 75.4664 99.1483 77.1144 98.4086 78.9571Z" fill="white"/>
<path d="M98.519 79.34L98.2595 79.1454C97.2798 78.3992 96.313 77.6076 95.4565 76.7966L95.0932 76.4657L94.918 76.297L95.0867 76.1218C96.3324 74.8241 97.5717 74.2856 98.4087 74.7592C99.369 75.3172 99.4598 76.9977 98.6358 79.048L98.519 79.34ZM95.6122 76.2775C95.6652 76.3348 95.7216 76.389 95.7809 76.4397C96.579 77.1664 97.4225 77.8801 98.2984 78.5614C98.8824 76.9393 98.837 75.5703 98.1622 75.181C97.5912 74.8565 96.605 75.2848 95.6122 76.2775Z" fill="black"/>
<path d="M102.511 81.8186C101.388 81.1113 100.337 80.3911 99.3442 79.6644L98.8965 79.3335C100.097 77.387 101.674 76.3164 102.634 76.8095C103.594 77.3027 103.594 79.5412 102.511 81.8186Z" fill="white"/>
<path d="M102.615 82.1689L102.381 82.0197C101.31 81.3709 100.246 80.6182 99.2016 79.8591L98.9032 79.6385L98.5723 79.3919L98.6891 79.2037C99.9867 77.1145 101.674 76.0374 102.744 76.6084C103.815 77.1794 103.893 79.5022 102.744 81.9418L102.615 82.1689ZM99.2276 79.2816L99.4871 79.4698C100.447 80.1705 101.434 80.8453 102.407 81.4682C103.309 79.4308 103.374 77.4713 102.524 77.0301C101.674 76.5889 100.344 77.5816 99.2276 79.2816Z" fill="black"/>
<path d="M107.545 84.7383L107.026 84.4593C106.046 83.9273 105.112 83.3887 104.216 82.8567L103.717 82.5582C104.95 80.2549 106.773 78.8469 107.83 79.3919C108.888 79.9369 108.778 82.3506 107.545 84.7383Z" fill="white"/>
<path d="M107.786 85.16L107.234 84.8616L106.903 84.6799C106.021 84.2063 105.1 83.6807 104.087 83.0773L103.692 82.8437L103.387 82.6555L103.497 82.4544C104.827 79.9693 106.741 78.5614 107.935 79.2102C109.129 79.859 109.077 82.2922 107.792 84.8227L107.786 85.16ZM104.036 82.4803L104.334 82.6555C105.346 83.259 106.281 83.778 107.137 84.2582L107.435 84.4204C108.597 82.0521 108.532 80.0407 107.714 79.619C106.897 79.1972 105.178 80.4625 104.036 82.4803Z" fill="black"/>
<path d="M112.255 86.9119C111.126 86.4793 109.963 85.9689 108.764 85.3806L108.213 85.1016C108.998 82.8566 110.386 81.3383 111.457 81.6433C112.528 81.9482 112.975 84.336 112.255 86.9119Z" fill="white"/>
<path d="M112.417 87.2298L112.17 87.139C111.054 86.7107 109.906 86.2046 108.66 85.5947L108.232 85.3806L107.914 85.2249L107.985 85.0173C108.835 82.5841 110.328 81.0658 111.522 81.4097C112.819 81.7796 113.261 84.2257 112.488 86.9768L112.417 87.2298ZM108.524 84.9783L108.887 85.1665C110.023 85.718 111.074 86.1852 112.099 86.581C112.677 84.2776 112.378 82.1494 111.398 81.8769C110.516 81.6238 109.264 82.9734 108.517 84.9783H108.524Z" fill="black"/>
<path d="M125.363 90.3572C125.421 87.2752 125.278 81.0918 123.358 79.1712C120.762 76.5759 116.869 73.9805 115.572 75.9271C114.274 77.8736 119.465 78.5224 119.465 81.1178V89.1439L120.113 89.2931C120.611 89.4099 121.091 89.5137 121.554 89.6046" fill="#E01700"/>
<path d="M125.583 90.3572H125.097C125.142 87.6775 125.058 81.2735 123.15 79.327C121.119 77.2961 118.336 75.3171 116.701 75.4858C116.507 75.4967 116.319 75.5529 116.151 75.6498C115.983 75.7467 115.84 75.8817 115.734 76.0438C115.67 76.1282 115.623 76.2244 115.597 76.3268C115.57 76.4292 115.564 76.5359 115.578 76.6408C115.682 77.1339 116.415 77.601 117.181 78.0942C118.349 78.8468 119.672 79.6968 119.672 81.1048V88.9492L120.127 89.053C120.626 89.1698 121.106 89.2736 121.561 89.3645L121.47 89.8446C121.003 89.7473 120.522 89.6435 120.023 89.5267C119.848 89.5267 119.672 89.4488 119.497 89.4099L119.186 89.3321V81.1178C119.186 79.9758 117.979 79.1712 116.921 78.5224C116.058 77.9644 115.247 77.4453 115.105 76.7511C115.075 76.584 115.081 76.4127 115.12 76.2476C115.159 76.0825 115.231 75.9271 115.332 75.7908C115.474 75.5706 115.665 75.386 115.89 75.251C116.115 75.1161 116.368 75.0344 116.629 75.0122C118.576 74.811 121.515 77.043 123.475 78.996C125.434 80.9491 125.674 86.9573 125.583 90.3572Z" fill="black"/>
<path d="M117.017 88.5146C115.908 88.2031 114.734 87.8657 113.514 87.3921L112.949 87.1844C113.754 85.2379 115.013 83.9402 115.999 84.2387C116.985 84.5372 117.413 86.3474 117.017 88.5146Z" fill="white"/>
<path d="M117.213 88.8195L116.954 88.7481C115.753 88.4107 114.572 88.0279 113.43 87.6191L112.911 87.4309L112.678 87.3401L112.723 87.0871C113.612 84.9264 114.955 83.6871 116.065 84.0051C117.174 84.323 117.687 86.1917 117.259 88.5469L117.213 88.8195ZM113.255 87.0676L113.573 87.1844C114.624 87.5672 115.708 87.9176 116.817 88.229C117.116 86.2825 116.746 84.7253 115.928 84.4982C115.111 84.2711 114.04 85.3157 113.255 87.0676Z" fill="black"/>
<path d="M121.554 89.6046C121.091 89.5138 120.611 89.4099 120.113 89.2932L119.464 89.1439C119.043 89.0466 118.601 88.9428 118.167 88.826L117.641 88.6833H117.576C118.076 87.3856 118.777 86.4902 119.471 86.1917C119.674 86.1013 119.9 86.072 120.12 86.1074C121.041 86.2696 121.605 87.7165 121.554 89.6046Z" fill="white"/>
<path d="M121.788 89.8966L121.509 89.8446C121.042 89.7473 120.561 89.6435 120.062 89.5267C119.887 89.5267 119.711 89.4489 119.536 89.4099L119.413 89.3775C118.985 89.2802 118.543 89.1763 118.115 89.0596L117.583 88.9168L117.35 88.8325V88.5729C117.882 87.2298 118.647 86.2696 119.374 85.9776C119.629 85.8653 119.911 85.8314 120.185 85.8802C121.23 86.0814 121.859 87.5607 121.807 89.6435L121.788 89.8966ZM117.895 88.5016L118.213 88.5859C118.654 88.7027 119.095 88.8065 119.51 88.9038H119.634L120.153 89.0206L121.301 89.2737C121.301 87.6451 120.801 86.4318 120.075 86.2955C119.897 86.2628 119.714 86.2855 119.549 86.3604C118.769 86.862 118.186 87.6187 117.901 88.5016H117.895Z" fill="black"/>
<path d="M91.5639 79.4113C91.5277 79.4114 91.492 79.4032 91.4594 79.3875C91.4268 79.3717 91.3982 79.3488 91.3757 79.3205C89.2498 76.5473 87.431 73.5516 85.9514 70.386C82.9863 63.8976 83.0706 58.7653 86.2045 55.6379C93.6791 48.1568 98.0393 50.3369 101.893 52.2639L102.056 52.3483C102.112 52.3775 102.156 52.4277 102.176 52.4882C102.197 52.5487 102.193 52.6149 102.166 52.6727C102.152 52.7023 102.132 52.7288 102.108 52.7505C102.084 52.7722 102.055 52.7888 102.024 52.7991C101.993 52.8094 101.96 52.8133 101.928 52.8106C101.895 52.8078 101.864 52.7984 101.835 52.783L101.673 52.6987C97.7798 50.7521 93.7764 48.7472 86.5484 55.9818C79.3203 63.2163 91.6288 78.8598 91.7391 79.0155C91.7597 79.0404 91.7751 79.0692 91.7843 79.1002C91.7936 79.1312 91.7965 79.1637 91.7928 79.1958C91.7892 79.2279 91.7791 79.2589 91.7632 79.2871C91.7473 79.3152 91.7258 79.3398 91.7001 79.3594C91.6625 79.3926 91.6141 79.4111 91.5639 79.4113Z" fill="black"/>
<path d="M127.581 95.3273C123.929 95.2616 120.302 94.7073 116.797 93.6793C116.736 93.6598 116.684 93.617 116.654 93.5599C116.624 93.5029 116.617 93.4363 116.635 93.3743C116.655 93.3127 116.697 93.2612 116.754 93.2309C116.811 93.2006 116.878 93.1938 116.94 93.2121C117.057 93.2445 128.703 96.8002 135.289 93.2121C136.277 92.6952 137.148 91.9792 137.846 91.1093C138.544 90.2394 139.054 89.2344 139.344 88.1576C141.94 79.0739 137.333 72.0989 133.602 69.6139C133.576 69.5962 133.553 69.5734 133.535 69.5468C133.517 69.5202 133.505 69.4903 133.499 69.4588C133.493 69.4274 133.493 69.3951 133.5 69.3637C133.506 69.3324 133.519 69.3027 133.537 69.2765C133.573 69.2228 133.628 69.1853 133.691 69.172C133.755 69.1586 133.82 69.1705 133.875 69.2051C137.722 71.8004 142.478 78.9701 139.812 88.2939C139.505 89.433 138.965 90.4962 138.227 91.4163C137.489 92.3365 136.568 93.0938 135.523 93.6403C133.213 94.9121 130.358 95.3273 127.581 95.3273Z" fill="black"/>
<path d="M111.561 63.2877C111.189 63.2963 110.82 63.2282 110.476 63.0875C110.132 62.9468 109.821 62.7367 109.562 62.4702C106.188 59.1027 113.773 50.7911 114.104 50.4537C114.15 50.4178 114.208 50.3994 114.266 50.402C114.325 50.4045 114.38 50.4277 114.423 50.4675C114.466 50.5073 114.493 50.561 114.5 50.6191C114.507 50.6772 114.493 50.7359 114.461 50.7846C114.383 50.869 106.87 59.0832 109.919 62.1263C110.15 62.3577 110.429 62.5357 110.736 62.6478C111.043 62.7599 111.371 62.8034 111.697 62.7751C115.077 62.6389 119.892 56.9875 119.944 56.9356C119.988 56.897 120.045 56.8757 120.105 56.8756C120.164 56.8755 120.221 56.8967 120.266 56.9352C120.31 56.9737 120.34 57.027 120.349 57.0855C120.357 57.1439 120.345 57.2035 120.313 57.2535C120.106 57.4936 115.304 63.0931 111.716 63.2683L111.561 63.2877Z" fill="black"/>
<path d="M107.136 52.809H107.091C106.954 52.809 103.749 52.1277 101.777 50.1488C99.8041 48.1698 99.1358 43.7123 99.1099 43.5241C99.1053 43.4926 99.1071 43.4604 99.1151 43.4295C99.1231 43.3987 99.1372 43.3697 99.1565 43.3443C99.1759 43.3189 99.2 43.2977 99.2277 43.2818C99.2553 43.2659 99.2859 43.2556 99.3175 43.2516C99.3803 43.2423 99.4442 43.2582 99.4953 43.2959C99.5463 43.3336 99.5804 43.39 99.59 43.4528C99.59 43.4982 100.239 47.9427 102.12 49.8049C104.002 51.6671 107.155 52.3289 107.181 52.3354C107.245 52.3414 107.304 52.3724 107.345 52.4217C107.385 52.471 107.405 52.5345 107.399 52.5981C107.393 52.6618 107.362 52.7205 107.312 52.7612C107.263 52.802 107.2 52.8215 107.136 52.8155V52.809Z" fill="black"/>
<path d="M135.64 66.4929C131.858 66.4929 127.893 62.016 127.718 61.8083C127.676 61.7602 127.654 61.6972 127.659 61.6333C127.663 61.5694 127.692 61.5098 127.741 61.4677C127.789 61.4255 127.852 61.4042 127.916 61.4085C127.98 61.4128 128.039 61.4422 128.081 61.4904C128.127 61.5423 132.578 66.5708 136.296 65.9544C138.714 65.5327 141.087 64.8809 143.381 64.0079C143.411 63.9953 143.443 63.9889 143.475 63.989C143.507 63.9891 143.539 63.9957 143.569 64.0084C143.599 64.0211 143.625 64.0397 143.648 64.063C143.67 64.0863 143.687 64.1139 143.699 64.1441C143.722 64.2044 143.721 64.2715 143.696 64.331C143.67 64.3905 143.622 64.4376 143.563 64.4621C141.231 65.3314 138.825 65.9831 136.373 66.4086C136.132 66.4563 135.887 66.4845 135.64 66.4929Z" fill="black"/>
<path d="M4.23996 212.824C5.99426 212.459 7.003 210.173 6.49304 207.717C5.98308 205.261 4.14754 203.565 2.39324 203.93C0.638938 204.294 -0.3698 206.58 0.140159 209.036C0.650118 211.492 2.48566 213.188 4.23996 212.824Z" fill="#87F54E"/>
<path d="M62.9009 134.559C63.583 132.145 62.7383 129.793 61.0141 129.306C59.2899 128.819 57.3392 130.38 56.657 132.794C55.9749 135.208 56.8196 137.56 58.5438 138.047C60.268 138.535 62.2187 136.973 62.9009 134.559Z" fill="black"/>
<path d="M63.5434 134.557C64.2256 132.143 63.3808 129.792 61.6567 129.304C59.9325 128.817 57.9817 130.379 57.2996 132.793C56.6174 135.207 57.4622 137.558 59.1864 138.046C60.9106 138.533 62.8613 136.971 63.5434 134.557Z" fill="#87F54E"/>
<path d="M138.697 112.768C140.402 110.911 140.71 108.419 139.384 107.201C138.058 105.982 135.601 106.499 133.895 108.356C132.189 110.212 131.881 112.704 133.207 113.923C134.533 115.141 136.991 114.624 138.697 112.768Z" fill="black"/>
<path d="M136.811 113.019C138.51 111.174 138.819 108.694 137.501 107.48C136.183 106.267 133.737 106.778 132.038 108.624C130.338 110.469 130.029 112.949 131.347 114.162C132.665 115.376 135.111 114.864 136.811 113.019Z" fill="#87F54E"/>
<path d="M75.3347 206.907C77.5992 205.828 78.81 203.642 78.0392 202.025C77.2684 200.407 74.8079 199.971 72.5435 201.05C70.279 202.129 69.0682 204.315 69.839 205.932C70.6098 207.55 73.0703 207.986 75.3347 206.907Z" fill="black"/>
<path d="M74.907 206.425C77.1714 205.346 78.3823 203.16 77.6115 201.542C76.8407 199.925 74.3802 199.488 72.1157 200.568C69.8513 201.647 68.6405 203.833 69.4113 205.45C70.1821 207.068 72.6426 207.504 74.907 206.425Z" fill="#87F54E"/>
<path d="M127.276 164.699C128.776 162.689 128.828 160.19 127.392 159.119C125.956 158.047 123.576 158.808 122.076 160.819C120.575 162.829 120.523 165.327 121.959 166.399C123.395 167.47 125.776 166.709 127.276 164.699Z" fill="#87F54E"/>
</g>
<defs>
<clipPath id="clip0_99_1013">
<rect width="168.14" height="238.351" fill="white"/>
</clipPath>
</defs>
</svg>
