<svg width="375" height="135" viewBox="0 0 375 135" fill="none" xmlns="http://www.w3.org/2000/svg">
<g filter="url(#filter0_d_205_60)">
<mask id="path-1-inside-1_205_60" fill="white">
<path d="M255.027 105.377C255.17 103.496 254.651 101.843 253.623 100.278C252.575 98.6863 252.052 96.9664 252.841 95.0686L252.966 94.6368C253.43 92.9269 253.217 91.3478 251.958 90.0367C251.013 89.0503 250.754 87.918 251.03 86.6158C251.396 84.9048 251.275 83.3178 250.249 81.7838C249.358 80.4526 249.205 78.9825 249.912 77.4075C250.509 76.0853 250.899 74.6581 251.277 73.251C251.572 72.1547 251.575 70.9934 251.162 69.9271C250.828 69.0566 250.915 68.2671 251.122 67.4106C251.343 66.5072 251.466 65.5738 251.586 64.6503C251.679 63.9398 251.444 63.3101 250.915 62.8224C250.22 62.1828 249.979 61.3873 250.094 60.4799C250.234 59.4395 250.434 58.4102 249.892 57.4088C249.795 57.2339 249.852 56.9661 249.867 56.7422C250.002 54.9343 249.546 53.2524 248.839 51.6144C248.434 50.6709 248.263 49.6776 248.368 48.6502C248.575 46.6574 248.449 44.6687 248.104 42.7159C247.731 40.6152 247.145 38.5564 246.704 36.4677C246.55 35.7452 246.45 34.9846 246.494 34.2531C246.586 32.761 246.764 31.2709 246.963 29.7858C247.203 27.9959 247.641 26.26 248.409 24.609C249.147 23.011 249.832 21.387 250.515 19.765C250.76 19.1794 250.971 18.5728 251.117 17.9551C251.296 17.2126 251.287 16.4631 250.839 15.7875C250.244 14.891 249.459 14.7231 248.678 15.4747C248.043 16.0943 247.442 16.8018 247.015 17.5754C246.178 19.0964 245.214 20.5056 244.053 21.7928C243.244 22.6892 242.899 23.7596 242.849 24.9808C242.757 27.3543 242.217 29.578 240.505 31.3739C240.017 31.8865 239.588 32.4632 239.195 33.0538C238.798 33.6395 238.382 34.2461 238.156 34.9067C237.619 36.4607 237.034 38.0277 236.76 39.6418C236.397 41.7914 235.835 43.8721 235.267 45.9708C234.795 47.7138 233.987 49.1459 232.77 50.4031C232 51.1996 231.46 52.143 231.123 53.1854C230.72 54.4336 230.367 55.6958 230.031 56.9641C229.879 57.5417 229.774 58.1383 229.718 58.731C229.459 61.5672 229.254 64.4095 228.967 67.2387C228.898 67.9093 228.958 68.6539 228.494 69.2635L228.296 69.0896C227.556 68.0672 227.467 66.8829 227.353 65.6747C227.089 62.8424 226.802 60.0172 226.917 57.1649C226.95 56.3035 226.917 55.44 226.943 54.5785C226.966 53.874 226.672 53.3503 226.14 52.9295C225.937 52.7706 225.728 52.6237 225.494 52.4489C225.536 51.9182 225.579 51.3975 225.619 50.8788C225.715 49.6126 225.543 48.4363 224.727 47.374C224.435 46.9982 224.309 46.4026 224.313 45.9109C224.324 44.6407 224.442 43.3675 224.544 42.0992C224.622 41.0479 224.244 40.1934 223.513 39.4709C223.326 39.29 223.083 39.1421 222.95 38.9292C222.741 38.5984 222.437 38.2156 222.458 37.8708C222.522 36.6426 222.629 35.4054 222.867 34.2021C223.054 33.2537 223.484 32.3562 223.755 31.4208C224.24 29.7299 224.749 28.0449 225.133 26.329C225.329 25.4515 224.895 24.8389 224.158 24.5061C223.454 24.1813 222.864 24.2602 222.301 25.0318C221.331 26.357 220.423 27.7371 219.6 29.1522C219.236 29.7808 219.087 30.5504 218.924 31.2759C218.654 32.4932 218.365 33.7034 217.459 34.6248C216.48 35.6222 215.944 36.8375 215.598 38.1637C215.542 38.3825 215.43 38.5884 215.301 38.9062C214.691 37.3272 214.441 37.1723 213.117 37.4901C213.069 37.2752 213.052 37.0494 212.97 36.8495C212.602 35.957 211.902 35.8181 211.243 36.5317C210.967 36.8265 210.685 37.1673 210.55 37.54C210.039 38.9472 209.525 40.3573 209.125 41.7954C208.729 43.2385 208.528 44.7346 208.143 46.1797C207.291 49.3608 206.665 52.6097 205.298 55.6389C205.132 56.0076 205.069 56.4284 204.993 56.8311C204.597 58.9988 204.657 61.1555 205.113 63.3102C205.66 65.8736 205.606 68.451 205.208 71.0284C204.953 72.6944 203.98 73.9806 202.929 75.2138C201.266 77.1616 200.54 79.4032 200.747 81.9696C200.847 83.2179 201.111 84.4051 201.612 85.5524C202.482 87.5332 202.803 89.563 202.016 91.6637C201.884 92.0134 201.788 92.3852 201.744 92.753C201.626 93.6844 201.59 94.5968 202.012 95.5073C202.251 96.028 202.358 96.6546 202.363 97.2362C202.378 99.5248 202.324 101.811 202.32 104.1C202.318 104.504 202.392 104.92 202.503 105.312C202.656 105.88 202.986 106.346 203.591 106.487C204.246 106.638 204.647 106.21 204.985 105.747C205.592 104.916 206.02 103.999 206.124 102.969C206.311 101.115 206.917 99.4009 207.638 97.7019C207.964 96.9274 208.098 96.04 208.154 95.1935C208.261 93.5345 207.897 91.9145 207.554 90.2985C207.469 89.9027 207.407 89.471 207.476 89.0793C207.818 87.1524 208.55 85.3695 210.01 84.0553C211.212 82.965 211.711 81.7348 211.504 80.1647C211.457 79.791 211.486 79.4062 211.407 79.0414C211.16 77.9111 211.307 76.8218 211.559 75.7075C211.902 74.1754 212.29 72.6344 212.417 71.0744C212.628 68.485 213.069 65.9535 213.677 63.4391C214.1 61.6941 214.108 59.9622 213.487 58.2383C212.885 56.5603 212.938 54.8604 213.521 53.1624C213.81 52.3139 213.97 51.4235 214.249 50.572C214.557 49.6276 214.77 48.6262 215.645 47.6658C215.715 48.2095 215.814 48.5613 215.798 48.903C215.737 50.0263 215.659 51.1477 215.548 52.261C215.408 53.7091 215.716 54.9493 216.995 55.7978C217.563 56.1716 217.855 56.7102 217.966 57.3728C218.078 58.0374 218.411 58.664 218.979 58.9258C220.326 59.5505 220.551 60.7108 220.676 61.97L220.709 62.3058C220.975 64.5474 221.367 66.733 222.477 68.7638C222.925 69.5823 222.986 70.6226 223.184 71.5701C223.317 72.1887 223.261 72.8723 223.497 73.4419C223.963 74.5762 223.886 75.7025 223.767 76.8698C223.524 79.3552 224.193 80.7914 226.386 81.2271C226.929 81.334 227.232 81.6658 227.282 82.2275C227.339 82.7851 227.412 83.3408 227.484 83.8984C227.671 85.3525 227.896 86.8017 228.8 88.0239C229.329 88.7375 230.004 89.1492 230.929 88.9343C231.693 88.7555 232.322 87.9749 232.407 87.0245C232.487 86.1651 232.556 85.2966 232.507 84.4401C232.373 82.1045 233.056 80.0088 234.164 77.9951C234.48 77.4204 234.73 76.7579 234.819 76.1083C234.98 74.925 235.036 73.7217 235.071 72.5245C235.135 70.3638 235.524 68.343 237.255 66.834L237.48 66.5831C239.036 64.4444 239.917 62.1339 239.37 59.4315C238.954 57.3558 239.313 55.3331 239.863 53.3333C239.97 52.9415 240.13 52.5638 240.269 52.179C240.458 52.6397 240.458 53.0515 240.458 53.4632C240.46 54.7344 240.848 55.8148 241.938 56.5733C242.209 56.7632 242.44 57.023 242.661 57.2779C243.2 57.9065 243.487 58.615 243.251 59.4565C243.032 60.251 242.812 61.0426 242.571 61.8331C242.103 63.3701 241.419 64.8772 241.194 66.4482C240.875 68.6758 240.984 70.9424 241.849 73.0971C242.025 73.5418 242.203 74.0185 242.232 74.4913C242.29 75.5766 242.321 76.6699 242.252 77.7532C242.014 81.403 243.006 84.644 245.358 87.4483C245.969 88.1738 246.021 88.9363 245.795 89.8558C245.485 91.118 245.278 92.4162 245.18 93.7124C245.071 95.1045 245.644 96.1949 247.025 96.7285L247.216 96.9294C247.216 97.637 247.223 98.3865 247.211 99.1331C247.2 100.126 247.528 100.984 248.277 101.634C248.865 102.149 249.469 102.67 250.136 103.073C250.816 103.486 251.021 104.016 250.923 104.768C250.828 105.472 250.793 106.184 250.746 106.895C250.709 107.493 250.857 108.019 251.433 108.32C251.965 108.599 252.356 108.275 252.754 107.987L252.97 107.974L253.112 108.13C253.765 108.79 254.186 108.901 254.764 108.571C255.339 108.239 255.459 107.758 255.249 106.916C255.125 106.414 254.99 105.881 255.027 105.377Z"/>
</mask>
<path d="M255.027 105.377C255.17 103.496 254.651 101.843 253.623 100.278C252.575 98.6863 252.052 96.9664 252.841 95.0686L252.966 94.6368C253.43 92.9269 253.217 91.3478 251.958 90.0367C251.013 89.0503 250.754 87.918 251.03 86.6158C251.396 84.9048 251.275 83.3178 250.249 81.7838C249.358 80.4526 249.205 78.9825 249.912 77.4075C250.509 76.0853 250.899 74.6581 251.277 73.251C251.572 72.1547 251.575 70.9934 251.162 69.9271C250.828 69.0566 250.915 68.2671 251.122 67.4106C251.343 66.5072 251.466 65.5738 251.586 64.6503C251.679 63.9398 251.444 63.3101 250.915 62.8224C250.22 62.1828 249.979 61.3873 250.094 60.4799C250.234 59.4395 250.434 58.4102 249.892 57.4088C249.795 57.2339 249.852 56.9661 249.867 56.7422C250.002 54.9343 249.546 53.2524 248.839 51.6144C248.434 50.6709 248.263 49.6776 248.368 48.6502C248.575 46.6574 248.449 44.6687 248.104 42.7159C247.731 40.6152 247.145 38.5564 246.704 36.4677C246.55 35.7452 246.45 34.9846 246.494 34.2531C246.586 32.761 246.764 31.2709 246.963 29.7858C247.203 27.9959 247.641 26.26 248.409 24.609C249.147 23.011 249.832 21.387 250.515 19.765C250.76 19.1794 250.971 18.5728 251.117 17.9551C251.296 17.2126 251.287 16.4631 250.839 15.7875C250.244 14.891 249.459 14.7231 248.678 15.4747C248.043 16.0943 247.442 16.8018 247.015 17.5754C246.178 19.0964 245.214 20.5056 244.053 21.7928C243.244 22.6892 242.899 23.7596 242.849 24.9808C242.757 27.3543 242.217 29.578 240.505 31.3739C240.017 31.8865 239.588 32.4632 239.195 33.0538C238.798 33.6395 238.382 34.2461 238.156 34.9067C237.619 36.4607 237.034 38.0277 236.76 39.6418C236.397 41.7914 235.835 43.8721 235.267 45.9708C234.795 47.7138 233.987 49.1459 232.77 50.4031C232 51.1996 231.46 52.143 231.123 53.1854C230.72 54.4336 230.367 55.6958 230.031 56.9641C229.879 57.5417 229.774 58.1383 229.718 58.731C229.459 61.5672 229.254 64.4095 228.967 67.2387C228.898 67.9093 228.958 68.6539 228.494 69.2635L228.296 69.0896C227.556 68.0672 227.467 66.8829 227.353 65.6747C227.089 62.8424 226.802 60.0172 226.917 57.1649C226.95 56.3035 226.917 55.44 226.943 54.5785C226.966 53.874 226.672 53.3503 226.14 52.9295C225.937 52.7706 225.728 52.6237 225.494 52.4489C225.536 51.9182 225.579 51.3975 225.619 50.8788C225.715 49.6126 225.543 48.4363 224.727 47.374C224.435 46.9982 224.309 46.4026 224.313 45.9109C224.324 44.6407 224.442 43.3675 224.544 42.0992C224.622 41.0479 224.244 40.1934 223.513 39.4709C223.326 39.29 223.083 39.1421 222.95 38.9292C222.741 38.5984 222.437 38.2156 222.458 37.8708C222.522 36.6426 222.629 35.4054 222.867 34.2021C223.054 33.2537 223.484 32.3562 223.755 31.4208C224.24 29.7299 224.749 28.0449 225.133 26.329C225.329 25.4515 224.895 24.8389 224.158 24.5061C223.454 24.1813 222.864 24.2602 222.301 25.0318C221.331 26.357 220.423 27.7371 219.6 29.1522C219.236 29.7808 219.087 30.5504 218.924 31.2759C218.654 32.4932 218.365 33.7034 217.459 34.6248C216.48 35.6222 215.944 36.8375 215.598 38.1637C215.542 38.3825 215.43 38.5884 215.301 38.9062C214.691 37.3272 214.441 37.1723 213.117 37.4901C213.069 37.2752 213.052 37.0494 212.97 36.8495C212.602 35.957 211.902 35.8181 211.243 36.5317C210.967 36.8265 210.685 37.1673 210.55 37.54C210.039 38.9472 209.525 40.3573 209.125 41.7954C208.729 43.2385 208.528 44.7346 208.143 46.1797C207.291 49.3608 206.665 52.6097 205.298 55.6389C205.132 56.0076 205.069 56.4284 204.993 56.8311C204.597 58.9988 204.657 61.1555 205.113 63.3102C205.66 65.8736 205.606 68.451 205.208 71.0284C204.953 72.6944 203.98 73.9806 202.929 75.2138C201.266 77.1616 200.54 79.4032 200.747 81.9696C200.847 83.2179 201.111 84.4051 201.612 85.5524C202.482 87.5332 202.803 89.563 202.016 91.6637C201.884 92.0134 201.788 92.3852 201.744 92.753C201.626 93.6844 201.59 94.5968 202.012 95.5073C202.251 96.028 202.358 96.6546 202.363 97.2362C202.378 99.5248 202.324 101.811 202.32 104.1C202.318 104.504 202.392 104.92 202.503 105.312C202.656 105.88 202.986 106.346 203.591 106.487C204.246 106.638 204.647 106.21 204.985 105.747C205.592 104.916 206.02 103.999 206.124 102.969C206.311 101.115 206.917 99.4009 207.638 97.7019C207.964 96.9274 208.098 96.04 208.154 95.1935C208.261 93.5345 207.897 91.9145 207.554 90.2985C207.469 89.9027 207.407 89.471 207.476 89.0793C207.818 87.1524 208.55 85.3695 210.01 84.0553C211.212 82.965 211.711 81.7348 211.504 80.1647C211.457 79.791 211.486 79.4062 211.407 79.0414C211.16 77.9111 211.307 76.8218 211.559 75.7075C211.902 74.1754 212.29 72.6344 212.417 71.0744C212.628 68.485 213.069 65.9535 213.677 63.4391C214.1 61.6941 214.108 59.9622 213.487 58.2383C212.885 56.5603 212.938 54.8604 213.521 53.1624C213.81 52.3139 213.97 51.4235 214.249 50.572C214.557 49.6276 214.77 48.6262 215.645 47.6658C215.715 48.2095 215.814 48.5613 215.798 48.903C215.737 50.0263 215.659 51.1477 215.548 52.261C215.408 53.7091 215.716 54.9493 216.995 55.7978C217.563 56.1716 217.855 56.7102 217.966 57.3728C218.078 58.0374 218.411 58.664 218.979 58.9258C220.326 59.5505 220.551 60.7108 220.676 61.97L220.709 62.3058C220.975 64.5474 221.367 66.733 222.477 68.7638C222.925 69.5823 222.986 70.6226 223.184 71.5701C223.317 72.1887 223.261 72.8723 223.497 73.4419C223.963 74.5762 223.886 75.7025 223.767 76.8698C223.524 79.3552 224.193 80.7914 226.386 81.2271C226.929 81.334 227.232 81.6658 227.282 82.2275C227.339 82.7851 227.412 83.3408 227.484 83.8984C227.671 85.3525 227.896 86.8017 228.8 88.0239C229.329 88.7375 230.004 89.1492 230.929 88.9343C231.693 88.7555 232.322 87.9749 232.407 87.0245C232.487 86.1651 232.556 85.2966 232.507 84.4401C232.373 82.1045 233.056 80.0088 234.164 77.9951C234.48 77.4204 234.73 76.7579 234.819 76.1083C234.98 74.925 235.036 73.7217 235.071 72.5245C235.135 70.3638 235.524 68.343 237.255 66.834L237.48 66.5831C239.036 64.4444 239.917 62.1339 239.37 59.4315C238.954 57.3558 239.313 55.3331 239.863 53.3333C239.97 52.9415 240.13 52.5638 240.269 52.179C240.458 52.6397 240.458 53.0515 240.458 53.4632C240.46 54.7344 240.848 55.8148 241.938 56.5733C242.209 56.7632 242.44 57.023 242.661 57.2779C243.2 57.9065 243.487 58.615 243.251 59.4565C243.032 60.251 242.812 61.0426 242.571 61.8331C242.103 63.3701 241.419 64.8772 241.194 66.4482C240.875 68.6758 240.984 70.9424 241.849 73.0971C242.025 73.5418 242.203 74.0185 242.232 74.4913C242.29 75.5766 242.321 76.6699 242.252 77.7532C242.014 81.403 243.006 84.644 245.358 87.4483C245.969 88.1738 246.021 88.9363 245.795 89.8558C245.485 91.118 245.278 92.4162 245.18 93.7124C245.071 95.1045 245.644 96.1949 247.025 96.7285L247.216 96.9294C247.216 97.637 247.223 98.3865 247.211 99.1331C247.2 100.126 247.528 100.984 248.277 101.634C248.865 102.149 249.469 102.67 250.136 103.073C250.816 103.486 251.021 104.016 250.923 104.768C250.828 105.472 250.793 106.184 250.746 106.895C250.709 107.493 250.857 108.019 251.433 108.32C251.965 108.599 252.356 108.275 252.754 107.987L252.97 107.974L253.112 108.13C253.765 108.79 254.186 108.901 254.764 108.571C255.339 108.239 255.459 107.758 255.249 106.916C255.125 106.414 254.99 105.881 255.027 105.377Z" fill="#11B0C8" stroke="#87F54E" stroke-width="2" mask="url(#path-1-inside-1_205_60)"/>
<mask id="path-2-inside-2_205_60" fill="white">
<path d="M76.582 109.705C76.3639 108.315 75.7973 107.062 74.8075 106.019C73.6175 104.756 72.8906 103.295 72.779 101.519C72.6506 99.4779 71.4845 98.1327 69.6393 97.4172C69.0328 97.1803 68.6017 96.8595 68.3129 96.3059C67.9673 95.6433 67.573 94.9987 67.2852 94.3121C66.9197 93.4426 66.2814 92.857 65.4241 92.6651C64.4233 92.4392 63.9811 91.8286 63.7611 90.9322C63.6784 90.6034 63.5679 90.2816 63.5181 89.9478C63.1815 87.7981 62.0105 86.2221 60.1742 85.1357C59.5877 84.787 59.2959 84.3013 59.0191 83.6986C58.4575 82.4794 57.9446 81.1792 57.1151 80.1598C55.9341 78.7077 54.4464 77.5894 52.3472 78.4219L52.0823 78.3479C51.8284 77.8143 51.5984 77.2186 51.2777 76.677C50.493 75.3638 49.9802 75.2468 48.6648 76.0084L48.4845 76.0194C48.37 75.7825 48.2485 75.5207 48.1181 75.2588C47.668 74.3554 47.2647 73.422 46.7518 72.5545C46.2928 71.775 45.7371 71.0684 44.6517 71.1194C44.3758 71.1324 44.0881 70.8735 43.5991 70.6437C44.1458 70.2629 44.4286 70.0101 44.7543 69.8492C45.769 69.3405 46.5357 68.603 46.9181 67.5296C47.0924 67.0459 47.416 66.7781 47.8502 66.6432C48.3829 66.4803 48.9306 66.3343 49.4843 66.2854C50.973 66.1505 51.9609 65.261 52.6848 64.0887C53.4317 62.8805 53.9823 61.5563 54.2143 60.1282C54.3328 59.3906 54.4613 58.7191 55.2191 58.2703C55.5776 58.0585 55.8007 57.4958 55.9321 57.0491C56.0934 56.4804 56.1621 55.8658 56.1552 55.2752C56.1442 54.2478 56.4001 53.3893 57.136 52.6248C58.4824 51.2347 58.8637 49.5167 58.549 47.6309C58.2951 46.1078 58.1338 44.6157 58.6984 43.0917C59.3696 41.2878 58.9414 39.6848 57.4059 38.4695C56.9359 38.0988 56.7616 37.689 56.8423 37.1184C56.8911 36.7846 56.9249 36.4468 56.9398 36.109C56.9936 34.9527 57.0604 33.7964 57.0673 32.6371C57.0673 32.3193 56.9558 31.9436 56.7656 31.6897C55.4312 29.9118 54.3578 29.3682 52.4747 30.0278C52.0863 30.1637 51.697 30.3146 51.2957 30.3765C50.6474 30.4835 50.4174 30.2736 50.3477 29.618C50.2989 29.1343 50.2919 28.6426 50.1943 28.1679C49.9981 27.1725 49.4255 26.6888 48.4068 26.6358C48.0364 26.6149 47.656 26.6328 47.2926 26.7048C46.1673 26.9267 45.1994 26.7388 44.2853 25.9593C43.643 25.4066 42.8503 25.0218 42.0895 24.6241C40.7671 23.9305 39.4058 23.3129 38.0924 22.6043C37.2818 22.1616 36.4403 21.9287 35.5282 21.8948C35.0821 21.8768 34.623 21.9397 34.1859 21.8608C32.737 21.5989 31.5669 22.1296 30.4566 23.0001C29.2198 23.9685 27.9601 24.9119 26.6666 25.8054C24.9677 26.9796 23.1295 27.5683 21.0582 26.9037L20.6211 26.8147C19.7786 26.5479 19.0178 26.7678 18.2451 27.1295C16.9993 27.7152 15.9627 28.5517 15.0775 29.588C14.5576 30.1986 14.0299 30.4315 13.2273 30.0627C12.5143 29.7379 12.102 29.8728 11.7625 30.4345C10.9519 31.7797 10.4271 34.0003 12.11 35.6023C12.3818 35.8601 12.6537 36.117 12.9415 36.3558C14.1076 37.3242 14.2649 38.5415 13.8347 39.9166C13.6475 40.5233 13.4404 41.1319 13.3288 41.7535C12.8758 44.3139 13.0749 46.6955 15.2507 48.5233C15.7048 48.9031 16.0932 49.3808 16.4566 49.8545C17.1069 50.703 17.5978 51.6044 17.3021 52.7567C17.079 53.6242 16.9834 54.5236 16.7643 55.3891C16.5791 56.1206 16.5791 56.7802 17.0093 57.4338C17.1637 57.6657 17.2722 57.9995 17.2453 58.2683C17.1746 58.9709 17.324 59.6035 17.6247 60.2251C17.9484 60.8897 17.9742 61.5493 17.7651 62.2878C17.4216 63.4921 17.554 64.6634 18.3985 65.6768C18.7589 66.1085 19.0856 66.5652 19.446 66.9969C19.9838 67.6365 20.2486 68.3141 19.9967 69.1746C19.7109 70.145 19.8613 71.0714 20.2974 72.0038C21.2255 73.9876 21.827 76.0913 21.836 78.29C21.8379 79.5362 21.9564 80.8414 21.2126 81.9977C20.5842 82.9711 20.9427 83.9525 21.585 84.695C22.4772 85.7284 22.8935 86.9436 23.3396 88.1779C23.5487 88.7615 23.4999 89.2592 23.1723 89.7759C22.1894 91.3309 22.1357 92.9999 22.535 94.7528C22.8158 95.9851 23.3685 97.0824 24.0367 98.1197C24.5137 98.8603 24.8721 99.6258 25.0066 100.488C25.1181 101.222 25.4079 101.837 25.9874 102.325C26.1707 102.479 26.3479 102.74 26.3678 102.97C26.4883 104.191 26.7781 105.395 26.4276 106.647C26.0711 107.92 26.3658 108.596 27.523 109.288C28.2987 109.751 28.5835 110.408 28.6283 111.232C28.6621 111.867 28.6193 112.509 28.6512 113.144C28.7129 114.267 29.0545 115.281 29.9457 116.033C30.349 116.373 30.7842 116.721 31.3548 116.479C31.9363 116.239 32.1733 115.715 32.1843 115.12C32.2002 114.412 32.1664 113.695 32.1196 112.986C32.0389 111.749 32.0837 110.575 33.3504 109.876L33.5157 109.727C34.8441 108.405 34.9825 107.017 34.0594 105.375C33.3822 104.167 33.0726 102.885 33.678 101.51C33.917 100.968 34.1151 100.37 34.157 99.7847C34.1948 99.2111 34.143 98.5605 33.8961 98.0588C33.4171 97.0924 32.7857 96.1979 32.1913 95.2895C31.2572 93.8664 30.7294 92.4153 31.7342 90.7953L31.8726 90.4884C32.8266 88.7415 32.9112 86.9956 31.8328 85.2667C31.5032 84.738 31.4603 84.2313 31.8308 83.6986C32.5189 82.7192 32.3835 81.7388 31.8457 80.7365C31.5271 80.1458 31.2502 79.5242 31.0272 78.8926C30.599 77.6843 30.9873 76.9508 32.4203 76.4401C32.9889 77.0627 33.6023 77.7673 34.2476 78.4409C35.2085 79.4383 36.4035 79.823 37.7229 79.4453C38.7177 79.1614 39.3052 79.5752 39.7892 80.3087C40.304 81.0913 40.7412 81.9237 41.269 82.6932C41.6902 83.3039 42.1492 83.9065 42.685 84.4162C43.2446 84.9559 43.6808 84.8849 44.2404 84.3432C45.279 83.3279 45.5021 83.3099 46.4939 84.3452C47.0376 84.9199 47.6242 85.3296 48.4437 85.2317C49.0571 85.1557 49.4464 85.4136 49.6894 85.9522C50.2082 87.1105 50.7659 88.2548 51.2429 89.4291C51.8404 90.9052 52.8282 91.3709 54.2522 90.7673C54.4573 90.6803 54.6585 90.5784 54.8676 90.4945C55.6722 90.1687 55.7548 90.1516 56.2159 90.9342C56.7845 91.8986 57.3033 92.897 57.7803 93.9113C58.4206 95.2655 59.4722 96.154 60.8932 96.4038C61.7575 96.5577 62.2126 96.9655 62.5601 97.67C62.7414 98.0398 62.9595 98.3936 63.1397 98.7623C63.9782 100.469 64.9272 102.062 66.8869 102.696L67.2613 102.938C68.2272 103.608 69.1384 104.304 69.2031 105.646C69.2698 106.98 69.8135 108.184 70.3085 109.401C70.647 110.231 71.1399 110.9 71.9376 111.33C72.5858 111.681 73.028 112.204 73.2859 112.912C73.5328 113.578 73.8326 114.229 74.1463 114.864C74.5854 115.746 75.383 116.295 75.9427 116.146C76.5252 115.992 76.8319 115.349 76.8031 114.247C76.7921 113.764 76.5441 113.226 76.6845 112.809C77.053 111.738 76.7433 110.725 76.582 109.705ZM42.5725 61.993C42.3405 62.1409 42.0467 62.2019 41.7718 62.2619C41.1634 62.4048 40.5281 62.4657 39.9376 62.6626C39.2694 62.8865 38.6072 63.1683 37.9918 63.5171C37.5188 63.7879 37.0617 64.1477 36.7212 64.5664C36.2302 65.1721 35.6527 65.5928 34.864 65.9116C34.5961 65.6857 34.3402 65.4189 34.0395 65.216C32.72 64.3226 31.9224 64.2586 30.8679 65.0531C30.5801 65.27 30.2435 65.4159 29.6749 65.7377C29.7824 65.0312 29.8113 64.5704 29.9298 64.1337C30.0383 63.7399 30.2614 63.3802 30.4068 62.9954C30.8529 61.8141 30.7165 61.3204 29.642 60.6349C29.2009 60.355 29.0336 60.0332 29.0445 59.5365C29.0625 58.787 29.0515 58.0355 29.0465 57.2839C29.0426 56.1766 28.6024 55.3481 27.5737 54.8494C26.8827 54.5136 26.8229 54.2718 26.9922 53.5023C27.0987 53.0325 27.1884 52.5489 27.2421 52.0692C27.4313 50.4492 26.6247 49.3218 25.4387 48.3614C25.2356 48.1975 25.0285 47.8867 25.0354 47.6479C25.0623 46.5006 24.6819 45.3533 25.13 44.201C25.4129 43.4695 24.9518 42.8828 24.4569 42.4101C23.6812 41.6766 23.5895 40.7871 23.7817 39.8247C23.9401 39.0152 24.3105 38.7704 25.1191 38.8833C25.3402 38.9173 25.5722 38.9213 25.7833 38.9842C27.6205 39.5419 29.0664 38.8413 30.346 37.5791C30.5581 37.3692 30.7812 37.1643 30.9883 36.9505C31.6914 36.2219 32.5577 35.9641 33.5396 36.067C34.1729 36.132 34.7963 36.2839 35.4276 36.3179C36.2432 36.3628 37.0597 36.3319 37.9689 36.3319C39.7524 39.5829 40.5171 39.9716 43.2626 38.9692C43.9228 39.6378 44.6646 40.2444 44.1807 41.4247C43.9596 41.9684 44.1608 42.548 44.5461 43.0027C45.0769 43.6314 45.6067 44.262 46.1882 44.8416C46.5825 45.2374 47.0645 45.5462 47.5166 45.902C47.2268 46.3827 47.0884 46.6375 46.9261 46.8734C46.2639 47.8328 46.1324 48.5044 46.8524 49.3318C47.8472 50.4701 47.3254 51.6694 47.2677 52.8667L47.1272 53.1615C46.4182 53.963 45.6953 54.7565 44.9893 55.56C44.2892 56.3545 44.0801 57.3469 43.9198 58.3473C43.8262 58.9379 43.7933 59.5405 43.6987 60.1332C43.5732 60.8967 43.2506 61.5683 42.5725 61.993Z"/>
</mask>
<path d="M76.582 109.705C76.3639 108.315 75.7973 107.062 74.8075 106.019C73.6175 104.756 72.8906 103.295 72.779 101.519C72.6506 99.4779 71.4845 98.1327 69.6393 97.4172C69.0328 97.1803 68.6017 96.8595 68.3129 96.3059C67.9673 95.6433 67.573 94.9987 67.2852 94.3121C66.9197 93.4426 66.2814 92.857 65.4241 92.6651C64.4233 92.4392 63.9811 91.8286 63.7611 90.9322C63.6784 90.6034 63.5679 90.2816 63.5181 89.9478C63.1815 87.7981 62.0105 86.2221 60.1742 85.1357C59.5877 84.787 59.2959 84.3013 59.0191 83.6986C58.4575 82.4794 57.9446 81.1792 57.1151 80.1598C55.9341 78.7077 54.4464 77.5894 52.3472 78.4219L52.0823 78.3479C51.8284 77.8143 51.5984 77.2186 51.2777 76.677C50.493 75.3638 49.9802 75.2468 48.6648 76.0084L48.4845 76.0194C48.37 75.7825 48.2485 75.5207 48.1181 75.2588C47.668 74.3554 47.2647 73.422 46.7518 72.5545C46.2928 71.775 45.7371 71.0684 44.6517 71.1194C44.3758 71.1324 44.0881 70.8735 43.5991 70.6437C44.1458 70.2629 44.4286 70.0101 44.7543 69.8492C45.769 69.3405 46.5357 68.603 46.9181 67.5296C47.0924 67.0459 47.416 66.7781 47.8502 66.6432C48.3829 66.4803 48.9306 66.3343 49.4843 66.2854C50.973 66.1505 51.9609 65.261 52.6848 64.0887C53.4317 62.8805 53.9823 61.5563 54.2143 60.1282C54.3328 59.3906 54.4613 58.7191 55.2191 58.2703C55.5776 58.0585 55.8007 57.4958 55.9321 57.0491C56.0934 56.4804 56.1621 55.8658 56.1552 55.2752C56.1442 54.2478 56.4001 53.3893 57.136 52.6248C58.4824 51.2347 58.8637 49.5167 58.549 47.6309C58.2951 46.1078 58.1338 44.6157 58.6984 43.0917C59.3696 41.2878 58.9414 39.6848 57.4059 38.4695C56.9359 38.0988 56.7616 37.689 56.8423 37.1184C56.8911 36.7846 56.9249 36.4468 56.9398 36.109C56.9936 34.9527 57.0604 33.7964 57.0673 32.6371C57.0673 32.3193 56.9558 31.9436 56.7656 31.6897C55.4312 29.9118 54.3578 29.3682 52.4747 30.0278C52.0863 30.1637 51.697 30.3146 51.2957 30.3765C50.6474 30.4835 50.4174 30.2736 50.3477 29.618C50.2989 29.1343 50.2919 28.6426 50.1943 28.1679C49.9981 27.1725 49.4255 26.6888 48.4068 26.6358C48.0364 26.6149 47.656 26.6328 47.2926 26.7048C46.1673 26.9267 45.1994 26.7388 44.2853 25.9593C43.643 25.4066 42.8503 25.0218 42.0895 24.6241C40.7671 23.9305 39.4058 23.3129 38.0924 22.6043C37.2818 22.1616 36.4403 21.9287 35.5282 21.8948C35.0821 21.8768 34.623 21.9397 34.1859 21.8608C32.737 21.5989 31.5669 22.1296 30.4566 23.0001C29.2198 23.9685 27.9601 24.9119 26.6666 25.8054C24.9677 26.9796 23.1295 27.5683 21.0582 26.9037L20.6211 26.8147C19.7786 26.5479 19.0178 26.7678 18.2451 27.1295C16.9993 27.7152 15.9627 28.5517 15.0775 29.588C14.5576 30.1986 14.0299 30.4315 13.2273 30.0627C12.5143 29.7379 12.102 29.8728 11.7625 30.4345C10.9519 31.7797 10.4271 34.0003 12.11 35.6023C12.3818 35.8601 12.6537 36.117 12.9415 36.3558C14.1076 37.3242 14.2649 38.5415 13.8347 39.9166C13.6475 40.5233 13.4404 41.1319 13.3288 41.7535C12.8758 44.3139 13.0749 46.6955 15.2507 48.5233C15.7048 48.9031 16.0932 49.3808 16.4566 49.8545C17.1069 50.703 17.5978 51.6044 17.3021 52.7567C17.079 53.6242 16.9834 54.5236 16.7643 55.3891C16.5791 56.1206 16.5791 56.7802 17.0093 57.4338C17.1637 57.6657 17.2722 57.9995 17.2453 58.2683C17.1746 58.9709 17.324 59.6035 17.6247 60.2251C17.9484 60.8897 17.9742 61.5493 17.7651 62.2878C17.4216 63.4921 17.554 64.6634 18.3985 65.6768C18.7589 66.1085 19.0856 66.5652 19.446 66.9969C19.9838 67.6365 20.2486 68.3141 19.9967 69.1746C19.7109 70.145 19.8613 71.0714 20.2974 72.0038C21.2255 73.9876 21.827 76.0913 21.836 78.29C21.8379 79.5362 21.9564 80.8414 21.2126 81.9977C20.5842 82.9711 20.9427 83.9525 21.585 84.695C22.4772 85.7284 22.8935 86.9436 23.3396 88.1779C23.5487 88.7615 23.4999 89.2592 23.1723 89.7759C22.1894 91.3309 22.1357 92.9999 22.535 94.7528C22.8158 95.9851 23.3685 97.0824 24.0367 98.1197C24.5137 98.8603 24.8721 99.6258 25.0066 100.488C25.1181 101.222 25.4079 101.837 25.9874 102.325C26.1707 102.479 26.3479 102.74 26.3678 102.97C26.4883 104.191 26.7781 105.395 26.4276 106.647C26.0711 107.92 26.3658 108.596 27.523 109.288C28.2987 109.751 28.5835 110.408 28.6283 111.232C28.6621 111.867 28.6193 112.509 28.6512 113.144C28.7129 114.267 29.0545 115.281 29.9457 116.033C30.349 116.373 30.7842 116.721 31.3548 116.479C31.9363 116.239 32.1733 115.715 32.1843 115.12C32.2002 114.412 32.1664 113.695 32.1196 112.986C32.0389 111.749 32.0837 110.575 33.3504 109.876L33.5157 109.727C34.8441 108.405 34.9825 107.017 34.0594 105.375C33.3822 104.167 33.0726 102.885 33.678 101.51C33.917 100.968 34.1151 100.37 34.157 99.7847C34.1948 99.2111 34.143 98.5605 33.8961 98.0588C33.4171 97.0924 32.7857 96.1979 32.1913 95.2895C31.2572 93.8664 30.7294 92.4153 31.7342 90.7953L31.8726 90.4884C32.8266 88.7415 32.9112 86.9956 31.8328 85.2667C31.5032 84.738 31.4603 84.2313 31.8308 83.6986C32.5189 82.7192 32.3835 81.7388 31.8457 80.7365C31.5271 80.1458 31.2502 79.5242 31.0272 78.8926C30.599 77.6843 30.9873 76.9508 32.4203 76.4401C32.9889 77.0627 33.6023 77.7673 34.2476 78.4409C35.2085 79.4383 36.4035 79.823 37.7229 79.4453C38.7177 79.1614 39.3052 79.5752 39.7892 80.3087C40.304 81.0913 40.7412 81.9237 41.269 82.6932C41.6902 83.3039 42.1492 83.9065 42.685 84.4162C43.2446 84.9559 43.6808 84.8849 44.2404 84.3432C45.279 83.3279 45.5021 83.3099 46.4939 84.3452C47.0376 84.9199 47.6242 85.3296 48.4437 85.2317C49.0571 85.1557 49.4464 85.4136 49.6894 85.9522C50.2082 87.1105 50.7659 88.2548 51.2429 89.4291C51.8404 90.9052 52.8282 91.3709 54.2522 90.7673C54.4573 90.6803 54.6585 90.5784 54.8676 90.4945C55.6722 90.1687 55.7548 90.1516 56.2159 90.9342C56.7845 91.8986 57.3033 92.897 57.7803 93.9113C58.4206 95.2655 59.4722 96.154 60.8932 96.4038C61.7575 96.5577 62.2126 96.9655 62.5601 97.67C62.7414 98.0398 62.9595 98.3936 63.1397 98.7623C63.9782 100.469 64.9272 102.062 66.8869 102.696L67.2613 102.938C68.2272 103.608 69.1384 104.304 69.2031 105.646C69.2698 106.98 69.8135 108.184 70.3085 109.401C70.647 110.231 71.1399 110.9 71.9376 111.33C72.5858 111.681 73.028 112.204 73.2859 112.912C73.5328 113.578 73.8326 114.229 74.1463 114.864C74.5854 115.746 75.383 116.295 75.9427 116.146C76.5252 115.992 76.8319 115.349 76.8031 114.247C76.7921 113.764 76.5441 113.226 76.6845 112.809C77.053 111.738 76.7433 110.725 76.582 109.705ZM42.5725 61.993C42.3405 62.1409 42.0467 62.2019 41.7718 62.2619C41.1634 62.4048 40.5281 62.4657 39.9376 62.6626C39.2694 62.8865 38.6072 63.1683 37.9918 63.5171C37.5188 63.7879 37.0617 64.1477 36.7212 64.5664C36.2302 65.1721 35.6527 65.5928 34.864 65.9116C34.5961 65.6857 34.3402 65.4189 34.0395 65.216C32.72 64.3226 31.9224 64.2586 30.8679 65.0531C30.5801 65.27 30.2435 65.4159 29.6749 65.7377C29.7824 65.0312 29.8113 64.5704 29.9298 64.1337C30.0383 63.7399 30.2614 63.3802 30.4068 62.9954C30.8529 61.8141 30.7165 61.3204 29.642 60.6349C29.2009 60.355 29.0336 60.0332 29.0445 59.5365C29.0625 58.787 29.0515 58.0355 29.0465 57.2839C29.0426 56.1766 28.6024 55.3481 27.5737 54.8494C26.8827 54.5136 26.8229 54.2718 26.9922 53.5023C27.0987 53.0325 27.1884 52.5489 27.2421 52.0692C27.4313 50.4492 26.6247 49.3218 25.4387 48.3614C25.2356 48.1975 25.0285 47.8867 25.0354 47.6479C25.0623 46.5006 24.6819 45.3533 25.13 44.201C25.4129 43.4695 24.9518 42.8828 24.4569 42.4101C23.6812 41.6766 23.5895 40.7871 23.7817 39.8247C23.9401 39.0152 24.3105 38.7704 25.1191 38.8833C25.3402 38.9173 25.5722 38.9213 25.7833 38.9842C27.6205 39.5419 29.0664 38.8413 30.346 37.5791C30.5581 37.3692 30.7812 37.1643 30.9883 36.9505C31.6914 36.2219 32.5577 35.9641 33.5396 36.067C34.1729 36.132 34.7963 36.2839 35.4276 36.3179C36.2432 36.3628 37.0597 36.3319 37.9689 36.3319C39.7524 39.5829 40.5171 39.9716 43.2626 38.9692C43.9228 39.6378 44.6646 40.2444 44.1807 41.4247C43.9596 41.9684 44.1608 42.548 44.5461 43.0027C45.0769 43.6314 45.6067 44.262 46.1882 44.8416C46.5825 45.2374 47.0645 45.5462 47.5166 45.902C47.2268 46.3827 47.0884 46.6375 46.9261 46.8734C46.2639 47.8328 46.1324 48.5044 46.8524 49.3318C47.8472 50.4701 47.3254 51.6694 47.2677 52.8667L47.1272 53.1615C46.4182 53.963 45.6953 54.7565 44.9893 55.56C44.2892 56.3545 44.0801 57.3469 43.9198 58.3473C43.8262 58.9379 43.7933 59.5405 43.6987 60.1332C43.5732 60.8967 43.2506 61.5683 42.5725 61.993Z" fill="#11B0C8" stroke="#87F54E" stroke-width="2" mask="url(#path-2-inside-2_205_60)"/>
<path d="M331.361 38.4155C331.386 38.4258 331.418 38.4412 331.455 38.4634C331.578 38.5365 331.687 38.6339 331.735 38.6978V38.6987C332.242 39.4013 332.72 40.0738 333.024 40.7964L333.025 40.7974C333.821 42.6812 334.522 44.6011 335.261 46.5337C335.323 46.6985 335.371 46.8571 335.395 47.0034L335.41 47.145C335.466 48.4416 335.856 49.6184 336.291 50.7251C336.735 51.8557 337.209 52.8785 337.509 53.9771L337.51 53.979C337.583 54.2432 337.746 54.4693 337.905 54.6401C338.07 54.8161 338.264 54.9676 338.447 55.0796C339.319 55.6103 339.733 56.359 339.752 57.3589C339.796 59.6551 339.787 62.0044 339.855 64.3218C339.872 64.8966 340.142 65.4895 340.442 65.9097L340.443 65.9126C340.843 66.4642 341.08 66.8818 341.065 67.4409V67.4458C341.061 67.7081 341.151 67.9461 341.237 68.1255C341.325 68.3064 341.437 68.4817 341.516 68.6089C341.698 68.9069 341.892 69.1954 342.08 69.4731C342.27 69.7544 342.454 70.0243 342.625 70.3003L342.626 70.3013C343.039 70.9645 343.15 71.6166 342.883 72.3296L342.882 72.3325C342.741 72.7161 342.702 73.117 342.732 73.5679L342.827 74.9819L343.641 73.8208C344.601 72.4506 346.033 72.1878 347.724 71.6538V71.6528C349.592 71.0616 351.405 70.2072 353.165 69.4956L353.182 69.4888L353.199 69.48L353.399 69.3813L353.457 69.3521L353.506 69.3101C354.46 68.4771 355.58 67.8865 356.757 67.229C357.915 66.5823 359.116 65.8748 360.109 64.8228L360.11 64.8237C360.639 64.265 361.398 63.8562 362.199 63.4546L362.2 63.4536C363.411 62.8427 364.668 62.3375 365.948 61.7817C366.396 61.5875 366.723 61.5366 367.046 61.6938L367.047 61.6948C367.38 61.8563 367.475 62.0176 367.494 62.103C367.511 62.1745 367.507 62.3374 367.261 62.5991L367.258 62.603C366.541 63.3831 365.812 64.1532 365.062 64.896L364.305 65.6294C362.556 67.2858 360.679 68.7462 358.562 69.8687L358.562 69.8696C357.791 70.2814 357.104 70.8491 356.484 71.394C355.459 72.2955 354.391 73.0384 353.153 73.5063C352.679 73.6841 352.202 73.9032 351.757 74.1802C351.093 74.5869 350.513 75.1142 350.13 75.9077V75.9087C348.925 78.4151 347.04 80.1578 344.391 80.939C342.569 81.476 340.999 82.3866 339.771 83.8755C339.348 84.3868 338.966 84.9547 338.663 85.5532V85.5542C338.247 86.3812 337.696 87.0383 336.946 87.5396L336.945 87.5405C335.04 88.8205 333.187 90.1093 331.283 91.3667C329.818 92.3309 328.81 93.6181 328.367 95.3726V95.3745C328.261 95.8049 328.004 96.2475 327.694 96.6577V96.6587C327.184 97.3369 326.623 97.8839 326.025 98.5894C324.79 100.044 323.545 101.577 322.792 103.478C322.428 104.396 321.795 105.144 320.92 105.674C320.583 105.877 320.291 106.148 320.051 106.382L320.049 106.384C318.564 107.844 317.024 109.298 315.577 110.829C314.704 111.75 313.673 112.304 312.476 112.646L311.953 112.78C310.745 113.051 309.517 113.334 308.315 113.707L307.802 113.872C307.222 114.065 306.684 114.394 306.206 114.746L305.748 115.101C304.209 116.347 302.709 117.656 301.209 118.92L300.796 119.212C300.44 119.421 300.155 119.5 299.927 119.5C299.708 119.5 299.502 119.428 299.294 119.255C299.059 119.059 298.991 118.87 298.983 118.683C298.975 118.467 299.047 118.208 299.185 117.899L299.186 117.897C299.449 117.301 299.671 116.77 299.991 116.388L300.135 116.234C302.267 114.178 304.36 112.166 306.896 110.743C307.16 110.594 307.444 110.47 307.753 110.338C308.054 110.21 308.385 110.073 308.702 109.909H308.703C309.907 109.282 310.755 108.317 311.378 107.167L311.379 107.168C312.008 106.009 312.779 105.117 313.974 104.682L313.973 104.681C314.208 104.596 314.389 104.425 314.511 104.274C314.638 104.117 314.743 103.932 314.807 103.753C315.031 103.134 315.446 102.672 315.999 102.201C317.278 101.111 318.559 100.008 319.809 98.8706C320.312 98.4146 320.721 97.9682 320.778 97.397C320.834 96.8372 320.533 96.3063 320.157 95.7407H320.156C319.848 95.2746 319.754 94.9674 319.768 94.7114C319.782 94.4545 319.911 94.1442 320.292 93.686C321.471 92.2677 322.787 91.0543 324.399 90.2153L324.4 90.2163C324.68 90.0728 324.951 89.9149 325.212 89.7524L325.312 89.6899L325.374 89.5894L325.503 89.3794L325.672 89.103L325.488 88.8354L325.316 88.5864L325.306 88.5708L325.294 88.5552L325.167 88.3901C324.904 88.0245 324.857 87.7947 324.878 87.6606C324.898 87.5317 325.012 87.3172 325.52 87.0649C326.795 86.4333 328.138 85.9601 329.512 85.4224L329.513 85.4233C329.75 85.3308 330 85.2561 330.269 85.1782C330.53 85.1024 330.815 85.0211 331.095 84.9233L331.096 84.9243C331.533 84.7732 331.964 84.571 332.225 84.2036C332.509 83.8032 332.511 83.329 332.382 82.8325H332.383C332.05 81.5457 332.328 80.3975 332.72 79.1489L333.132 77.8579C333.686 76.0634 334.142 74.2272 334.623 72.4741L334.723 72.1099L334.399 71.9136C333.73 71.5088 333.366 71.3358 333.019 71.0718H333.02C332.618 70.7654 332.43 70.3702 332.445 69.8208C332.457 69.4544 332.452 69.0873 332.441 68.7241L332.396 67.6499C332.331 66.2076 331.947 64.8635 331.341 63.5757L331.34 63.5747L331.221 63.312C330.647 61.9934 330.424 60.5799 330.447 59.1001C330.473 57.6403 330.497 56.1641 330.456 54.6899V54.688C330.444 54.2823 330.386 53.8861 330.325 53.5132C330.262 53.1306 330.197 52.7828 330.157 52.4282V52.4272C330.009 51.1272 329.858 49.8408 329.766 48.5493C329.734 48.1121 329.792 47.784 329.934 47.5493C330.065 47.3317 330.311 47.1239 330.818 47.0103L331.225 46.9194L331.209 46.5034C331.133 44.5294 331.055 42.5874 330.993 40.6499V40.647L330.952 39.6997C330.946 39.4069 330.957 39.1327 331.008 38.8638C331.018 38.8107 331.067 38.7015 331.169 38.5835C331.24 38.5019 331.309 38.4471 331.361 38.4155Z" fill="#11B0C8" stroke="#87F54E"/>
<mask id="path-4-inside-3_205_60" fill="white">
<path d="M185.198 81.4901C184.576 79.996 184.023 78.4989 184.123 76.8279C184.192 75.6757 184.094 74.5144 184.137 73.3601C184.171 72.4267 184.206 71.4782 184.413 70.5748C184.781 68.9738 185.264 67.3938 185.725 65.8137C185.942 65.0782 185.895 64.3796 185.418 63.79C184.74 62.9465 184.667 62.0021 184.897 61.0267C185.183 59.8274 185.566 58.6492 185.883 57.4559C185.996 57.0292 186.126 56.5794 186.104 56.1447C186.07 55.4052 185.778 54.7196 185.047 54.4178C184.267 54.093 183.569 54.3948 183.034 54.9974C182.666 55.4111 182.283 55.8659 182.084 56.3736C181.731 57.273 181.48 58.2194 181.248 59.1608C180.796 61.0067 180.385 62.8656 179.956 64.7164L179.806 65.1392C178.928 66.4993 178.623 68.0294 178.417 69.6024C178.313 70.4179 177.882 70.9566 177.118 71.4103C176.012 72.0699 174.983 72.9084 174.062 73.8148C173.188 74.6713 172.488 75.7076 171.716 76.667C171.738 76.0124 171.703 75.3479 171.817 74.7122C172.213 72.5066 172.673 70.31 173.099 68.1043C173.31 67.004 173.54 65.8977 173.678 64.7864C173.747 64.2067 173.739 63.5721 173.574 63.0195C173.368 62.3369 172.953 61.7043 172.118 61.6523C171.322 61.5983 170.778 62.0341 170.395 62.6947C170.266 62.9205 170.152 63.1604 170.053 63.4022C169.073 65.8427 168.099 68.2862 167.055 70.8926C166.708 69.2996 166.058 68.1423 164.278 68.552C163.653 67.5117 163.5 66.4314 163.288 65.373C163.119 64.5335 162.719 63.836 162.138 63.2253C161.688 62.7526 161.117 62.7526 160.577 62.9525C160.027 63.1584 159.657 63.5551 159.657 64.2257C159.657 64.7834 159.571 65.339 159.531 65.8987C159.463 66.8271 159.353 67.7575 159.348 68.686C159.345 69.6584 159.403 70.6348 159.515 71.6012C159.681 73.0463 158.802 73.9947 158.047 75.146C157.675 74.3845 157.303 73.7718 157.066 73.1072C156.906 72.6625 156.978 72.1418 156.875 71.6701C156.712 70.9406 156.467 70.231 156.302 69.5015C156.115 68.667 155.964 67.8235 155.821 66.985C155.753 66.5783 155.773 66.1605 155.698 65.7568C155.342 63.811 154.787 61.9001 154.78 59.8934C154.777 59.2668 154.688 58.6212 154.528 58.0146C154.345 57.332 153.839 56.9712 153.322 57.0901C152.661 57.244 151.996 57.4679 151.639 58.1055C151.278 58.7541 150.941 59.4277 150.687 60.1253C150.419 60.8618 150.261 61.6373 150.061 62.3978C149.922 62.9305 149.626 63.2593 149.037 63.2303C147.961 63.1814 147.419 63.8579 147.036 64.7284C146.766 65.346 146.575 65.9986 146.262 66.5943C145.439 68.1763 145.232 69.7843 145.911 71.4693C146.143 72.0439 146.197 72.6305 145.98 73.2212C145.237 75.2539 144.882 77.4336 143.678 79.2974C143.44 79.6662 143.23 80.1129 143.194 80.5437C143.131 81.2702 142.962 82.1716 143.294 82.7173C143.895 83.6867 144.008 84.6491 143.979 85.7045C143.97 85.9263 144.001 86.1582 144.053 86.3731C144.226 87.0616 144.766 87.5543 145.357 87.5863C146.008 87.6173 146.409 87.2815 146.652 86.436C146.832 85.8184 147.049 85.2487 147.528 84.779C148.086 84.2284 148.204 83.5038 147.93 82.7943C147.709 82.2136 147.876 81.7809 148.195 81.3382C148.436 81.0054 148.723 80.6936 148.913 80.3368C149.096 79.985 149.289 79.5842 149.287 79.2065C149.276 77.9442 149.951 77.0458 150.678 76.0674C150.932 76.2613 151.083 76.4482 151.278 76.5171C152.167 76.8239 152.483 77.5635 152.731 78.363C153.08 79.5073 153.351 80.6826 153.787 81.7919C154.385 83.3199 155.103 84.8 155.78 86.2981L156.055 86.6499C156.426 87.0436 156.86 87.1506 157.38 86.9737C158.064 86.7468 158.474 86.2801 158.479 85.5735C158.483 84.0795 158.432 82.5824 158.393 81.0863C158.37 80.2498 158.314 79.4103 158.27 78.4439C159.057 78.8647 159.367 79.3434 159.3 80.0639C159.268 80.3967 159.327 80.7435 159.276 81.0723C159.073 82.3655 159.911 83.0751 160.754 83.7746C161.077 84.0415 161.479 84.0455 161.786 83.7587C162.584 83.0121 163.367 82.2466 163.213 80.9874C163.17 80.6616 163.162 80.3048 163.242 79.99C163.552 78.7797 163.438 77.6165 162.968 76.4752C162.812 76.0984 162.743 75.7396 162.977 75.2809C163.52 75.7776 164.087 76.1284 164.419 76.6361C165.202 77.8173 165.892 79.0616 166.575 80.3048C167.115 81.2862 167.572 82.3116 168.095 83.3019C168.369 83.8196 168.775 84.2284 169.421 84.1674C170.076 84.1054 170.516 83.7517 170.699 83.0851C170.812 82.6673 170.98 82.2646 171.145 81.7919L171.29 81.9528L171.335 82.2836C171.426 83.8146 172.253 84.757 173.65 85.2737C174.138 85.4526 174.615 85.6665 175.065 85.9193C176.894 86.9457 178.964 86.5639 180.268 84.9369C180.473 84.6821 180.668 84.4193 180.956 84.0415C181.08 84.6091 181.178 85.0409 181.26 85.4736C181.473 86.54 181.993 87.4374 182.769 88.1779C183.5 88.8755 184.497 88.9275 185.335 88.3568C186.072 87.8531 186.462 87.2055 186.385 86.2721C186.243 84.6061 185.833 83.0221 185.198 81.4901ZM149.577 71.4722C150.225 69.7393 150.837 68.1153 151.445 66.4883L151.735 66.5623C151.735 67.4167 151.612 68.2932 151.769 69.1197C151.916 69.8802 152.364 70.5858 152.745 71.4732H149.577V71.4722ZM178.737 79.951C178.36 80.2638 178.078 80.6916 177.72 81.0363C177.11 81.632 176.345 81.526 176.224 80.7405C176.111 80.014 176.307 79.2285 176.428 78.4779C176.546 77.7444 176.849 77.2187 177.656 76.8949C178.376 76.5991 178.944 75.9305 179.775 75.2769C179.964 77.0858 180.257 78.6818 178.737 79.951Z"/>
</mask>
<path d="M185.198 81.4901C184.576 79.996 184.023 78.4989 184.123 76.8279C184.192 75.6757 184.094 74.5144 184.137 73.3601C184.171 72.4267 184.206 71.4782 184.413 70.5748C184.781 68.9738 185.264 67.3938 185.725 65.8137C185.942 65.0782 185.895 64.3796 185.418 63.79C184.74 62.9465 184.667 62.0021 184.897 61.0267C185.183 59.8274 185.566 58.6492 185.883 57.4559C185.996 57.0292 186.126 56.5794 186.104 56.1447C186.07 55.4052 185.778 54.7196 185.047 54.4178C184.267 54.093 183.569 54.3948 183.034 54.9974C182.666 55.4111 182.283 55.8659 182.084 56.3736C181.731 57.273 181.48 58.2194 181.248 59.1608C180.796 61.0067 180.385 62.8656 179.956 64.7164L179.806 65.1392C178.928 66.4993 178.623 68.0294 178.417 69.6024C178.313 70.4179 177.882 70.9566 177.118 71.4103C176.012 72.0699 174.983 72.9084 174.062 73.8148C173.188 74.6713 172.488 75.7076 171.716 76.667C171.738 76.0124 171.703 75.3479 171.817 74.7122C172.213 72.5066 172.673 70.31 173.099 68.1043C173.31 67.004 173.54 65.8977 173.678 64.7864C173.747 64.2067 173.739 63.5721 173.574 63.0195C173.368 62.3369 172.953 61.7043 172.118 61.6523C171.322 61.5983 170.778 62.0341 170.395 62.6947C170.266 62.9205 170.152 63.1604 170.053 63.4022C169.073 65.8427 168.099 68.2862 167.055 70.8926C166.708 69.2996 166.058 68.1423 164.278 68.552C163.653 67.5117 163.5 66.4314 163.288 65.373C163.119 64.5335 162.719 63.836 162.138 63.2253C161.688 62.7526 161.117 62.7526 160.577 62.9525C160.027 63.1584 159.657 63.5551 159.657 64.2257C159.657 64.7834 159.571 65.339 159.531 65.8987C159.463 66.8271 159.353 67.7575 159.348 68.686C159.345 69.6584 159.403 70.6348 159.515 71.6012C159.681 73.0463 158.802 73.9947 158.047 75.146C157.675 74.3845 157.303 73.7718 157.066 73.1072C156.906 72.6625 156.978 72.1418 156.875 71.6701C156.712 70.9406 156.467 70.231 156.302 69.5015C156.115 68.667 155.964 67.8235 155.821 66.985C155.753 66.5783 155.773 66.1605 155.698 65.7568C155.342 63.811 154.787 61.9001 154.78 59.8934C154.777 59.2668 154.688 58.6212 154.528 58.0146C154.345 57.332 153.839 56.9712 153.322 57.0901C152.661 57.244 151.996 57.4679 151.639 58.1055C151.278 58.7541 150.941 59.4277 150.687 60.1253C150.419 60.8618 150.261 61.6373 150.061 62.3978C149.922 62.9305 149.626 63.2593 149.037 63.2303C147.961 63.1814 147.419 63.8579 147.036 64.7284C146.766 65.346 146.575 65.9986 146.262 66.5943C145.439 68.1763 145.232 69.7843 145.911 71.4693C146.143 72.0439 146.197 72.6305 145.98 73.2212C145.237 75.2539 144.882 77.4336 143.678 79.2974C143.44 79.6662 143.23 80.1129 143.194 80.5437C143.131 81.2702 142.962 82.1716 143.294 82.7173C143.895 83.6867 144.008 84.6491 143.979 85.7045C143.97 85.9263 144.001 86.1582 144.053 86.3731C144.226 87.0616 144.766 87.5543 145.357 87.5863C146.008 87.6173 146.409 87.2815 146.652 86.436C146.832 85.8184 147.049 85.2487 147.528 84.779C148.086 84.2284 148.204 83.5038 147.93 82.7943C147.709 82.2136 147.876 81.7809 148.195 81.3382C148.436 81.0054 148.723 80.6936 148.913 80.3368C149.096 79.985 149.289 79.5842 149.287 79.2065C149.276 77.9442 149.951 77.0458 150.678 76.0674C150.932 76.2613 151.083 76.4482 151.278 76.5171C152.167 76.8239 152.483 77.5635 152.731 78.363C153.08 79.5073 153.351 80.6826 153.787 81.7919C154.385 83.3199 155.103 84.8 155.78 86.2981L156.055 86.6499C156.426 87.0436 156.86 87.1506 157.38 86.9737C158.064 86.7468 158.474 86.2801 158.479 85.5735C158.483 84.0795 158.432 82.5824 158.393 81.0863C158.37 80.2498 158.314 79.4103 158.27 78.4439C159.057 78.8647 159.367 79.3434 159.3 80.0639C159.268 80.3967 159.327 80.7435 159.276 81.0723C159.073 82.3655 159.911 83.0751 160.754 83.7746C161.077 84.0415 161.479 84.0455 161.786 83.7587C162.584 83.0121 163.367 82.2466 163.213 80.9874C163.17 80.6616 163.162 80.3048 163.242 79.99C163.552 78.7797 163.438 77.6165 162.968 76.4752C162.812 76.0984 162.743 75.7396 162.977 75.2809C163.52 75.7776 164.087 76.1284 164.419 76.6361C165.202 77.8173 165.892 79.0616 166.575 80.3048C167.115 81.2862 167.572 82.3116 168.095 83.3019C168.369 83.8196 168.775 84.2284 169.421 84.1674C170.076 84.1054 170.516 83.7517 170.699 83.0851C170.812 82.6673 170.98 82.2646 171.145 81.7919L171.29 81.9528L171.335 82.2836C171.426 83.8146 172.253 84.757 173.65 85.2737C174.138 85.4526 174.615 85.6665 175.065 85.9193C176.894 86.9457 178.964 86.5639 180.268 84.9369C180.473 84.6821 180.668 84.4193 180.956 84.0415C181.08 84.6091 181.178 85.0409 181.26 85.4736C181.473 86.54 181.993 87.4374 182.769 88.1779C183.5 88.8755 184.497 88.9275 185.335 88.3568C186.072 87.8531 186.462 87.2055 186.385 86.2721C186.243 84.6061 185.833 83.0221 185.198 81.4901ZM149.577 71.4722C150.225 69.7393 150.837 68.1153 151.445 66.4883L151.735 66.5623C151.735 67.4167 151.612 68.2932 151.769 69.1197C151.916 69.8802 152.364 70.5858 152.745 71.4732H149.577V71.4722ZM178.737 79.951C178.36 80.2638 178.078 80.6916 177.72 81.0363C177.11 81.632 176.345 81.526 176.224 80.7405C176.111 80.014 176.307 79.2285 176.428 78.4779C176.546 77.7444 176.849 77.2187 177.656 76.8949C178.376 76.5991 178.944 75.9305 179.775 75.2769C179.964 77.0858 180.257 78.6818 178.737 79.951Z" fill="#11B0C8" stroke="#87F54E" stroke-width="2" mask="url(#path-4-inside-3_205_60)"/>
<path d="M108.91 39.6934C109.473 39.2648 109.973 39.2127 110.324 39.3418C110.673 39.4701 111.012 39.8282 111.148 40.5146V40.5156C111.424 41.884 111.312 43.2533 110.94 44.627L110.939 44.6279C110.858 44.9316 110.752 45.2208 110.64 45.5586C110.348 46.4171 110.141 47.3444 110.651 48.4033C110.727 48.5623 110.756 48.7798 110.759 49.0918C110.761 49.2943 110.75 49.575 110.756 49.8447L110.77 50.1074C110.778 50.2088 110.78 50.3191 110.782 50.4453C110.784 50.5664 110.785 50.7063 110.793 50.8428C110.808 51.1078 110.85 51.4441 111.027 51.7402V51.7393C111.665 52.8096 111.433 53.884 111.213 55.2236C111.153 55.5892 111.005 55.9693 110.812 56.3418L110.812 56.3438C110.23 57.4833 110.279 58.6121 110.875 59.666L111.085 60.0371L111.485 59.8877C112.226 59.6115 113.031 59.3452 113.786 59.0107L113.787 59.0117C114.28 58.7952 114.726 58.4896 115.12 58.1836L115.121 58.1826C115.931 57.5506 116.782 56.8073 117.556 56.1885L117.557 56.1875C118.008 55.824 118.436 55.6321 118.944 55.6787V55.6797C119.486 55.7321 119.917 55.5606 120.271 55.3301C120.589 55.1223 120.909 54.8135 121.137 54.625C123.357 52.7917 125.566 50.9587 127.826 49.1973C128.54 48.641 129.381 48.1858 130.239 47.8418H130.24C130.916 47.5692 131.655 47.5142 132.517 47.3701H132.52C132.652 47.3474 132.74 47.3668 132.802 47.3984C132.865 47.4309 132.941 47.4962 133.012 47.6289V47.6299C133.07 47.741 133.066 47.8144 133.049 47.875C133.026 47.9526 132.966 48.0512 132.853 48.165H132.852C131.87 49.1503 130.917 50.1243 129.884 51V51.001C129.403 51.4097 128.852 51.8617 128.516 52.5723V52.5732C127.876 53.9287 126.923 54.9583 125.615 55.6348L125.349 55.7646C125.172 55.8454 125.003 55.9456 124.867 56.0225C124.794 56.0639 124.728 56.1009 124.665 56.1328L124.483 56.2139C122.827 56.8412 121.974 58.153 121.558 59.6318L121.48 59.9297C120.943 62.1782 119.58 63.5835 117.551 64.4658L117.137 64.6357C116.276 64.9671 115.499 65.241 114.621 65.5762L114.62 65.5771C113.818 65.8861 113.254 66.475 113.025 67.1973C112.797 67.9185 112.918 68.7227 113.385 69.4326L113.386 69.4336C113.576 69.7215 113.752 70.012 113.927 70.3096L114.465 71.2256C114.573 71.4082 114.723 71.6987 114.893 71.9346V71.9355C115.986 73.461 117.087 74.9621 118.162 76.4912C118.753 77.3325 119.6 77.5988 120.398 77.7334H120.399C121.368 77.8952 121.955 78.1347 122.343 78.5029C122.677 78.8205 122.916 79.2858 123.073 80.04L123.136 80.3809C123.386 81.9635 124.019 83.2959 124.831 84.5811V84.582C125.291 85.3146 125.683 86.1056 125.723 86.8115V86.8125C125.886 90.0038 126.731 93.0113 127.673 95.9521L128.08 97.209C128.264 97.7708 128.451 98.3606 128.679 98.9355V98.9365C129.035 99.8393 129.002 100.777 128.857 101.785L128.789 102.223C128.735 102.551 128.621 102.694 128.48 102.779C128.306 102.885 128.004 102.956 127.472 102.947L127.015 102.939L126.966 103.395C126.937 103.667 126.938 103.75 126.914 103.855L126.913 103.858C126.827 104.244 126.716 104.419 126.615 104.506C126.523 104.585 126.368 104.652 126.041 104.647C125.545 104.639 125.206 104.347 125.174 103.892V103.891L125.129 103.473C125.012 102.651 124.739 101.91 124.401 101.196L124.228 100.842C124.001 100.396 123.951 99.8297 123.877 99.165C123.784 98.3201 123.526 97.5899 122.98 96.874L122.59 96.3467C121.768 95.1958 121.105 93.991 120.761 92.6221L120.688 92.3027C120.41 90.9727 119.797 89.7386 118.724 88.7871L118.503 88.6006C117.644 87.9096 117.111 87.1184 117.036 86.0254C116.889 83.8476 115.777 82.0151 114.857 80.3066L114.844 80.2812L114.827 80.2568L114.571 79.8906L114.547 79.8574L114.518 79.8271C114.3 79.6056 114.036 79.3802 113.841 79.1992C113.629 79.0028 113.458 78.8246 113.334 78.6348C113.21 78.4427 113.115 78.2146 113.017 77.9297C112.926 77.6664 112.816 77.3028 112.69 76.9668L112.488 76.4268L111.982 76.7041C111.861 76.7704 111.783 76.797 111.624 76.873C111.529 76.9183 111.4 76.9843 111.28 77.0889L111.169 77.2031C110.834 77.6051 110.598 77.9006 110.32 78.0645C110.197 78.137 110.076 78.1749 109.942 78.1787C109.805 78.1825 109.623 78.151 109.381 78.0371L108.808 77.7686L108.679 78.3877L107.801 82.6211C107.504 84.0547 107.217 85.4815 106.912 86.9082C106.834 87.2723 106.757 87.5961 106.628 87.874C105.99 89.2266 105.507 90.6215 105.063 92.0234C104.888 92.5742 104.439 93.119 103.933 93.6426L103.932 93.6436C103.731 93.8519 103.603 93.8721 103.539 93.8682C103.46 93.8633 103.31 93.8117 103.093 93.5781V93.5771L102.793 93.2461C102.512 92.9202 102.287 92.6061 102.138 92.2715C101.946 91.8426 101.87 91.3586 102.008 90.7373C102.302 89.4247 102.488 88.2208 102.979 87.084L103.082 86.8574C103.277 86.4447 103.412 86.0005 103.494 85.5625C103.932 83.2416 104.35 80.9198 104.764 78.5957C104.828 78.2328 104.899 77.802 104.832 77.3711C104.761 76.9109 104.54 76.4821 104.093 76.0986L104.092 76.0977L104.025 76.0342C103.885 75.8838 103.836 75.7064 103.848 75.4951C103.863 75.2337 103.974 74.9325 104.143 74.6514L104.144 74.6523C105.139 73.0073 105.389 71.2414 105.412 69.457C105.418 69.0532 105.541 68.6615 105.662 68.1426L105.663 68.1396C105.807 67.5029 105.97 66.8773 106.129 66.2324L106.219 65.8652L105.89 65.6787L105.625 65.5283L105.298 65.3438L105.029 65.6055C104.847 65.7838 104.56 66.0311 104.343 66.2861L104.342 66.2871C103.88 66.8315 103.427 67.4096 102.99 67.9414C102.82 68.1466 102.666 68.2791 102.521 68.3467C102.396 68.4053 102.259 68.426 102.069 68.3623L102.068 68.3613L101.885 68.2881C101.54 68.1241 101.319 67.8552 101.227 67.4893L101.191 67.2979C101.143 66.8996 101.153 66.4942 101.249 66.165L101.25 66.166C101.423 65.5878 101.621 65.0163 101.823 64.4336C102.024 63.8544 102.229 63.2635 102.41 62.6641C102.644 61.8963 102.781 61.0673 102.943 60.3447C103.035 59.9407 103.11 59.4964 103.187 59.1191C103.267 58.7239 103.356 58.357 103.487 58.0176C104.485 55.4431 105.091 52.7614 105.548 50.1016C105.906 48.0135 105.725 45.7796 105.762 43.7578C105.769 43.3999 105.746 43.0342 105.732 42.7109C105.718 42.3766 105.714 42.0717 105.746 41.7803L105.745 41.7793C105.79 41.4044 105.95 40.9926 106.171 40.6631L106.172 40.6641C106.463 40.2291 106.581 40.1605 106.68 40.1357C106.743 40.1199 106.846 40.1117 107.034 40.1377C107.223 40.1639 107.464 40.219 107.794 40.3027L108.027 40.3613L108.219 40.2158C108.435 40.0519 108.669 39.876 108.909 39.6943L108.91 39.6934Z" fill="#11B0C8" stroke="#87F54E"/>
<path d="M282.581 48.0039H282.584C282.805 48.0053 282.981 48.0668 283.111 48.1719C283.224 48.2624 283.332 48.4098 283.399 48.6504L283.426 48.7598C283.696 50.086 283.83 51.4374 284.002 52.8271C284.063 53.3325 284.016 54.2399 284.77 54.9346L285.186 55.3174L285.515 54.8584C285.704 54.5948 285.825 54.4111 285.969 54.2275L285.97 54.2266C286.951 52.9643 287.839 51.7086 288.862 50.5498L288.863 50.5508C289.332 50.0206 289.71 49.8086 290.069 49.7588C290.442 49.7073 290.9 49.8136 291.562 50.1523L291.562 50.1533C292.511 50.6371 293.559 50.9183 294.713 50.6582H294.714C295.658 50.4434 296.457 50.6902 297.196 51.3252L297.344 51.458C297.693 51.7889 297.873 52.0979 297.93 52.3828C297.984 52.6571 297.938 52.9728 297.706 53.3545V53.3555C297.472 53.7425 297.365 54.1198 297.41 54.5127C297.453 54.8861 297.628 55.2105 297.816 55.5029L297.817 55.5049C298.364 56.3444 298.898 57.3914 299.678 58.2471L299.68 58.249C299.806 58.3868 299.909 58.5907 300.003 58.8701C300.102 59.1653 300.161 59.4347 300.26 59.7764V59.7773C300.367 60.1494 300.366 60.5177 300.422 61.0293C300.486 61.6159 300.377 62.144 300.071 62.6562C299.461 63.6766 298.803 64.528 297.831 65.0537C297.488 65.2384 297.226 65.3801 296.967 65.4297C295.97 65.6204 295.127 66.0565 294.352 66.6572C293.808 67.078 293.185 67.3737 292.501 67.7539L292.498 67.7559C292.346 67.8414 292.184 67.9084 291.982 67.9971C291.792 68.0806 291.571 68.1826 291.361 68.3223H291.36C290.969 68.584 290.718 68.9877 290.711 69.4326C290.704 69.8883 290.956 70.2962 291.383 70.5332V70.5342C292.868 71.3615 293.702 72.7486 294.656 74.2686V74.2676C294.934 74.7112 294.986 75.2072 294.934 75.7627L294.905 76.0049C294.734 77.2453 295.029 78.2511 295.79 79.2695C297.225 81.19 297.805 83.4108 297.549 85.7666L297.486 86.2393C297.203 88.0515 297.6 89.6441 298.262 91.1973V91.1982C298.643 92.107 298.965 93.0462 299.252 93.9971L299.253 93.998C299.385 94.431 299.303 94.8745 299.016 95.2744L299.015 95.2754C298.713 95.6959 298.324 95.9042 297.942 95.9395C297.56 95.9747 297.133 95.8413 296.747 95.4785L296.746 95.4775C296.04 94.8142 295.622 93.9595 295.382 93.0049L295.29 92.5908C295.038 91.2814 294.719 89.9949 294.242 88.7236V88.7227L294.175 88.5166C294.038 88.0215 294.032 87.4315 294.062 86.8203C294.139 85.2228 293.689 83.8469 292.506 82.6865V82.6855C292.055 82.2441 291.677 81.6754 291.337 81.0762C290.449 79.5076 289.402 78.03 287.968 76.8477L287.676 76.6152C287.356 76.3698 287 76.121 286.755 75.9395L286.012 75.3896L285.958 76.3115C285.928 76.8151 285.964 77.3042 285.865 77.8389C285.678 78.826 285.55 79.7383 285.192 80.5381L285.191 80.5391C284.701 81.6379 284.427 82.7381 284.351 83.915L284.33 84.4248C284.317 85.2283 284.196 86.0577 283.914 86.7578C283.704 87.2758 283.324 87.5473 282.937 87.6152C282.547 87.6835 282.095 87.5553 281.727 87.1572H281.728C281.566 86.9821 281.437 86.6632 281.394 86.3486C281.342 85.946 281.389 85.5079 281.45 85.0186V85.0166C281.601 83.7805 281.588 82.5609 281.426 81.3135L281.394 80.9863C281.348 80.3257 281.416 79.6241 281.571 78.9648L281.656 78.6396C282.016 77.386 282.006 76.2281 281.336 75.0264V75.0254L281.257 74.873C280.89 74.1072 280.943 73.2738 281.279 72.4023V72.4014C281.386 72.1245 281.514 71.8533 281.651 71.5635C281.786 71.2791 281.932 70.975 282.055 70.6592L282.054 70.6582C282.28 70.0811 282.368 69.5218 282.186 69.001C282.002 68.4767 281.585 68.1008 281.048 67.8066H281.047C280.364 67.4292 279.982 66.9682 279.94 66.2959V66.2949C279.894 65.5558 279.828 64.9129 279.955 64.3262C280.392 62.3215 280.696 60.314 280.746 58.2305C280.769 57.3299 280.879 56.4251 281.01 55.502C281.139 54.5875 281.29 53.6421 281.387 52.7002C281.437 52.2083 281.458 51.7055 281.47 51.21L281.502 49.7617C281.507 49.6117 281.503 49.363 281.505 49.2539C281.508 49.1025 281.519 48.988 281.545 48.8936L281.546 48.8906C281.702 48.3092 282.154 47.9983 282.581 48.0039ZM291.033 56.9512C290.638 56.9643 290.282 57.0242 289.966 57.1787C289.318 57.4956 289.001 58.1343 288.674 58.9463V58.9473C288.5 59.3819 288.281 59.709 287.999 59.9561C287.717 60.2028 287.345 60.3932 286.828 60.5137L286.301 60.6367L286.466 61.1523C286.53 61.3532 286.545 61.5046 286.61 61.7715C286.659 61.9724 286.751 62.3004 287.015 62.5176C287.636 63.03 288.113 63.6358 288.522 64.3428L288.524 64.3447C288.64 64.5416 288.818 64.6582 288.927 64.7256C289.065 64.8119 289.144 64.8512 289.263 64.9346L289.645 65.2031L289.939 64.8408C290.155 64.5749 290.351 64.3674 290.582 64.0957C290.797 63.8425 291.015 63.5645 291.185 63.2461V63.2451C291.317 62.996 291.459 62.69 291.553 62.3721C291.644 62.0627 291.704 61.691 291.618 61.333H291.619C291.448 60.6093 291.379 60.0001 291.509 59.4609C291.633 58.9451 291.954 58.4336 292.689 57.9355L293.841 57.1562L292.456 57.0244C291.896 56.971 291.427 56.9381 291.033 56.9512Z" fill="#11B0C8" stroke="#87F54E"/>
<path d="M314.161 43.3955C314.742 43.3025 315.157 43.4319 315.405 43.6494C315.647 43.8612 315.812 44.2275 315.756 44.7881C315.693 45.3813 315.451 46.0084 315.146 46.6045V46.6055C314.878 47.1315 314.586 47.6363 314.284 48.1436L313.362 49.6943C313.215 49.9491 313.088 50.1822 313.006 50.3965C312.921 50.6161 312.868 50.8531 312.907 51.1074C312.946 51.3629 313.068 51.5742 313.218 51.7588C313.291 51.8486 313.376 51.9388 313.471 52.0312L313.78 52.3154C314.67 53.1006 314.682 54.0889 314.496 55.3535L314.455 55.4854C313.675 57.0155 313.3 58.6472 312.996 60.2529L312.868 60.9453C312.567 62.6032 312.082 64.2115 311.367 65.7422C311.228 66.039 311.129 66.3461 311.044 66.6387C310.954 66.9472 310.888 67.2085 310.799 67.4941L310.665 67.9219L311.075 68.1016C312.121 68.5604 313.072 68.328 313.769 68.2383H313.771C314.684 68.1161 315.067 68.1092 315.341 68.2139C315.596 68.3118 315.829 68.5375 316.314 69.208L316.465 69.415H316.72C317.085 69.415 317.442 69.413 317.796 69.4121L318.849 69.417C319.669 69.431 320.343 69.7125 320.849 70.3135L320.851 70.3154C321.259 70.7944 321.736 71.004 322.311 71.0791C322.957 71.164 323.588 71.2859 324.157 71.501V71.502C324.555 71.6516 324.955 71.9214 325.261 72.2373L325.262 72.2383C325.55 72.5352 325.632 72.7974 325.619 73.0068C325.606 73.2211 325.486 73.482 325.171 73.7588C324.91 73.9862 324.652 74.1336 324.297 74.3916L324.103 74.5322L324.091 74.7725C324.058 75.4649 323.909 75.7926 323.718 75.9639C323.524 76.1382 323.167 76.2589 322.448 76.2334H322.449C321.47 76.1952 320.586 75.8917 319.816 75.3066L319.815 75.3057L319.668 75.1992C318.931 74.6943 318.179 74.5663 317.26 74.7119C315.861 74.9281 314.565 74.8256 313.485 73.959L313.272 73.7754C313.054 73.5726 312.794 73.4517 312.579 73.3643C312.329 73.2625 312.179 73.2188 311.996 73.1328L311.729 73.0068L311.489 73.1807L311.216 73.3799L310.998 73.5391L311.012 73.8076C311.043 74.4636 311.034 75.2311 311.124 75.9482C311.305 77.4172 311.225 78.7622 310.531 80.002C310.199 80.5937 310.171 81.2109 310.409 81.8262C310.765 82.7511 310.637 83.7073 310.554 84.8369C310.537 85.0224 310.427 85.2684 310.263 85.501C309.455 86.6322 309.177 87.8902 309.035 89.1377L308.981 89.6709C308.752 92.1932 308.467 94.7159 308.168 97.2373C308.104 97.7688 307.914 98.2627 307.733 98.8857C307.419 99.9613 307.096 101.032 306.77 102.099C306.695 102.341 306.652 102.493 306.578 102.622C306.38 102.961 306.2 103.031 306.113 103.038C306.032 103.044 305.852 103.008 305.618 102.698C305.1 102.009 304.911 101.153 304.89 100.231C304.841 98.112 304.892 96.0688 305.438 94.0244V94.0234C305.653 93.2083 305.724 92.3666 305.753 91.5449C305.783 90.6854 305.769 89.9373 305.811 89.1221V89.1182C305.827 88.7463 305.691 88.3778 305.552 88.1152L305.551 88.1133C304.909 86.9107 305.029 85.6837 305.584 84.4326C305.744 84.0762 305.837 83.7266 305.823 83.3613C305.81 82.9937 305.691 82.6541 305.503 82.3184L305.502 82.3174L305.416 82.1543C305.222 81.7666 305.084 81.3271 304.955 80.8604V80.8584L304.91 80.6641C304.832 80.2132 304.927 79.7779 305.199 79.3096L305.2 79.3105C305.486 78.8266 305.795 78.1794 305.817 77.5254V77.5244C305.852 76.4251 306.056 75.4426 306.586 74.5371L306.585 74.5361C306.666 74.399 306.709 74.2585 306.739 74.1494C306.773 74.0251 306.794 73.9319 306.836 73.7998L307.071 73.0586L306.299 73.1523C305.725 73.2223 305.252 73.0488 304.744 72.7656C304.478 72.6169 304.24 72.4621 303.949 72.2871C303.672 72.1207 303.369 71.9508 303.037 71.8242C302.302 71.544 301.47 71.1741 300.458 71.2656C300.065 71.3004 299.805 71.2061 299.626 71.0547C299.439 70.8962 299.28 70.6249 299.196 70.2012C299.129 69.8597 299.178 69.6335 299.27 69.4854C299.361 69.3382 299.54 69.1933 299.88 69.1035H299.881C300.134 69.0365 300.402 68.9946 300.662 68.9805H300.664C301.382 68.9376 302.092 68.7558 302.712 68.2314C303.147 67.864 303.683 67.793 304.396 67.79H304.396C305.081 67.7869 305.729 67.6705 306.12 67.1963C306.463 66.7804 306.5 66.2221 306.412 65.626L306.367 65.3682L306.33 65.1641C306.168 64.15 306.309 63.2085 306.756 62.2959C307.179 61.4356 307.389 60.5389 307.375 59.5752V59.3486C307.393 58.2283 307.696 57.1412 308.083 56.0176L308.082 56.0166C308.309 55.3664 308.592 54.6388 308.732 53.8848L308.783 53.5596C309.053 51.4127 310.013 49.5309 310.979 47.5205C311.348 46.7519 311.733 45.9732 312.086 45.1846C312.531 44.1911 313.154 43.5569 314.161 43.3955Z" fill="#11B0C8" stroke="#87F54E"/>
<path d="M90.7451 55.0273C91.3168 54.9912 91.7412 55.1365 92.043 55.498V55.499C92.3087 55.8202 92.6155 55.9992 92.957 56.0762C93.273 56.1474 93.5955 56.1239 93.8711 56.0986L93.8701 56.0977C95.0787 55.9901 96.2822 55.9737 97.5293 55.9199H97.5303C98.0581 55.8966 98.4165 56.0931 98.6377 56.5205L98.6387 56.5225C98.8396 56.9079 98.7929 57.2969 98.54 57.7148L98.4189 57.8955C97.5507 59.0821 96.317 59.5532 94.8135 59.6113H94.8125C94.5013 59.6236 94.1894 59.6299 93.876 59.6318L92.9307 59.6289C92.0809 59.6212 91.2738 59.8132 90.4775 60.3174L90.0996 60.5566L90.2949 60.959C90.4848 61.3494 90.4809 61.6684 90.3818 61.9512C90.2758 62.2538 90.0461 62.5538 89.7217 62.8516C88.4664 64.0033 87.1496 65.085 85.8281 66.1953C84.8485 67.0198 83.7749 67.9819 83.5527 69.6396L83.5107 69.9531L83.7754 70.126C84.0321 70.2926 84.1776 70.383 84.3271 70.4834L84.3291 70.4844C84.9817 70.9187 85.2606 71.2554 85.3574 71.585C85.4546 71.9158 85.4048 72.3644 85.0811 73.1152C84.9493 73.4196 84.7753 73.7154 84.5791 74.0283C84.3892 74.3312 84.1676 74.6667 83.9766 75.0039L83.9756 75.0049C83.6811 75.5276 83.3868 76.0703 83.1357 76.6387C82.9875 76.9742 82.9164 77.358 82.9219 77.7158V77.7168C82.9284 78.2829 83.1665 78.7881 83.626 79.0508C84.0856 79.3135 84.6415 79.2624 85.1328 78.9795L85.1357 78.9775C85.4284 78.8066 85.7046 78.6155 85.9648 78.4326C86.2301 78.2463 86.4764 78.0704 86.7314 77.9102L86.7344 77.9082C87.336 77.5248 87.8774 77.434 88.458 77.7363L88.46 77.7373C88.7472 77.8857 89.0649 77.9817 89.4033 77.9639C89.7484 77.9456 90.0688 77.8114 90.3584 77.5762L90.3594 77.5752C90.6312 77.353 90.8744 77.2913 91.1016 77.3066C91.3455 77.3232 91.6222 77.4326 91.9346 77.6426L91.9365 77.6436C92.1253 77.7694 92.3106 77.9068 92.5049 78.0527C92.6957 78.1961 92.8979 78.3498 93.1055 78.4951C93.8161 78.9942 94.4767 79.2974 95.1836 79.292C95.89 79.2864 96.5446 78.9737 97.2451 78.4678C97.7389 78.1112 98.1028 77.9911 98.3477 77.998C98.547 78.0037 98.7453 78.095 98.9375 78.416V78.417C99.1157 78.7175 99.1989 79.1958 99.1387 79.5664V79.5684C98.8129 81.6087 96.9485 82.9521 94.916 82.6133C93.7797 82.4234 92.8107 82.6432 91.9248 83.4473C91.5199 83.8111 91.0532 84.1244 90.5791 84.3047H90.5781C90.3838 84.379 90.1592 84.438 89.9453 84.4609C89.726 84.4845 89.5538 84.4669 89.4404 84.4238C89.0082 84.2596 88.5946 84.2276 88.208 84.3447C87.8276 84.4599 87.5294 84.7021 87.292 84.9834C86.8096 85.5537 86.4046 86.1955 86.0635 86.8389V86.8398C85.844 87.2572 85.6605 87.6919 85.4863 88.1016C85.3534 88.4142 85.2251 88.7137 85.085 89L84.9404 89.2812C84.6876 89.7478 84.3412 90.1937 83.9541 90.5576C83.7991 90.7006 83.649 90.7415 83.5225 90.7324C83.3913 90.7229 83.2306 90.6556 83.0732 90.4824L83.0703 90.4785L82.9111 90.2871C82.7614 90.0845 82.642 89.8547 82.5781 89.6357C82.4505 89.1945 82.3991 88.7087 82.3887 88.2129V88.2119C82.3792 87.7792 82.3343 87.3337 82.167 86.9141C81.9947 86.4822 81.7043 86.1044 81.251 85.79L81.249 85.7891L81.1357 85.7051C80.8864 85.5048 80.7369 85.2726 80.6562 85.0146C80.5613 84.7108 80.5522 84.3391 80.6377 83.9004C80.7472 83.3448 80.7614 82.7765 80.4053 82.3613C80.0585 81.9572 79.4977 81.8634 78.9424 81.8496H78.9395C78.3694 81.8387 77.9041 81.8637 77.4014 81.8223H77.3994C76.9108 81.7842 76.6583 81.659 76.5293 81.5205C76.4093 81.3917 76.3125 81.1609 76.3516 80.7031V80.7021C76.4029 80.094 76.6367 79.4871 76.873 78.79V78.7891C76.9116 78.6748 76.976 78.5558 77.0762 78.3955C77.1675 78.2494 77.3077 78.0412 77.4336 77.8242L77.8691 77.0732H77.001C76.6824 77.0732 76.5687 77.0843 76.4238 77.0732H76.4229C76.046 77.0445 75.7896 76.9116 75.6436 76.749C75.5058 76.5956 75.42 76.365 75.4766 76.0244V76.0234C75.5744 75.425 75.7996 74.8161 76.082 74.2324L76.207 73.9824C76.4336 73.5396 76.8147 73.1864 77.2578 72.7021H77.2588C77.9099 71.9891 78.2913 71.1458 78.3428 70.168C78.4095 68.9515 78.7169 67.8488 79.3066 66.75L79.3076 66.748C79.7954 65.8293 79.9296 64.7044 80.0508 63.7764C80.1986 62.6694 80.4419 61.9853 80.8516 61.501C81.2598 61.0185 81.8911 60.6658 82.9697 60.3555V60.3564L82.9785 60.3535L83.4951 60.1934C84.1118 60.0761 84.6597 59.8498 85.0791 59.4385C85.5123 59.0136 85.759 58.4421 85.8486 57.7373C85.8909 57.4154 86.1843 56.9709 86.5332 56.6768C87.735 55.6643 89.1554 55.132 90.7461 55.0283L90.7451 55.0273Z" fill="#11B0C8" stroke="#87F54E"/>
<path d="M264.193 55.8748C265.769 54.4177 267.648 54.1644 269.747 54.9011C271.28 55.4419 272.525 56.3874 273.711 57.5593V57.5603C274.302 58.143 274.578 58.8019 274.67 59.6355C274.717 60.099 274.824 60.634 275.068 61.0964C275.964 62.7867 276.011 64.5562 275.499 66.3953V66.3972C275.347 66.9504 275.117 67.49 274.862 68.0427L274.601 68.6003C274.292 69.2502 274.178 69.8795 274.281 70.5046C274.384 71.1234 274.692 71.6866 275.136 72.2244V72.2253C275.932 73.1958 276.602 74.2105 276.942 75.3923L277.006 75.6316C277.273 76.7351 276.946 77.7221 276.372 78.6335L276.112 79.0203C274.845 80.7927 273.452 82.4941 271.932 84.032C271.548 84.4204 271.067 84.7374 270.525 85.0457C270.255 85.1997 269.978 85.3472 269.691 85.5007C269.408 85.6528 269.117 85.8101 268.835 85.9783C268.677 86.0716 268.501 86.1039 268.431 86.0906H268.43C267.808 85.9738 267.228 86.0318 266.693 86.1355C266.428 86.1871 266.166 86.2522 265.917 86.3132C265.664 86.3752 265.425 86.4332 265.185 86.4802C264.582 86.5971 264.192 86.551 263.903 86.406C263.612 86.2597 263.342 85.9711 263.066 85.4294H263.065C262.805 84.9183 262.438 84.6888 262.026 84.5076L262.023 84.5056C261.45 84.2569 260.894 83.9409 260.346 83.5945L259.809 83.2644C259.284 82.966 258.665 82.7187 257.89 82.8552L257.677 82.9011C257.412 82.9689 257.18 82.9227 256.989 82.7966C256.793 82.6669 256.611 82.4308 256.508 82.073L256.507 82.072C256.299 81.3573 256.277 80.6445 256.179 79.9197C256.241 79.2516 256.282 78.6898 256.338 78.1521L256.402 77.6042C256.663 75.6316 256.438 73.7411 255.106 72.0261V72.0251L254.972 71.8328C254.349 70.8339 254.447 69.3083 255.332 68.2585C256.24 67.1834 256.707 66.015 256.919 64.6941V64.6931C257.226 62.7639 258.444 61.4788 260.122 60.4089C260.584 60.1145 260.962 59.6917 261.268 59.3328H261.269C261.772 58.7424 262.251 58.104 262.717 57.5193C263.19 56.9244 263.665 56.3641 264.193 55.8748ZM265.075 62.533C264.564 62.7843 264.044 63.1129 263.678 63.5701C263.296 64.0468 263.098 64.6459 263.219 65.3679V65.3689C263.328 66.0235 263.282 66.5692 263.105 67.0476C262.929 67.5275 262.608 67.9737 262.119 68.4089C260.95 69.4487 260.547 70.7882 260.771 72.2615L260.825 72.5574C260.876 72.8073 260.922 73.0595 260.969 73.3171C261.015 73.5736 261.063 73.8364 261.115 74.0984C261.169 74.3687 261.267 74.6903 261.502 74.9382C261.759 75.2103 262.111 75.3232 262.516 75.3054H262.519C262.983 75.283 263.323 75.5079 263.655 75.95L263.797 76.1531C264.278 76.8931 264.75 77.6377 265.288 78.4763L265.452 78.7312L265.754 78.7039C266.4 78.6457 267.126 78.5755 267.815 78.5085L268.225 78.4695L268.265 78.0603C268.317 77.5318 268.367 77.161 268.308 76.7908C268.247 76.4156 268.08 76.0556 267.812 75.4988V75.4978L267.715 75.2859C267.268 74.2305 267.308 73.1904 267.752 72.1023C267.891 71.7629 268.096 71.3328 268.23 70.9226C268.378 70.4729 268.448 70.0356 268.305 69.614C268.162 69.1939 267.842 68.8905 267.457 68.6238H267.458C267.3 68.5133 267.136 68.4189 266.992 68.3357C266.918 68.2925 266.848 68.2523 266.782 68.2126L266.594 68.0925C266.052 67.7223 265.673 67.3118 265.457 66.8582C265.244 66.411 265.171 65.8845 265.297 65.2419V65.239C265.434 64.527 265.613 63.829 265.783 63.0945L266.021 62.0681L265.075 62.533Z" fill="#11B0C8" stroke="#87F54E"/>
<path d="M69.2881 54.0872V54.0881C69.6509 54.1222 69.8363 54.2201 69.9404 54.3274C70.0439 54.434 70.1353 54.6203 70.1611 54.9768V55.3596C69.9468 56.5771 70.0814 57.7356 70.6436 58.8879C70.9721 59.5614 70.9131 60.3036 70.6562 61.1028L70.5342 61.4495C70.0155 62.8212 69.7619 64.2322 69.8057 65.7102C69.8205 66.2159 69.8901 66.7157 70.1104 67.1741C70.3077 67.5846 70.6117 67.9323 71.0449 68.2219L71.2393 68.343C71.9638 68.7702 72.307 69.3053 72.4072 69.8264C72.5092 70.3571 72.3722 70.9422 72.0068 71.4778L72.0059 71.4788C71.8009 71.781 71.6279 72.0984 71.4688 72.3958C71.3058 72.7001 71.1586 72.9813 70.9912 73.2463C70.7284 73.6627 70.5806 74.0985 70.5635 74.553C70.5465 75.0061 70.6603 75.446 70.873 75.8704V75.8713L70.877 75.8782L70.9814 76.0774V76.0784L70.9834 76.0813C71.6494 77.3307 71.7973 78.5821 71.2969 79.8909L71.2949 79.8958C71.2203 80.0962 71.1647 80.316 71.1191 80.4749C71.0691 80.6495 71.0237 80.7815 70.9639 80.8909L70.9619 80.8948C69.8721 82.9258 69.6554 85.0794 69.8086 87.2737V87.2747C69.8689 88.0973 69.729 88.9318 69.624 89.8577L69.623 89.8606C69.6043 90.0342 69.5084 90.2495 69.3652 90.4836C69.1335 90.8453 68.8852 90.9763 68.6855 90.9963C68.5093 91.0139 68.277 90.9545 68.0166 90.7268L67.9033 90.6194C67.3388 90.0321 67.1422 89.2648 67.1064 88.3674C67.0824 87.7542 67.0915 87.149 67.0967 86.5227H67.1309V86.0227C67.1309 85.3369 67.12 84.6746 67.1328 84.0071L67.1318 84.0061C67.1505 83.2961 67.0263 82.6077 66.6729 81.9661L66.5068 81.6936C66.1204 81.1126 65.9872 80.5153 66.1416 79.8411C66.2991 79.1657 66.2754 78.4899 66.0283 77.8264L65.9082 77.5422C65.6509 76.9959 65.7495 76.4314 65.8594 75.6213C65.938 75.0538 65.9792 74.4784 66.0059 73.9084L66.0693 72.2268C66.1021 71.4903 65.7842 70.8867 65.2207 70.4504C64.7315 70.0718 64.4832 69.6554 64.3877 69.218C64.2899 68.7699 64.3425 68.2529 64.5371 67.6692C64.6603 67.3026 64.8116 66.9403 64.9746 66.5657C65.135 66.1969 65.3105 65.808 65.4658 65.4153C65.6357 64.9896 65.8544 64.4808 65.9521 63.9495C66.0095 63.6374 66.0075 63.2896 65.874 62.9631C65.7355 62.6244 65.4725 62.3528 65.0957 62.1819L64.9854 62.1272C64.7474 61.9961 64.641 61.8447 64.5879 61.6926C64.5192 61.4957 64.5156 61.2264 64.5918 60.8625C64.616 60.7483 64.6399 60.599 64.6553 60.5168C64.6741 60.4158 64.6923 60.3409 64.7158 60.2786L64.7168 60.2766C65.2392 58.884 65.4195 57.4678 65.2256 55.9622L65.2246 55.9612C65.1434 55.3385 65.2564 55.1426 65.3369 55.0696C65.4457 54.9713 65.7179 54.8761 66.3906 54.9172C66.8241 54.9439 67.2436 54.7139 67.4883 54.5481L67.4873 54.5471C68.0406 54.1776 68.6328 54.0308 69.2881 54.0872Z" fill="#11B0C8" stroke="#87F54E"/>
<path d="M67.3184 37.5066C67.6769 37.4653 68.039 37.63 68.3145 37.9724C68.5905 38.3156 68.7482 38.8062 68.6865 39.3162V39.3191C68.639 39.7362 68.5495 40.1235 68.4482 40.696L68.3281 41.3728L69.0088 41.2781C69.8165 41.1658 70.3291 41.3493 70.5996 41.6199C70.8601 41.8806 71.0072 42.3348 70.8379 43.0291C70.4618 44.5603 70.2393 46.0929 70.124 47.6501C70.0498 48.6513 69.6156 49.3515 68.7695 49.6589V49.6599C67.9737 49.9497 67.1891 49.7965 66.4639 49.2605L66.3193 49.1482C65.7379 48.6716 65.1715 48.2277 64.6309 47.7439H64.6318C63.9333 47.1135 63.8034 46.3001 64.0811 45.3767L64.082 45.3777C64.3062 44.6478 64.6559 43.9332 65.042 43.2185L65.043 43.2175C65.2451 42.8415 65.4175 42.4367 65.4463 41.9949C65.4725 41.5926 65.3779 41.1993 65.1514 40.8025L65.0459 40.6326C64.6446 40.0167 64.7893 39.0781 65.3623 38.4392C65.8705 37.8727 66.5451 37.5955 67.3184 37.5066Z" fill="#11B0C8" stroke="#87F54E"/>
<mask id="path-12-inside-4_205_60" fill="white">
<path d="M320.67 109.096V109.312H320.053V110.926H319.803V109.312H319.185V109.096"/>
</mask>
<path d="M320.67 109.096V109.312H320.053V110.926H319.803V109.312H319.185V109.096" fill="#11B0C8"/>
<path d="M320.67 109.312V110.312H321.67V109.312H320.67ZM320.053 109.312V108.312H319.053V109.312H320.053ZM320.053 110.926V111.926H321.053V110.926H320.053ZM319.803 110.926H318.803V111.926H319.803V110.926ZM319.803 109.312H320.803V108.312H319.803V109.312ZM319.185 109.312H318.185V110.312H319.185V109.312ZM320.67 109.096H319.67V109.312H320.67H321.67V109.096H320.67ZM320.67 109.312V108.312H320.053V109.312V110.312H320.67V109.312ZM320.053 109.312H319.053V110.926H320.053H321.053V109.312H320.053ZM320.053 110.926V109.926H319.803V110.926V111.926H320.053V110.926ZM319.803 110.926H320.803V109.312H319.803H318.803V110.926H319.803ZM319.803 109.312V108.312H319.185V109.312V110.312H319.803V109.312ZM319.185 109.312H320.185V109.096H319.185H318.185V109.312H319.185Z" fill="#87F54E" mask="url(#path-12-inside-4_205_60)"/>
<mask id="path-14-inside-5_205_60" fill="white">
<path d="M320.84 109.096H321.191L321.72 110.642L322.244 109.096H322.593V110.926H322.362V109.855L322.364 109.658V109.383L321.841 110.926H321.597L321.06 109.383V109.437L321.074 109.643V110.926H320.84"/>
</mask>
<path d="M320.84 109.096H321.191L321.72 110.642L322.244 109.096H322.593V110.926H322.362V109.855L322.364 109.658V109.383L321.841 110.926H321.597L321.06 109.383V109.437L321.074 109.643V110.926H320.84" fill="#11B0C8"/>
<path d="M321.191 109.096L322.138 108.772L321.906 108.096H321.191V109.096ZM321.72 110.642L320.774 110.966L321.725 113.745L322.667 110.963L321.72 110.642ZM322.244 109.096V108.096H321.527L321.297 108.775L322.244 109.096ZM322.593 109.096H323.593V108.096H322.593V109.096ZM322.593 110.926V111.926H323.593V110.926H322.593ZM322.362 110.926H321.362V111.926H322.362V110.926ZM322.362 109.855L321.362 109.845V109.855H322.362ZM322.364 109.658L323.364 109.668V109.658H322.364ZM322.364 109.383H323.364L321.417 109.061L322.364 109.383ZM321.841 110.926V111.926H322.557L322.788 111.247L321.841 110.926ZM321.597 110.926L320.652 111.254L320.886 111.926H321.597V110.926ZM321.06 109.383L322.004 109.054L320.06 109.383H321.06ZM321.06 109.437H320.06V109.471L320.062 109.504L321.06 109.437ZM321.074 109.643H322.074V109.609L322.072 109.575L321.074 109.643ZM321.074 110.926V111.926H322.074V110.926H321.074ZM320.84 109.096V110.096H321.191V109.096V108.096H320.84V109.096ZM321.191 109.096L320.245 109.42L320.774 110.966L321.72 110.642L322.666 110.318L322.138 108.772L321.191 109.096ZM321.72 110.642L322.667 110.963L323.191 109.417L322.244 109.096L321.297 108.775L320.773 110.321L321.72 110.642ZM322.244 109.096V110.096H322.593V109.096V108.096H322.244V109.096ZM322.593 109.096H321.593V110.926H322.593H323.593V109.096H322.593ZM322.593 110.926V109.926H322.362V110.926V111.926H322.593V110.926ZM322.362 110.926H323.362V109.855H322.362H321.362V110.926H322.362ZM322.362 109.855L323.362 109.866L323.364 109.668L322.364 109.658L321.364 109.647L321.362 109.845L322.362 109.855ZM322.364 109.658H323.364V109.383H322.364H321.364V109.658H322.364ZM322.364 109.383L321.417 109.061L320.894 110.604L321.841 110.926L322.788 111.247L323.311 109.704L322.364 109.383ZM321.841 110.926V109.926H321.597V110.926V111.926H321.841V110.926ZM321.597 110.926L322.541 110.597L322.004 109.054L321.06 109.383L320.115 109.711L320.652 111.254L321.597 110.926ZM321.06 109.383H320.06V109.437H321.06H322.06V109.383H321.06ZM321.06 109.437L320.062 109.504L320.076 109.71L321.074 109.643L322.072 109.575L322.058 109.369L321.06 109.437ZM321.074 109.643H320.074V110.926H321.074H322.074V109.643H321.074ZM321.074 110.926V109.926H320.84V110.926V111.926H321.074V110.926Z" fill="#87F54E" mask="url(#path-14-inside-5_205_60)"/>
</g>
<defs>
<filter id="filter0_d_205_60" x="-4" y="0" width="387" height="135" filterUnits="userSpaceOnUse" color-interpolation-filters="sRGB">
<feFlood flood-opacity="0" result="BackgroundImageFix"/>
<feColorMatrix in="SourceAlpha" type="matrix" values="0 0 0 0 0 0 0 0 0 0 0 0 0 0 0 0 0 0 127 0" result="hardAlpha"/>
<feOffset/>
<feGaussianBlur stdDeviation="7.5"/>
<feComposite in2="hardAlpha" operator="out"/>
<feColorMatrix type="matrix" values="0 0 0 0 0.529412 0 0 0 0 0.960784 0 0 0 0 0.305882 0 0 0 1 0"/>
<feBlend mode="normal" in2="BackgroundImageFix" result="effect1_dropShadow_205_60"/>
<feBlend mode="normal" in="SourceGraphic" in2="effect1_dropShadow_205_60" result="shape"/>
</filter>
</defs>
</svg>
