<svg width="351" height="192" viewBox="0 0 351 192" fill="none" xmlns="http://www.w3.org/2000/svg">
<path d="M33.9775 56.0881L57.2778 54.5435L79.9305 78.2263L76.8417 93.6717L55.2181 104.998L48.0104 87.4936L33.9775 56.0881Z" fill="#AE9989" stroke="#1D1D1B" stroke-width="1.7079" stroke-miterlimit="10"/>
<path d="M37.199 107.573C51.416 107.573 62.9411 96.0476 62.9411 81.8306C62.9411 67.6137 51.416 56.0886 37.199 56.0886C22.9821 56.0886 11.457 67.6137 11.457 81.8306C11.457 96.0476 22.9821 107.573 37.199 107.573Z" fill="#63604A" stroke="#1D1D1B" stroke-width="1.7079" stroke-miterlimit="10"/>
<path d="M52.7252 55.4999C53.2014 57.5035 58.1613 60.5579 61.1665 59.8435L60.1193 53.2128C60.1193 53.2128 52.0108 52.4947 52.7252 55.4999Z" fill="#88822C" stroke="#1D1D1B" stroke-width="1.7079" stroke-miterlimit="10"/>
<path d="M64.4862 51.4548C62.427 51.4548 59.4969 52.8498 58.8232 57.1179C58.3895 59.8644 60.8779 63.0975 62.9041 65.8951C63.2586 66.3844 64.0232 66.1836 64.0906 65.5831C64.2792 63.8965 64.7675 61.4706 66.0309 60.2072C68.0901 58.148 69.1202 56.0883 69.1202 55.0587C69.1197 52.4844 66.5455 51.4548 64.4862 51.4548Z" fill="#88822C" stroke="#1D1D1B" stroke-width="1.7079" stroke-miterlimit="10"/>
<path d="M88.7124 76.6365C88.6681 78.6952 87.2098 81.5946 82.9282 82.1761C80.2024 82.5464 77.0616 81.0764 74.3291 79.0027C73.8177 78.6143 74.0501 77.8076 74.6895 77.7466C76.3739 77.5856 78.7333 76.1124 79.9958 74.9033C82.0993 72.8888 84.1802 71.904 85.2099 71.9261C87.7832 71.9818 88.7572 74.5777 88.7124 76.6365Z" fill="#88822C" stroke="#1D1D1B" stroke-width="1.7079" stroke-miterlimit="10"/>
<path d="M86.8317 68.3562C86.7426 72.4742 83.264 75.5811 77.3663 77.421C74.783 78.2268 72.3873 78.2535 69.6345 76.1676C69.1529 75.8027 67.8669 73.5594 68.4688 73.5051C70.159 73.3528 73.36 72.1848 76.4927 70.1929C78.9503 68.6302 80.7888 62.0465 81.818 62.0687C83.3621 62.1012 86.8982 65.2678 86.8317 68.3562Z" fill="#88822C" stroke="#1D1D1B" stroke-width="1.7079" stroke-miterlimit="10"/>
<path d="M72.7225 53.5139C68.6036 53.5139 63.4551 56.6032 63.4551 62.7813C63.4551 65.5617 63.9651 69.2759 65.9913 72.0731C66.3459 72.5623 67.1105 72.3616 67.1779 71.7611C67.3664 70.0745 68.6036 66.8997 70.6628 63.8109C72.2784 61.3877 78.9001 59.692 78.9001 58.6624C78.9006 57.1178 75.8117 53.5139 72.7225 53.5139Z" fill="#88822C" stroke="#1D1D1B" stroke-width="1.7079" stroke-miterlimit="10"/>
<path d="M78.9015 69.9889C75.8122 73.0782 70.6642 76.167 68.6045 75.1374C66.5453 74.1078 67.5749 65.8701 70.6637 61.7516C73.285 58.2567 76.8418 56.6031 80.9607 58.6623C85.0796 60.7216 82.6415 64.5678 81.9903 65.8701C80.9612 67.9293 80.0672 68.8232 78.9015 69.9889Z" fill="#88822C" stroke="#1D1D1B" stroke-width="1.7079" stroke-miterlimit="10"/>
<path d="M175.177 170.384C271.284 170.384 349.194 159.55 349.194 146.186C349.194 132.822 271.284 121.988 175.177 121.988C79.0702 121.988 1.16016 132.822 1.16016 146.186C1.16016 159.55 79.0702 170.384 175.177 170.384Z" fill="#758468" stroke="#1D1D1B" stroke-width="1.7079" stroke-miterlimit="10"/>
<path d="M314.673 56.0881L291.373 54.5435L268.72 78.2263L271.809 93.6717L293.432 104.998L300.64 87.4936L314.673 56.0881Z" fill="#AE9989" stroke="#1D1D1B" stroke-width="1.7079" stroke-miterlimit="10"/>
<path d="M311.451 107.573C325.668 107.573 337.193 96.0476 337.193 81.8306C337.193 67.6137 325.668 56.0886 311.451 56.0886C297.234 56.0886 285.709 67.6137 285.709 81.8306C285.709 96.0476 297.234 107.573 311.451 107.573Z" fill="#63604A" stroke="#1D1D1B" stroke-width="1.7079" stroke-miterlimit="10"/>
<path d="M295.924 55.4999C295.448 57.5035 290.488 60.5579 287.482 59.8435L288.53 53.2128C288.53 53.2128 296.638 52.4947 295.924 55.4999Z" fill="#88822C" stroke="#1D1D1B" stroke-width="1.7079" stroke-miterlimit="10"/>
<path d="M284.166 51.4548C286.225 51.4548 289.155 52.8498 289.829 57.1179C290.262 59.8644 287.774 63.0975 285.748 65.8951C285.393 66.3844 284.629 66.1836 284.561 65.5831C284.373 63.8965 283.884 61.4706 282.621 60.2072C280.562 58.148 279.532 56.0883 279.532 55.0587C279.532 52.4844 282.106 51.4548 284.166 51.4548Z" fill="#88822C" stroke="#1D1D1B" stroke-width="1.7079" stroke-miterlimit="10"/>
<path d="M259.938 76.6362C259.982 78.695 261.441 81.5944 265.722 82.1759C268.448 82.5462 271.589 81.0762 274.321 79.0025C274.833 78.6141 274.6 77.8074 273.961 77.7463C272.277 77.5854 269.917 76.1122 268.655 74.903C266.551 72.8886 264.47 71.9037 263.441 71.9259C260.867 71.9815 259.894 74.5775 259.938 76.6362Z" fill="#88822C" stroke="#1D1D1B" stroke-width="1.7079" stroke-miterlimit="10"/>
<path d="M261.819 68.3562C261.908 72.4742 265.387 75.5811 271.285 77.421C273.868 78.2268 276.264 78.2535 279.017 76.1676C279.498 75.8027 280.784 73.5594 280.182 73.5051C278.492 73.3528 275.291 72.1848 272.158 70.1929C269.701 68.6302 267.862 62.0465 266.833 62.0687C265.288 62.1012 261.752 65.2678 261.819 68.3562Z" fill="#88822C" stroke="#1D1D1B" stroke-width="1.7079" stroke-miterlimit="10"/>
<path d="M275.928 53.5139C280.047 53.5139 285.195 56.6032 285.195 62.7813C285.195 65.5617 284.685 69.2759 282.659 72.0731C282.304 72.5623 281.54 72.3616 281.472 71.7611C281.284 70.0745 280.047 66.8997 277.987 63.8109C276.372 61.3877 269.75 59.692 269.75 58.6624C269.75 57.1178 272.839 53.5139 275.928 53.5139Z" fill="#88822C" stroke="#1D1D1B" stroke-width="1.7079" stroke-miterlimit="10"/>
<path d="M269.75 69.9889C272.839 73.0782 277.987 76.167 280.047 75.1374C282.106 74.1078 281.076 65.8701 277.987 61.7516C275.366 58.2567 271.809 56.6031 267.69 58.6623C263.571 60.7216 266.01 64.5678 266.661 65.8701C267.69 67.9293 268.584 68.8232 269.75 69.9889Z" fill="#88822C" stroke="#1D1D1B" stroke-width="1.7079" stroke-miterlimit="10"/>
<path d="M74.7822 104.999C74.7822 157.512 119.27 190.462 174.147 190.462C229.025 190.462 273.512 157.512 273.512 104.999C273.512 45.2867 229.025 1 174.147 1C119.27 1 74.7822 45.2867 74.7822 104.999Z" fill="#64614B" stroke="#1D1D1B" stroke-width="1.7079" stroke-miterlimit="10"/>
<path d="M172.604 160.601C42.8631 160.601 20.21 147.215 20.21 147.215C20.21 147.215 31.5366 127.652 51.1005 115.295C70.6644 102.939 81.6392 95.7314 81.6392 95.7314C81.6392 95.7314 120.089 100.88 173.633 100.88C227.177 100.88 249.83 98.8207 261.156 95.7314C272.483 92.6422 334.264 141.038 334.264 141.038C334.264 141.038 335.294 144.127 331.175 146.186C327.057 148.245 320.879 160.601 172.604 160.601Z" fill="#FDBB47" stroke="#1D1D1B" stroke-width="1.7079" stroke-miterlimit="10"/>
<path d="M74.2674 153.908C74.2674 153.908 70.1485 165.235 73.2378 179.65L101.063 180.578C102.609 180.629 103.805 179.232 103.507 177.714C102.604 173.135 101.039 164.03 101.039 155.968L74.2674 153.908Z" fill="#3C352E" stroke="#1D1D1B" stroke-width="1.7079" stroke-miterlimit="10"/>
<path d="M101.554 180.68C103.544 180.68 105.158 172.613 105.158 162.661C105.158 152.709 103.544 144.641 101.554 144.641C99.5637 144.641 97.9502 152.709 97.9502 162.661C97.9502 172.613 99.5637 180.68 101.554 180.68Z" fill="#3C352E" stroke="#1D1D1B" stroke-width="1.7079" stroke-miterlimit="10"/>
<path d="M166.79 159.115L169.514 101.909L99.495 97.7903C99.495 97.7903 78.9015 110.146 66.5449 121.473C58.1425 129.175 46.4076 141.638 39.7574 148.826C37.4626 151.306 38.7513 155.336 42.0599 156.023C55.3083 158.773 76.8419 162.66 106.188 164.379C125.355 165.502 146.127 165.784 158.778 166.396C163.002 166.601 166.589 163.34 166.79 159.115Z" fill="#CFD3BA" stroke="#1D1D1B" stroke-width="1.7079" stroke-miterlimit="10"/>
<path d="M108.762 126.622C113.881 126.622 118.03 122.473 118.03 117.355C118.03 112.237 113.881 108.087 108.762 108.087C103.644 108.087 99.4951 112.237 99.4951 117.355C99.4951 122.473 103.644 126.622 108.762 126.622Z" fill="#7A5644" stroke="#1D1D1B" stroke-width="1.7079" stroke-miterlimit="10"/>
<path d="M111.335 122.022C111.335 122.022 115.968 129.711 130.384 129.711L128.325 127.652L132.444 126.622C132.444 126.622 124.207 127.652 114.939 118.385L111.335 122.022Z" fill="#C6C3AB" stroke="#1D1D1B" stroke-width="1.1386" stroke-miterlimit="10"/>
<path d="M92.3394 122.685C92.3394 122.685 85.3443 128.312 71.8079 123.355L74.4499 122.129L70.9365 119.746C70.9365 119.746 78.3174 123.546 90.2065 118.03L92.3394 122.685Z" fill="#C6C3AB" stroke="#1D1D1B" stroke-width="1.1386" stroke-miterlimit="10"/>
<path d="M103.613 131.77C109.868 131.77 114.939 126.699 114.939 120.444C114.939 114.188 109.868 109.117 103.613 109.117C97.3572 109.117 92.2861 114.188 92.2861 120.444C92.2861 126.699 97.3572 131.77 103.613 131.77Z" fill="#8A7331" stroke="#1D1D1B" stroke-width="1.7079" stroke-miterlimit="10"/>
<path d="M100.009 130.225C106.265 130.225 111.336 125.154 111.336 118.899C111.336 112.643 106.265 107.572 100.009 107.572C93.7537 107.572 88.6826 112.643 88.6826 118.899C88.6826 125.154 93.7537 130.225 100.009 130.225Z" fill="#FFF9C9"/>
<path d="M3.00942 144.434C0.971455 143.468 0.354684 140.854 1.7596 139.09C6.24746 133.454 18.0705 122.231 29.9909 114.78C46.4659 104.483 64.4784 95.1166 75.5509 91.5625C80.4453 94.1865 86.6234 96.2462 92.8015 96.2462C92.8015 96.2462 52.1245 119.895 24.2663 148.153C22.1062 150.344 18.8085 150.942 16.0285 149.625L3.00942 144.434Z" fill="#CFD3BA" stroke="#1D1D1B" stroke-width="1.7079" stroke-miterlimit="10"/>
<path d="M274.385 153.909C274.385 153.909 278.504 165.235 275.414 179.651L247.589 180.578C246.043 180.63 244.847 179.232 245.146 177.714C246.048 173.135 247.613 164.03 247.613 155.968L274.385 153.909Z" fill="#3C352E" stroke="#1D1D1B" stroke-width="1.7079" stroke-miterlimit="10"/>
<path d="M247.098 180.681C249.088 180.681 250.702 172.613 250.702 162.661C250.702 152.709 249.088 144.641 247.098 144.641C245.108 144.641 243.494 152.709 243.494 162.661C243.494 172.613 245.108 180.681 247.098 180.681Z" fill="#3C352E" stroke="#1D1D1B" stroke-width="1.7079" stroke-miterlimit="10"/>
<path d="M181.863 159.116L179.139 101.909L249.157 97.7905C249.157 97.7905 269.751 110.147 282.108 121.473C290.51 129.175 302.245 141.639 308.895 148.826C311.19 151.307 309.901 155.336 306.593 156.023C293.344 158.773 271.811 162.66 242.464 164.38C223.297 165.502 202.525 165.784 189.875 166.397C185.65 166.602 182.064 163.34 181.863 159.116Z" fill="#CFD3BA" stroke="#1D1D1B" stroke-width="1.7079" stroke-miterlimit="10"/>
<path d="M239.889 126.622C245.008 126.622 249.157 122.473 249.157 117.355C249.157 112.237 245.008 108.088 239.889 108.088C234.771 108.088 230.622 112.237 230.622 117.355C230.622 122.473 234.771 126.622 239.889 126.622Z" fill="#7A5644" stroke="#1D1D1B" stroke-width="1.7079" stroke-miterlimit="10"/>
<path d="M237.316 122.022C237.316 122.022 232.683 129.711 218.267 129.711L220.326 127.652L216.207 126.623C216.207 126.623 224.444 127.652 233.712 118.385L237.316 122.022Z" fill="#C6C3AB" stroke="#1D1D1B" stroke-width="1.1386" stroke-miterlimit="10"/>
<path d="M256.312 122.685C256.312 122.685 263.307 128.312 276.843 123.355L274.201 122.129L277.714 119.746C277.714 119.746 270.334 123.546 258.444 118.03L256.312 122.685Z" fill="#C6C3AB" stroke="#1D1D1B" stroke-width="1.1386" stroke-miterlimit="10"/>
<path d="M245.038 131.77C251.293 131.77 256.364 126.699 256.364 120.444C256.364 114.188 251.293 109.117 245.038 109.117C238.782 109.117 233.711 114.188 233.711 120.444C233.711 126.699 238.782 131.77 245.038 131.77Z" fill="#8A7331" stroke="#1D1D1B" stroke-width="1.7079" stroke-miterlimit="10"/>
<path d="M248.642 130.226C254.898 130.226 259.969 125.155 259.969 118.899C259.969 112.644 254.898 107.573 248.642 107.573C242.387 107.573 237.315 112.644 237.315 118.899C237.315 125.155 242.387 130.226 248.642 130.226Z" fill="#FFF9C9"/>
<path d="M345.644 144.434C347.682 143.469 348.298 140.855 346.893 139.09C342.406 133.454 330.582 122.231 318.662 114.781C302.187 104.484 284.175 95.1169 273.102 91.5627C268.208 94.1867 262.03 96.2464 255.852 96.2464C255.852 96.2464 296.529 119.896 324.387 148.154C326.547 150.344 329.845 150.942 332.625 149.625L345.644 144.434Z" fill="#CFD3BA" stroke="#1D1D1B" stroke-width="1.7079" stroke-miterlimit="10"/>
<path d="M267.921 90.9944C240.562 98.8203 208.786 97.7902 172.088 97.7902C137.253 97.7902 108.762 95.731 80.209 90.8913C83.9159 41.178 124.558 4.08862 174.148 4.08862C223.088 4.08908 263.308 42.218 267.921 90.9944Z" fill="#5A9790" stroke="#1D1D1B" stroke-width="1.7079" stroke-miterlimit="10"/>
<path d="M219.081 85.0161C218.551 79.0699 217.406 69.8251 215.335 68.4446C213.924 67.5037 211.441 66.9959 209.157 66.7182V64.3262C213.276 62.267 213.276 60.2073 213.276 60.2073L216.365 58.1481L218.424 57.1185L217.395 55.0593L215.336 51.97L221.863 50.1048C222.105 50.036 222.135 49.7064 221.911 49.5938L216.365 46.8211L223.29 41.8747C223.419 41.7829 223.403 41.588 223.262 41.5175L217.395 38.5837L223.232 31.7744C223.352 31.6338 223.236 31.4181 223.052 31.4412L215.336 32.4056C216.879 27.0048 216.109 22.7602 215.627 20.9714C215.565 20.744 215.247 20.7232 215.173 20.947C214.103 24.1955 208.128 29.3168 208.128 29.3168C207.285 26.7873 200.919 20.1159 198.64 17.7813C198.364 17.4992 197.89 17.7189 197.92 18.1119L198.861 30.346L188.737 28.5052C188.242 28.4152 187.856 28.9293 188.081 29.3801L192.683 38.5833C192.683 38.5833 190.406 39.7214 188.564 40.6425C187.057 41.3958 184.999 42.1492 184.003 42.4992C183.818 42.5643 183.83 42.8261 184.017 42.8821L193.712 45.7906L186.857 50.6872C186.672 50.8192 186.671 51.095 186.86 51.2207C188.254 52.1482 191.653 52.9983 191.653 52.9983L189.594 56.0875H195.772L193.713 59.1768L196.802 60.2064C198.861 61.236 200.921 62.2656 200.921 62.2656V66.1055C198.125 65.898 194.349 65.7483 193.713 66.3845C193.018 67.08 190.914 75.2888 189.621 80.5458C184.389 80.0588 179.174 79.7703 174.149 79.7703C166.364 79.7703 158.585 80.3491 151.234 81.2273C149.109 76.4446 145.318 73.5922 145.318 73.5922C145.318 73.5922 147.377 71.533 149.437 69.4734C151.496 67.4141 151.496 63.2952 151.496 63.2952C153.555 62.2656 152.526 58.1468 152.526 56.0875C152.526 54.0283 150.467 54.0283 150.467 54.0283C150.467 54.0283 151.496 52.9987 149.437 47.8502C147.378 42.7017 142.229 39.6129 135.022 39.6129C127.814 39.6129 124.725 42.7022 120.606 49.9099C116.487 57.1176 121.636 64.3253 121.636 64.3253C121.636 68.4442 128.844 73.5927 128.844 73.5927C124.627 78.5115 123.77 83.4257 123.649 86.0538C114.24 88.1985 108.25 90.0673 108.25 90.0673C125.755 99.3347 248.288 92.1265 248.288 92.1265C248.288 92.1265 235.8 88.3825 219.081 85.0161Z" fill="#1D1D1B"/>
<path d="M271.453 83.375C271.968 86.1545 272.693 90.7437 272.355 93.5752C246.573 99.407 212.29 102.959 174.663 102.959C137.036 102.959 100.693 99.407 74.911 93.5752C74.5732 90.7437 75.8126 86.4643 76.3277 83.6847C102.181 89.6074 136.724 93.218 174.663 93.218C212.602 93.218 245.599 89.2976 271.453 83.375Z" fill="#728165" stroke="#1D1D1B" stroke-width="1.7079" stroke-miterlimit="10"/>
<path d="M173.632 102.424C176.191 102.424 178.266 100.35 178.266 97.7907C178.266 95.2317 176.191 93.1572 173.632 93.1572C171.073 93.1572 168.999 95.2317 168.999 97.7907C168.999 100.35 171.073 102.424 173.632 102.424Z" fill="#728165" stroke="#1D1D1B" stroke-width="1.7079" stroke-miterlimit="10"/>
<path d="M174.109 102.425H173.158C172.568 102.425 172.089 101.946 172.089 101.356V94.2262C172.089 93.6361 172.567 93.1572 173.158 93.1572H174.109C174.699 93.1572 175.178 93.6356 175.178 94.2262V101.356C175.178 101.946 174.7 102.425 174.109 102.425Z" fill="#728165" stroke="#1D1D1B" stroke-width="1.7079" stroke-miterlimit="10"/>
<path d="M88.6833 95.7313C91.2423 95.7313 93.3167 93.6568 93.3167 91.0978C93.3167 88.5388 91.2423 86.4644 88.6833 86.4644C86.1243 86.4644 84.0498 88.5388 84.0498 91.0978C84.0498 93.6568 86.1243 95.7313 88.6833 95.7313Z" fill="#728165" stroke="#1D1D1B" stroke-width="1.7079" stroke-miterlimit="10"/>
<path d="M90.5486 95.366L89.6424 95.6558C89.0804 95.8358 88.4785 95.526 88.2986 94.9635L86.1254 88.1732C85.9454 87.6111 86.2552 87.0093 86.8177 86.8293L87.7238 86.5395C88.2859 86.3595 88.8878 86.6692 89.0677 87.2317L91.2409 94.0221C91.4209 94.5842 91.1107 95.186 90.5486 95.366Z" fill="#728165" stroke="#1D1D1B" stroke-width="1.7079" stroke-miterlimit="10"/>
<path d="M259.621 96.0418C262.18 96.0418 264.254 93.9674 264.254 91.4084C264.254 88.8494 262.18 86.7749 259.621 86.7749C257.062 86.7749 254.987 88.8494 254.987 91.4084C254.987 93.9674 257.062 96.0418 259.621 96.0418Z" fill="#728165" stroke="#1D1D1B" stroke-width="1.7079" stroke-miterlimit="10"/>
<path d="M258.412 95.9065L257.523 95.5669C256.972 95.3562 256.695 94.7386 256.906 94.1874L259.449 87.5268C259.66 86.9751 260.277 86.6988 260.829 86.9096L261.718 87.2491C262.269 87.4599 262.546 88.0775 262.335 88.6287L259.791 95.2893C259.581 95.841 258.963 96.1172 258.412 95.9065Z" fill="#728165" stroke="#1D1D1B" stroke-width="1.7079" stroke-miterlimit="10"/>
</svg>
